<?xml version="1.0" standalone="no"?>
<!DOCTYPE svg PUBLIC "-//W3C//DTD SVG 1.1//EN" "http://www.w3.org/Graphics/SVG/1.1/DTD/svg11.dtd" >
<svg>
<metadata>
Created by FontForge 20120731 at Tue Jun  3 17:02:54 2014
 By World Wide Web Server
Copyright (c) 2013 by SpideRaYsfoNtS. All rights reserved.
</metadata>
<defs>
<font id="Fangtasia" horiz-adv-x="347" >
  <font-face 
    font-family="Fangtasia"
    font-weight="400"
    font-stretch="normal"
    units-per-em="1000"
    panose-1="3 8 7 2 3 3 6 6 2 4"
    ascent="800"
    descent="-200"
    x-height="365"
    cap-height="862"
    bbox="-593 -330 2723 1062"
    underline-thickness="64"
    underline-position="-90"
    unicode-range="U+0020-FB02"
  />
<missing-glyph horiz-adv-x="1242" 
d="M462 -8q-20 0 -31.5 9.5t-11.5 26.5q0 31 32 63q33 33 64 33q17 0 31 -13t14 -30q0 -28 -32 -59q-33 -30 -66 -30zM732 903q26 0 59.5 -23.5t63 -56t50 -65.5t20.5 -52q0 -86 -192 -309q-51 -62 -92 -110.5t-70 -86.5q-6 -3 -12 -4t-17 -1q-17 0 -23 3t-6 11t22 42t62 89
l72 98l25 35q136 187 136 265q0 34 -18 52.5t-49 18.5q-59 0 -136 -53q-37 -26 -70 -57.5t-63 -74.5q-18 14 -25.5 25t-7.5 22q0 17 16 40t51 56q69 66 121.5 101t82.5 35zM238 -110q-1 -4 -5 -6.5t-8 -2.5q-20 0 -43.5 25.5t-49.5 73.5q-25 50 -38.5 108t-13.5 122
q0 130 53 292h-1q27 79 63.5 151.5t81.5 138.5q50 74 108.5 113.5t119.5 39.5q26 0 45.5 -8t19.5 -17t-28 -11q-18 -2 -34.5 -5.5t-28.5 -9.5q-116 -54 -204 -250q-57 -131 -87 -250.5t-30 -210.5q0 -85 20 -158.5t62 -141.5zM1004 924q2 8 11 8q43 0 93 -98
q54 -102 54 -231q0 -131 -55 -289q-52 -159 -143 -291q-51 -75 -109.5 -114.5t-119.5 -39.5q-26 0 -45 7t-19 18q0 9 27 12h-1q19 1 35.5 5t28.5 9q57 26 109 88.5t95 161.5q57 131 87 249.5t30 210.5q0 86 -19 160t-61 140z" />
    <glyph glyph-name=".notdef" horiz-adv-x="1242" 
d="M462 -8q-20 0 -31.5 9.5t-11.5 26.5q0 31 32 63q33 33 64 33q17 0 31 -13t14 -30q0 -28 -32 -59q-33 -30 -66 -30zM732 903q26 0 59.5 -23.5t63 -56t50 -65.5t20.5 -52q0 -86 -192 -309q-51 -62 -92 -110.5t-70 -86.5q-6 -3 -12 -4t-17 -1q-17 0 -23 3t-6 11t22 42t62 89
l72 98l25 35q136 187 136 265q0 34 -18 52.5t-49 18.5q-59 0 -136 -53q-37 -26 -70 -57.5t-63 -74.5q-18 14 -25.5 25t-7.5 22q0 17 16 40t51 56q69 66 121.5 101t82.5 35zM238 -110q-1 -4 -5 -6.5t-8 -2.5q-20 0 -43.5 25.5t-49.5 73.5q-25 50 -38.5 108t-13.5 122
q0 130 53 292h-1q27 79 63.5 151.5t81.5 138.5q50 74 108.5 113.5t119.5 39.5q26 0 45.5 -8t19.5 -17t-28 -11q-18 -2 -34.5 -5.5t-28.5 -9.5q-116 -54 -204 -250q-57 -131 -87 -250.5t-30 -210.5q0 -85 20 -158.5t62 -141.5zM1004 924q2 8 11 8q43 0 93 -98
q54 -102 54 -231q0 -131 -55 -289q-52 -159 -143 -291q-51 -75 -109.5 -114.5t-119.5 -39.5q-26 0 -45 7t-19 18q0 9 27 12h-1q19 1 35.5 5t28.5 9q57 26 109 88.5t95 161.5q57 131 87 249.5t30 210.5q0 86 -19 160t-61 140z" />
    <glyph glyph-name="quotedbl" unicode="&#x22;" horiz-adv-x="403" 
d="M339 980v-378h-81v378h81zM144 980v-378h-80v378h80z" />
    <glyph glyph-name="numbersign" unicode="#" horiz-adv-x="1077" 
d="M679 599h-202l-70 -206h199zM617 985l-114 -322h198l115 322h78l-113 -322h210q-6 -18 -12 -33t-11 -31h-212l-70 -206h224q-6 -18 -12 -33t-11 -31h-225l-114 -320h-80l116 320h-201q-28 -78 -58 -160t-58 -160h-77l114 320h-219q7 18 12 33t10 31h219l73 206h-234
q7 18 12 33t10 31h236l115 322h79z" />
    <glyph glyph-name="percent" unicode="%" horiz-adv-x="668" 
d="M329 361q-48 -51 -98.5 -109t-104.5 -123q-104 -123 -111 -123q-13 0 -22.5 13.5t-9.5 32.5q0 5 19.5 28.5t56.5 65.5l4 5l451 501l15 17l-1 -1q156 175 210 175q5 0 9.5 -6t4.5 -15q0 -11 -39 -44h1q-44 -34 -70 -65l1 1zM337 41q0 -11 10 -20t23 -9q36 0 73 59v-1
q20 29 28.5 56.5t8.5 55.5q0 33 -10.5 51t-28.5 18q-29 0 -68 -78v1q-19 -35 -27.5 -68.5t-8.5 -64.5zM408 296q25 13 48 13q34 0 55.5 -33.5t21.5 -85.5q0 -84 -47 -143q-46 -58 -105 -58q-36 0 -59 3t-36 10.5t-18 19.5t-5 30q0 22 6 48.5t17 58.5v-1q25 67 58 109
q10 11 22 17t39 11zM204 581q0 -26 10.5 -38.5t27.5 -12.5q33 0 71 66q17 31 25.5 62.5t8.5 61.5q0 21 -10.5 36.5t-24.5 15.5q-28 0 -70 -71q-38 -68 -38 -120zM291 824q21 0 40 -6t33.5 -17.5t23.5 -29t9 -40.5q0 -88 -55 -158q-27 -35 -57.5 -52.5t-67.5 -17.5
q-81 0 -81 86q0 32 17 79.5t46 96.5q16 26 42 42.5t50 16.5z" />
    <glyph glyph-name="ampersand" unicode="&#x26;" horiz-adv-x="727" 
d="M350 484q42 54 66 104.5t24 82.5q0 12 -6.5 21.5t-14.5 9.5q-13 0 -27.5 -15.5t-28.5 -42.5q-17 -34 -25 -67.5t-8 -65.5v-6t1 -7q0 -3 0.5 -4.5t0.5 -3.5zM257 349q-176 -168 -176 -224q0 -79 114 -79q47 0 98.5 14t99.5 40q-35 57 -65 125t-56 151zM426 54
q-108 -57 -216 -57q-99 0 -167 41l1 -1q-63 42 -63 99q0 20 19 48.5t54.5 64t86.5 77t114 86.5l12 10q-8 32 -10.5 61.5t-2.5 61.5q0 88 38 137.5t104 49.5q5 0 11 -2t14 -4q30 -5 50 -29.5t20 -55.5q0 -83 -149 -226q22 -92 46.5 -159t58.5 -119q37 30 57 58t20 51v3.5
t-1 4.5q0 1 -4 5q-2 2 -3 4h-35q-2 -1 -4 -1h-1q-9 0 -17.5 5t-16 12.5t-12 16t-4.5 15.5q0 21 10 28.5t25 4.5t32.5 -14t32.5 -27t25 -36t10 -39q0 -28 -22 -64.5t-60 -71.5l39 -37q12 -11 22 -19t10 -9q0 -3 -14 -8t-25 -5q-5 0 -10.5 1.5t-14 5.5t-20 12t-29.5 20z" />
    <glyph glyph-name="quotesingle" unicode="'" horiz-adv-x="209" 
d="M144 980v-378h-80v378h80z" />
    <glyph glyph-name="parenleft" unicode="(" horiz-adv-x="414" 
d="M224 -194q-1 -4 -5 -6.5t-8 -2.5q-20 0 -43.5 25.5t-49.5 73.5q-25 50 -38.5 108t-13.5 122q0 130 53 292h-1q27 79 63.5 151.5t81.5 138.5q50 74 108.5 113.5t119.5 39.5q26 0 45.5 -8t19.5 -17t-28 -11q-18 -2 -34.5 -5.5t-28.5 -9.5q-116 -54 -204 -250
q-57 -131 -87 -250.5t-30 -210.5q0 -85 20 -158.5t62 -141.5z" />
    <glyph glyph-name="parenright" unicode=")" horiz-adv-x="414" 
d="M170 853q2 8 11 8q43 0 93 -99q53 -101 53 -230t-53 -290q-26 -78 -62 -150.5t-83 -140.5q-51 -75 -109.5 -114.5t-118.5 -39.5q-26 0 -45.5 7.5t-19.5 17.5q0 5 8 8t20 5q17 1 34.5 4.5t28.5 8.5q116 54 204 250q57 131 87 249.5t30 211.5q0 86 -19 160t-61 140z" />
    <glyph glyph-name="asterisk" unicode="*" horiz-adv-x="1018" 
d="M735 962q2 0 2 -5q0 -4 -2 -4q-5 0 -5 4v2q0 -1 -1 -1v-5q1 0 2 -0.5t2 -0.5q1 -1 2 -1t3.5 1t3.5 1v-2q0 -1 2 -5.5t4 -9.5t4.5 -10t3.5 -6q0 -2 3 -10t4 -11q0 -2 1.5 -7t1.5 -7q1 -3 2 -11.5t1 -9.5v-42q0 -3 -1 -6q-2 -6 -2 -10q-5 -25 -15 -47t-13 -46v-14
q1 -2 5.5 -8t4.5 -8q1 -1 5 -8.5t6 -12.5q1 -1 2.5 -4t1.5 -4q1 -3 2 -10t1 -8q0 -2 0.5 -7t0.5 -11q0 -5 -0.5 -9.5t-0.5 -6.5q0 -1 -1 -8.5t-2 -9.5q-3 -13 -9 -24t-12 -21q-1 0 -4.5 -3.5t-7 -7.5t-6.5 -8t-3 -5q-1 -1 -4 -6.5t-3 -7.5l-2 -2q-1 -1 -1 -2h-15
q-2 0 -7.5 -3t-6.5 -4q-19 -8 -37 -11t-39 -6q-1 0 -8 -1.5t-9 -1.5t-10.5 -1t-10.5 -1q-5 -2 -14 -3.5t-11 -1.5h-71q-2 0 -11 1.5t-14 3.5q-2 0 -8.5 1t-8.5 1t-6.5 1.5t-6.5 1.5q-8 2 -19 6t-13 4q-3 2 -9.5 6t-14.5 7.5t-15 7.5t-10 6q-1 0 -5 2t-8.5 5l-9 6t-6.5 5
q-7 4 -17.5 11.5t-12.5 9.5q-2 3 -9.5 10.5l-16 16l-17 17t-11.5 12.5q-2 1 -6.5 8t-7.5 10q-2 1 -8 10t-9 14q-2 1 -7.5 9.5t-6.5 11.5q-3 5 -7.5 9t-8.5 10v52q0 2 2.5 9.5t3.5 11.5q3 18 7 34t8 33q2 2 5.5 8t3.5 8q2 4 6 13t8.5 18l8 16t3.5 9q2 2 10.5 14t10.5 17
q2 2 6 8t6 7l30 29q-6 -7 -15 -17t-13 -12q0 -1 -4 -7t-5 -8q-5 -8 -11 -17t-10 -17l4.5 4.5t4.5 5.5q2 1 7.5 9t6.5 9q1 0 5 4t8 8.5l8 9t5 5.5q0 1 2 6t3 5t5.5 2t9.5 4t9.5 4t5.5 2q1 2 6 6t6 6q4 2 9 2q0 1 5 1t7 -1q2 0 4.5 -1t4.5 -1q1 -4 7.5 -10.5t7.5 -8.5
q1 2 2.5 2.5t1.5 2.5q0 1 1.5 3t1.5 4q1 1 2.5 10t1.5 11v2q0 2 1 3l2 4q1 2 3.5 4.5t3.5 2.5q1 2 5.5 2.5t5.5 0.5h42q2 0 4 -2l3 -3q0 -1 1 -3q0 -2 0.5 -3.5t0.5 -2.5l11 -24l2 2q2 2 2 3t2.5 5.5t5.5 9.5t5.5 9t3.5 6q0 1 3 1t4 -1q0 -1 1 -1t2 -1q1 -2 2.5 -4.5
t1.5 -4.5q1 -2 3 -9.5t4 -9.5h1v14q2 1 3 9.5t3 9.5q0 2 1.5 4t1.5 3h4q1 -1 3 -2q2 -2 4 -2q2 -1 5 -2q5 -3 5 -4h4l2 2q1 0 1 1q0 4 -3 7h3q1 0 4.5 -1.5t4.5 -2.5h9q1 1 4 3.5t4 4.5l21 17h4q-2 -2 -6 -6.5t-9 -9t-9.5 -9t-5.5 -6.5q-1 -1 -2 -1q-1 -1 -4 -1h6q1 0 2 1
q1 0 1.5 0.5t1.5 0.5q2 2 6.5 3.5t6.5 2.5q1 1 6 7t6 6h27q2 -1 5 -2l6 -3l4 -2q1 -1 3 -2q0 -1 1 -2l2 -2h3q2 0 4 -2l1 -1q1 0 2 -1t3 -2l4 -2q4 0 4 -5q1 -2 4 -6.5t6.5 -9.5t6.5 -9t4 -5l8 7l3 7h6l32 -31l7 3l-3 -4q1 1 3 1zM682 827q-2 0 -2 -4t1 -4h-2q-1 0 -3.5 1.5
t-3.5 1.5q0 4 -0.5 11.5t-2.5 9.5q0 1 -1.5 5.5t-1.5 5.5l1 2q1 1 2 1h-8q-2 1 -5.5 3t-3.5 4h9q1 0 3 1.5t2 2.5v3l-5.5 5.5t-6.5 5.5t-4.5 3.5t-4.5 2.5q-5 2 -15.5 8t-13.5 7l-4 1.5t-9 2.5t-10 2.5t-8 1.5q-1 2 -11.5 4.5t-14.5 4.5q-4 1 -10.5 2.5t-8.5 1.5h-44
q-1 0 -6.5 -1t-13 -2t-15.5 -2.5t-14 -1.5q-20 -5 -39.5 -9t-39.5 -12q-3 -1 -10 -4.5t-8 -3.5t-1 -1v-2q-2 0 -3.5 -3t-2.5 -4v-3q-1 -5 -3 -12t-4 -13l-2 2q-1 1 -1 2q-1 1 -10 4.5t-11 5.5q-2 -1 -4 -3q-4 -4 -6 -4q-2 -1 -4 -3l-4 -4q-1 -1 -2 -1q-1 -1 -4 -1l5 -5
q-2 -2 -8 -5.5t-8 -4.5q-1 -1 -3 -5.5t-2 -5.5v-21q0 -2 -3 -4t-4 -3q-2 0 -5.5 0.5t-7.5 0.5t-7.5 -0.5t-5.5 -0.5t-10.5 -3.5t-10.5 -5.5v-21q0 -1 1.5 -5t3.5 -6q0 -2 1 -3q0 -2 0.5 -2.5t0.5 -1.5q2 -1 4.5 -4.5t2.5 -5.5q3 0 5 -4q1 -2 2 -3h7q2 0 4 1.5t3 1.5l3 3
q1 1 2 1q0 3 1 5q0 2 0.5 3t0.5 2q2 2 4.5 12.5t2.5 12.5q2 2 2.5 3.5t2.5 2.5q1 -2 9 -8.5t12 -8.5q3 -2 10 -7t15 -11t15 -11t10 -6l28 -12h11q-1 3 -5.5 10t-5.5 9q0 3 -3 10.5t-4 10.5q0 2 -1.5 7.5t-1.5 6.5v6q0 2 1.5 8t1.5 7q1 -1 5.5 -3t5.5 -4q2 0 6 -2l4 -2
q1 0 9.5 2t11.5 2q0 2 5 2.5t6 1.5l13 7q1 0 5.5 3.5t5.5 5.5q0 1 2 5q1 2 2 3q5 -4 12 -8.5t15 -6.5q10 -3 20 -3q2 0 4 0.5t4 0.5q1 0 8.5 1t12.5 1q2 0 10 2q4 1 7 2q1 0 1 1.5t1 1.5q0 3 1 5t2 3t3 1l1 -1t2 -3t2 -3t1 -2q2 -2 5 -5.5t4 -3.5q2 -1 8 -1.5t8 -2.5
q1 0 6.5 -0.5t11.5 -1t11 -1t7 -0.5l9 -9l9 -9q2 -1 3.5 -5t2.5 -6v-6l-17 -42v-4q2 2 4.5 2.5t2.5 1.5l15 15t12 13q1 1 4 5t6.5 8.5t6.5 8.5t4 6t4 6.5t3 6.5l5 12.5t3 8.5q1 1 1 9q0 7 -1 8h-3v4h-4q3 0 3 4t-4 4zM99 -154q-1 4 -2.5 18.5t-3.5 31t-4 30.5t-2 18
q0 8 -1.5 19.5t-1.5 12.5q0 2 -0.5 9t-2.5 7h-59l-4 22q7 0 25.5 0.5t39 1t38.5 1t26 0.5h52q2 0 12 1t21.5 2t21.5 2t13 2q5 0 12 0.5t13 1.5q7 1 15 1l33 -30h6v30h22q0 -2 0.5 -8t1 -12.5t1 -12.5t0.5 -9q0 -2 1 -11t1.5 -19.5t1 -19.5t0.5 -12q1 -6 1 -15t1 -17
q0 -10 1 -20l7 -12h83q1 0 3 2t4 3q0 1 1 1.5t2 2.5q1 1 2 3v164h27v-21q0 -8 -0.5 -29t-1.5 -44.5t-2 -44.5t-2 -29q0 -1 -3 -4.5t-7 -7.5t-7.5 -7t-4.5 -3q-2 0 -13.5 -1.5t-18.5 -3.5q-3 0 -9.5 -0.5t-14.5 -0.5t-14.5 -0.5t-9.5 -0.5h-24q-1 0 -6.5 8t-7.5 13
q-1 2 -4 6.5t-3 5.5l-2 6q-2 6 -2 8q0 3 -1.5 9t-3 13.5t-3 13.5t-2.5 9l-4 4l-8 -21q0 -2 -6 -4q-1 0 -6 -3t-7 -4v-1q2 -2 3.5 -6.5t2.5 -6.5q2 -1 9 -11t9 -13q1 -2 5 -7t8.5 -11.5t8.5 -12t6 -8.5q-1 0 -3 -0.5t-4 -0.5q-1 0 -9.5 -1.5t-11.5 -3.5h-3q0 2 -4.5 5t-6.5 7
q-2 1 -7 7t-10.5 13t-10 12.5t-5.5 7.5l-21 24q-1 2 -4 5q-2 1 -3 2h-34v-77h-7q-2 1 -9.5 2.5t-8.5 3.5q0 3 -0.5 9.5t-1 14l-1 15t-0.5 10.5t-0.5 15t-1 25.5t-1.5 25.5t-1 15q0 5 -1.5 18.5t-1.5 17.5h-42q-5 0 -16 -1.5t-16 -2.5l4 -32q0 -2 1 -10t2.5 -18t2.5 -19
t1 -12v-83q-1 0 -3 -1t-4 -1h-17q0 3 -1.5 15t-1.5 14zM443 523q1 -1 2 -1h6q1 2 5 5t6 5q1 1 2 5.5t1 5.5t0.5 7.5t1 14l1 15t0.5 11.5v14q0 2 -2 10q-1 4 -1 8q-2 1 -5.5 4.5l-5.5 5.5q-1 0 -2.5 0.5t-3.5 0.5t-4 -0.5t-3 -0.5l-29 -18q-2 -2 -7 -4.5t-6 -2.5l-8 4l-3 3
q0 1 -2 7.5t-4 6.5q-1 0 -1.5 0.5t-1.5 0.5q-2 0 -2.5 -0.5t-1.5 -0.5t-5.5 -3t-5.5 -3l-3 6l-4 4q-2 1 -3 3h-5q-2 0 -6 2q-2 1 -3 2h-7q-1 0 -3 -1.5t-2 -2.5q-5 -2 -13.5 -11.5t-12.5 -12.5h-4q-1 1 -2 3q-2 2 -2 4t-0.5 7t-0.5 7h-12l-4 -2l-4 -2q1 0 4.5 -1t3.5 -2
q2 -2 6 -11t6 -10q0 -2 2 -3t3 -3h4q1 1 2.5 2t3.5 3l4 4q1 0 1.5 0.5t2.5 0.5q1 0 2 -1v-30l4 -5q2 0 4 4l2 4l5 21l1 1q1 0 2 -1q1 0 2.5 -3.5t1.5 -4.5l10 18l4 -34q0 -4 1.5 -10t1.5 -8q1 0 2 -1.5t2 -1.5q2 2 5 5.5t5 3.5q1 1 4 6t3 6l2 1l2 2l1 1q1 0 2 -1
q1 -2 5.5 -10t5.5 -11l3 -3l7 13q1 -2 5.5 -5t5.5 -5q2 -1 6.5 -10t6.5 -11l11 -14zM637 -78q0 3 -0.5 17t-1 31.5t-1 34.5t-0.5 26v10q0 1 1 1.5t2 2.5q1 1 7 3t8 4h2q1 0 3 -1.5t4 -2.5q3 -2 7 -4t4 -3q7 -6 15 -17q0 -3 1 -4q1 -2 2 -3q2 -2 2.5 -7.5t0.5 -6.5v-6
q0 -3 -0.5 -13t-2.5 -12q0 -1 -1.5 -5.5t-1.5 -5.5q-2 -2 -6 -10t-6 -11q1 -1 3.5 -5t5 -8.5t4.5 -8.5t2 -5q2 -1 2.5 -7t0.5 -11v-15q0 -2 -0.5 -8t-2.5 -8q-1 -1 -7 -6t-8 -6q0 -2 -5 -3.5t-9 -2.5h-21q0 5 -0.5 15.5t-1 22.5t-1 22.5t-0.5 15.5zM616 41v-21q-2 -1 -5 -2
t-8 -1q-3 -1 -10.5 -2t-15.5 -2t-15 -1.5t-10 -0.5q-2 -1 -3 -2t-1 -2t-1 -1v-9q0 -5 0.5 -11.5t1.5 -12.5q1 -7 3 -15l4 -4h43v-27q-11 -1 -23.5 -2.5t-23.5 -2.5v-42q0 -2 1 -7t3 -6h10.5t16 -0.5t16.5 -1t11 -1.5q2 0 6 -0.5t4 -2.5q1 0 1 -3t-1 -4l-2 -4l-2 -4h-94v189z
M916 31q-2 3 -3.5 15t-2.5 16v9h34q-1 -1 -1 -3t2 -2q3 0 3 2q0 1 -2 3h3l3 -3q2 -2 4 -6q0 -2 3 -10t4 -11q2 -2 2.5 -9t0.5 -8v-111q0 -1 -0.5 -6t-2.5 -6q-1 -2 -4 -6.5t-3 -6.5q-2 -2 -6 -5t-5 -3h-29v151zM848 41q0 1 1.5 6.5t3.5 5.5q0 3 1 4q0 1 1 2q2 0 5.5 1.5
t4.5 1.5t2 0.5t2 0.5q2 0 3 -0.5t2 -0.5q2 -2 8 -8.5t7 -8.5q3 -2 5.5 -10.5t2.5 -10.5q1 -4 1 -14.5v-22.5v-21.5t-1 -14.5v-6t-0.5 -12t-1 -13.5t-0.5 -10.5q0 -2 -2 -11.5t-4 -12.5q0 -2 -1.5 -9.5t-1.5 -8.5t-1.5 -2.5t-2.5 -3.5q-1 -1 -2 -1q-1 -1 -4 -1h-15
q-2 1 -7.5 5.5t-5.5 6.5v170zM785 -139q0 2 -0.5 3.5t-0.5 2.5q-1 2 -2 8t-2 7q0 2 -2 11.5t-2 12.5q-1 3 -2 9.5t-1.5 13.5t-1 12t-0.5 7v76q2 2 4.5 10.5t4.5 10.5l8.5 8.5l8.5 8.5h1q1 0 1.5 0.5t1.5 0.5q2 0 2.5 -0.5t1.5 -0.5l4 -2q2 -1 4 -1q5 0 5 -6q1 0 1.5 -5.5
t0.5 -6.5v-170q0 -2 -5 -6.5t-9 -5.5h-14q-1 0 -3 1t-4 1zM855 -129h6q1 0 3.5 2t4.5 2q4 2 5 5t2 5q1 1 1.5 2.5t1.5 3.5l2 4q0 5 0.5 12t0.5 9q0 3 1 10t1.5 14t1 13t0.5 8v63q0 1 -1.5 5.5t-2.5 5.5q-1 0 -1 1v2v3q0 1 -3 1.5t-4 2.5h-5l-2 -2l-2 -2l-5 -10
q-1 -6 -1.5 -20t-1 -29.5t-1 -29t-1.5 -18.5v-63zM218 -56h89q1 0 3 5.5t2 8.5v11q0 2 -4 9.5t-6 11.5l-4 3q-3 0 -10 0.5t-15 0.5t-16 -0.5t-11 -0.5t-7.5 -0.5t-9.5 -1.5t-11 -1v-46zM801 -125q0 -1 1 -1t1 -0.5t1 -0.5l2 -2h7v51q0 6 -0.5 21.5t-0.5 33t-0.5 33
t-0.5 21.5q-2 2 -4 5t-2 5q-1 1 -2 2.5t-2 1.5h-4q-2 -2 -4.5 -2.5t-2.5 -1.5q-1 -2 -2 -3l-3 -3q0 -1 -0.5 -5.5t-0.5 -5.5v-69v-7t0.5 -12t0.5 -13.5v-9.5q2 -3 2.5 -11t2.5 -10q0 -1 2.5 -5.5t4.5 -6.5q0 -2 2 -2.5t2 -2.5zM493 560q1 -1 4.5 -5.5t3.5 -5.5q2 -2 7 -2
q4 0 6 2l12 15q2 0 9 -1.5t8 -2.5h9q2 1 4.5 2t2.5 2q0 2 1 4.5t1 4.5q0 1 -1 8t-1 10q0 1 -1.5 3.5t-1.5 4.5q-2 2 -4.5 3t-4.5 3l-4 2q-2 1 -3 1h-23q-2 1 -10.5 5t-10.5 6q-1 1 -2.5 1.5t-3.5 1.5t-4 1t-4.5 -1t-2.5 -3t1.5 -9t1.5 -8t2 -10t2 -11q1 -3 3 -11t4 -10z
M711 -108q0 4 0.5 20.5t1 35.5t1 35t0.5 20v131q0 3 0.5 13.5t1 23t1 23t0.5 12.5q0 9 0.5 31.5t0.5 48.5t-0.5 48t-0.5 31q1 -4 2.5 -17.5t1.5 -18.5v-153q0 -2 -0.5 -9.5t-1 -16t-1.5 -16t-1 -9.5v-9q0 -2 1 -7t1.5 -11t1 -11.5t0.5 -6.5q0 -3 1.5 -13.5t1.5 -13.5v-26
q0 -5 -0.5 -21t-1 -35t-1 -35t-0.5 -20v-52h55q-2 -1 -10 -3t-10 -2q-8 -2 -23 -2q-16 0 -22 2v33zM931 -70q0 -2 0.5 -8t1.5 -12.5t2 -12.5t2 -9q3 5 6 9.5t6 8.5l2 4q0 1 1 3v118q-1 2 -1 4q-1 2 -1 3.5t-1 2.5t-2 4t-2 3q-3 5 -7 5q0 2 -4 2t-6 -2v-39q0 -5 0.5 -17
t1 -25.5t1 -25t0.5 -16.5zM599 560h4l7 13v1q0 2 1 3q1 2 2 3h27q2 0 4 2q1 1 1 2v10l-8 14q-2 3 -6.5 7t-6.5 4h-46v-7q2 -2 2.5 -6.5t1.5 -6.5q-1 -2 -2.5 -3t-2.5 -2h-9q-1 -1 -1 -6q0 -4 1 -4q2 0 7.5 -5t6.5 -6q2 0 6 -3.5t4 -5.5zM652 -49h2q4 2 12.5 5t8.5 5
q1 0 2 4.5t2 6.5q1 5 2 12.5t1 8.5t-1 4.5t-2 5.5t-4.5 11t-5.5 13q0 1 -2 5q-1 2 -1 3h-8q-2 0 -4 -2l-2 -2v-80zM654 -141q1 0 5 2t7 3q4 2 10 9.5t6 8.5q1 2 3 7t2 6q0 3 -2 9l-3 9l-2 4q-1 2 -1 5l-4 4q-2 2 -3 4h-3q-2 0 -2.5 0.5t-2.5 0.5q-3 0 -5.5 -0.5t-4.5 -0.5
l-1 -1q-1 -1 -1 -2v-66zM698 697q1 -1 2 -1h24q1 0 2 1.5t2 1.5l1 5q1 1 1 9t-1 9q-1 -1 -7 -3t-8 -2q-1 0 -5.5 -1.5t-5.5 -2.5l-3 -5q-1 -1 -1 -2t-1 -3l-2 -4zM714 560q0 -4 1 -16.5t2 -20.5q0 3 0.5 8t0.5 10q0 8 -0.5 14t-0.5 9q0 2 -1 12t-2 15q0 1 -1.5 6.5t-1.5 7.5
q-2 3 -4.5 11t-3.5 10q0 1 -3 6.5t-4 7.5l-3 1v-1q0 -2 3 -9t4 -8l11 -42q0 -3 1.5 -11.5t1.5 -9.5zM507 1040q-2 0 -4.5 3t-2.5 4l-14 11h7q2 -2 4 -3q3 -3 4 -5q5 -2 14 -8t11 -7l2 -2l3 -3h-5q-3 2 -10 5.5zM627 864q-1 3 -6.5 13.5t-7.5 12.5q1 1 2 1t1 -1q1 -1 7 -5.5
t8 -6.5q0 -1 1 -3l2 -4v-7l-3 -3q-1 0 -1.5 1.5t-2.5 1.5zM654 602q1 0 2 -1.5t2 -1.5h8v13q-1 0 -2 1q-1 0 -1 0.5t-1 0.5t-1 1h-1q-1 0 -2 1q-1 0 -1.5 -0.5t-1.5 -0.5h-1l-2 -3q0 -2 1 -5.5t1 -4.5zM717 986q3 0 3 -4q0 -1 -1 -2q1 1 2 1q2 0 2 -4q0 -3 -2 -3q-3 0 -3 3
v2h-1q-2 0 -2 2h-1q-2 0 -2 3v2h-1q-3 0 -3 2h-1q-3 0 -3 3v2h-1q-2 0 -2 2h-1q-3 0 -3 3t3 3l1 -2q1 1 2 1q3 0 3 -4q0 -1 -1 -2q1 1 2 1q2 0 2 -3q1 1 2 1q2 0 2 -4v-1h1l1 -1q0 -1 1 -2q0 1 1 1zM696 806h4v9q0 2 -1.5 8t-2.5 7l-3 6q0 4 -3 4h-3q4 -8 5.5 -15.5
t3.5 -15.5v-3zM336 1019q1 0 7 3t7 4q3 2 12.5 6t12.5 5q2 2 5.5 2.5t4.5 0.5h3q0 -1 -2 -1t-4 -2q-3 -1 -10 -4t-14.5 -6.5t-14.5 -6.5t-10 -4q0 1 1 2q1 0 2 1zM420 1050l4 2l4 2q3 1 5 2h12q-3 -2 -14 -5.5t-14 -3.5h-7q2 0 5.5 1.5t4.5 1.5zM281 781q4 0 4 -4h1
q1 0 1 -3t-1 -3q-4 0 -4 2h-1q-3 0 -3 4h-1q-3 0 -3 4t3 4t3 -4h1zM711 468q1 -3 1 -13v-7.5t-1 -5.5h-1q-1 0 -1 3.5v8.5v9.5t2 4.5zM687 1014q2 0 2 -5h1q2 0 2 -4t-2 -4t-2 4h-1q-4 0 -4 4q0 5 4 5zM687 654q-4 0 -4 -4q0 -3 4 -3h1v-2q0 -4 2 -4t2 4q0 5 -2 5h-1
q0 4 -2 4zM675 736q1 2 4 4t3 3q1 2 3 4t2 3q-2 0 -4.5 -1t-3.5 -3l-2 -2q-1 -1 -2 -1v-7zM209 713h4q1 1 2.5 1.5t1.5 2.5v1q-1 1 -4 1q-4 0 -4 -1q-2 0 -2.5 -0.5t-2.5 -0.5zM714 407q0 -1 0.5 -3.5t0.5 -6.5q0 -3 -0.5 -6t-0.5 -5q-2 0 -2 3.5v7.5q0 10 1 10h1zM260 668
q-2 0 -2 -5q0 -4 2 -4q4 0 4 4q0 5 -4 5zM307 1000q-2 -4 -7.5 -9t-6.5 -5h-1q0 1 2.5 3.5l5 5t5 4zM281 843q-3 0 -3 -4q0 -3 3 -3q4 0 4 3q0 4 -4 4zM260 822q2 1 6 4t6 4q1 0 1 2v4zM322 626q4 0 4 -4q0 -3 -4 -3q-2 0 -2 3q0 4 2 4zM645 -129q-4 0 -4 -4q0 -3 4 -3
q2 0 2 3q0 4 -2 4zM661 1026q4 0 4 -4q0 -3 -4 -3q-2 0 -2 3q0 4 2 4zM213 736q-3 0 -3 -4q0 -3 3 -3t3 3q0 4 -3 4zM204 732q-2 0 -2 -4q0 -3 2 -3q4 0 4 3q0 4 -4 4zM253 822q-2 0 -2 -4q0 -3 2 -3q4 0 4 3q0 4 -4 4zM535 578q2 0 2 -4t-2 -4q-3 0 -3 4t3 4zM654 1030
q3 0 3 -4t-3 -4q-2 0 -2 4t2 4zM322 1001q4 0 4 -3t-4 -3q-2 0 -2 3t2 3zM696 801q-2 0 -2 -4q0 -3 2 -3q3 0 3 3q0 4 -3 4zM328 605q1 0 1 -3t-1 -3q-5 0 -5 3t5 3zM420 612q3 0 3 -4q0 -3 -3 -3q-2 0 -2 3q0 4 2 4zM319 1009q5 5 9 5q0 -1 -6 -5q-1 0 -4.5 -3.5t-5.5 -4.5
q2 1 4 4.5t3 3.5zM293 770q0 -1 0.5 -1.5t0.5 -1.5t-0.5 -1t-0.5 -1v-1q-4 0 -4 3q0 4 4 4v-1zM382 594q2 0 2 -4q0 -3 -2 -3q-3 0 -3 3q0 4 3 4zM340 626q2 0 2 -4q0 -3 -2 -3q-3 0 -3 3q0 4 3 4zM354 626q2 0 2 -4q0 -3 -2 -3q-3 0 -3 3q0 4 3 4zM493 594q2 0 2 -4
q0 -3 -2 -3q-3 0 -3 3q0 4 3 4zM424 581q1 0 1 -4t-1 -4q-3 0 -3 4t3 4zM426 566q3 0 3 -3t-3 -3q-2 0 -2 3t2 3zM675 659q-2 0 -2 -3q0 -2 2 -2q3 0 3 2q0 3 -3 3zM217 885q-3 0 -3 -4q0 -3 3 -3v1q0 1 0.5 1t0.5 1t-0.5 1.5t-0.5 1.5v1zM728 971q0 -1 0.5 -1.5t0.5 -1.5
t-0.5 -1t-0.5 -1v-1q-3 0 -3 3q0 4 3 4v-1zM679 1005q2 0 2 -3q0 -2 -2 -2q-3 0 -3 2q0 3 3 3zM218 890q-1 0 -1 -3q0 -2 1 -2q4 0 4 2q0 3 -4 3zM462 1058q-2 -1 -6 -1q-5 0 -5 1t5 1q6 0 6 -1zM669 1022q2 0 2 -3t-2 -3t-2 3t2 3zM521 583q0 -1 1 -2q0 -1 -1 -2v-1
q-3 0 -3 3t3 3v-1zM403 1043q-1 -1 -3 -1q-3 0 -4 1q0 2 4 2q3 0 3 -1v-1zM272 793q0 -2 -3 -2q-1 0 -1 0.5t-1 0.5q0 3 3 3q1 0 2 -1v-1zM679 827q0 1 -2 1t-2 -1q0 -3 2 -3t2 3zM687 696q-3 0 -3 -2t3 -2q1 0 1 2t-1 2zM430 611q0 -3 -4 -3q0 4 3 4h1v-1zM610 896
q0 -1 -1 -2v-1q-2 0 -3 3l2 1q1 0 2 -1zM479 1061q0 -2 -2 -2t-2 2q0 1 2 1t2 -1zM603 1047q0 -1 -1 -2q-2 0 -3 2q0 1 2 1t2 -1zM264 809q-1 0 -1 -1q0 -2 2 -2l1 1q0 1 -1 2h-1zM681 655q-1 0 -2 -1v-2h1q2 0 2 2zM258 812q-2 0 -2 -2v-1h2q0 1 1 2q0 1 -1 1zM724 974
q1 0 2 -1q0 -1 -2 -1t-2 2h2zM260 798l-2 1l-1 -1h1q0 -2 1 -2zM273 792v-7l-1 3zM689 650q-1 -1 -1 -3q0 1 0.5 1.5t0.5 1.5z" />
    <glyph glyph-name="plus" unicode="+" horiz-adv-x="1166" 
d="M614 824v-376h369v-60h-369v-378h-61v378h-369v60h369v376h61z" />
    <glyph glyph-name="comma" unicode="," 
d="M4 -127q-19 0 -19 25q0 17 56 117l1 2l7 12q36 68 57 68q12 0 23 -11.5t11 -21.5q0 -8 -36 -64q-35 -49 -55 -83l-4 -5q-23 -39 -41 -39z" />
    <glyph glyph-name="hyphen" unicode="-" horiz-adv-x="480" 
d="M72 221q25 9 74 13t119 4q57 0 77 -11t20 -38q0 -8 -3 -10.5t-11 -4.5q-33 -4 -68 -7t-66.5 -5.5t-57 -3.5t-41.5 -1q-36 0 -41 7q-4 5 -0.5 21t-1.5 36z" />
    <glyph glyph-name="period" unicode="." 
d="M91 -21q-62 0 -62 50q0 18 8 34t21 28t30 19.5t34 7.5q20 0 33 -12.5t13 -29.5q0 -29 -28 -65q-27 -32 -49 -32z" />
    <glyph glyph-name="slash" unicode="/" horiz-adv-x="414" 
d="M483 830q-79 -151 -155 -307.5t-149 -322.5q-144 -330 -164 -330q-17 0 -31.5 13t-14.5 33q0 25 79 207q40 91 95 208t126 264l4 8q138 287 189 287q32 0 32 -36q0 -8 -1.5 -13.5t-9.5 -10.5z" />
    <glyph glyph-name="zero" unicode="0" horiz-adv-x="693" 
d="M227 35q48 0 95.5 27t88.5 76q84 103 138 248v-1q56 143 56 258q0 78 -23 110.5t-78 32.5q-36 0 -79 -20.5t-81 -55.5q-54 -53 -98.5 -114.5t-79.5 -135.5q-35 -73 -51.5 -140t-16.5 -128q0 -157 129 -157zM234 -19q-91 0 -153 68h1q-62 71 -62 172q0 54 22 129.5
t59 157.5q18 37 39 74t43.5 70.5t45 63t43.5 50.5q48 48 87 68.5t82 20.5q19 0 41.5 -5t45.5 -14t46 -21t43 -26q26 -22 42 -68t16 -108q0 -47 -9 -98.5t-25.5 -104t-40 -104.5t-52.5 -99q-67 -111 -148 -168.5t-166 -57.5z" />
    <glyph glyph-name="one" unicode="1" horiz-adv-x="370" 
d="M55 99q18 91 73.5 266t141.5 415q-5 0 -16 -0.5t-15 -0.5q-8 -1 -16.5 -1.5t-18.5 -0.5q-28 0 -39 5t-11 16q0 32 44 46t148 14q22 0 36.5 -8.5t14.5 -20.5q0 -6 -31 -80q-68 -158 -127.5 -324t-105.5 -326h20q28 0 46.5 -9t18.5 -23q0 -22 -41 -28h1q-2 0 -4.5 -0.5
t-4.5 -0.5h-5.5t-5.5 -1l-122 -21q-20 -3 -33.5 -5.5t-22.5 -4.5q-6 -2 -8.5 -2h-3.5q-17 0 -31.5 14.5t-14.5 33.5q0 11 25.5 20t73.5 16q2 0 3.5 0.5t3.5 0.5q11 0 19 2z" />
    <glyph glyph-name="two" unicode="2" horiz-adv-x="693" 
d="M232 102l39 3q35 2 59.5 3t41.5 1q41 0 67 -2t40.5 -7t20 -14t5.5 -23q0 -12 -8 -20t-21 -12q-11 0 -20.5 0.5t-18.5 1.5q-14 1 -26.5 1h-24.5q-65 0 -136.5 -7t-150.5 -21h1l-22 -3q-11 -2 -18 -3t-11 -1q-16 0 -24 17.5t-8 47.5q0 8 9 13.5t24 9.5q30 4 65 17
q72 32 164 127t198 247q25 37 45.5 72.5t35 67t22 58.5t7.5 46q0 25 -14 38.5t-40 13.5q-30 0 -72.5 -20t-86.5 -57q-61 -53 -116 -110.5t-95 -113.5q-4 -6 -8.5 -12t-8.5 -12v1q-20 -28 -27 -28q-14 0 -26.5 13t-12.5 27q0 7 9 24.5t25.5 42t38.5 54.5t48 63q42 52 83 93.5
t77.5 70.5t68.5 45t57 16q27 0 60 -19.5t61.5 -47t48 -57.5t19.5 -51q0 -95 -125 -260q-64 -84 -144.5 -165t-174.5 -169z" />
    <glyph glyph-name="three" unicode="3" horiz-adv-x="693" 
d="M410 416q61 -32 95.5 -68.5t36.5 -88.5q0 -4 0.5 -7t0.5 -6q0 -4 0.5 -7t0.5 -5q0 -18 -9.5 -38.5t-26 -42t-39.5 -42.5t-50 -39q-66 -42 -131 -65.5t-119 -23.5q-35 0 -65 9.5t-55 26.5q-47 38 -47 80q0 23 13 43t27 20t26 -35l12 -32q11 -23 31 -36t44 -13q11 0 31.5 6
t46 17t54.5 26t58 34h-1q122 78 122 140q0 95 -158 95q-23 0 -47.5 -0.5t-47.5 -2.5h-7q-10 0 -10 16q0 51 82 64q7 2 10.5 2.5t4.5 0.5q44 7 107 38q32 17 60.5 34t52.5 35q53 40 82.5 80.5t29.5 72.5q0 59 -82 59q-32 0 -73 -11t-86.5 -30.5t-92.5 -47t-91 -61.5l-31 -25
q-11 -9 -21 -16.5t-7 -7.5q-9 0 -18 8.5t-9 16.5q0 14 31 48t84 73q43 34 86 61t82.5 46t73 29.5t57.5 10.5q40 0 71.5 -19.5t53 -47.5t33 -57.5t11.5 -50.5q0 -32 -19 -67t-56 -70t-90 -68t-122 -61z" />
    <glyph glyph-name="four" unicode="4" horiz-adv-x="693" 
d="M367 193q-51 -2 -108.5 -6t-106.5 -9q-50 -5 -73.5 -7.5t-25.5 -2.5q-17 0 -29.5 16t-12.5 40q0 28 75 121q39 49 124.5 145t222.5 242q57 62 99.5 97.5t59.5 35.5q18 0 34 -3t28.5 -7.5t20 -10.5t7.5 -12q0 -2 -13 -31q-52 -120 -101.5 -258t-95.5 -284q2 0 10 -0.5
t13 -0.5q4 -1 9 -1h7q53 0 73.5 -10.5t20.5 -37.5q0 -6 -2 -16l2 2l7 3h-10q-5 0 -9.5 0.5t-7.5 0.5q-7 1 -15 1h-13q-10 0 -25.5 -0.5t-36.5 -1.5l-46 -2q-14 -34 -25 -70t-22 -73q-11 -34 -20.5 -52.5t-17.5 -18.5q-17 0 -26.5 11t-9.5 28q0 12 8.5 50.5t23.5 101.5z
M391 266q19 51 43.5 118.5t53.5 152.5q29 86 50.5 145.5t34.5 92.5l-15 11q-67 -73 -132 -146.5t-125.5 -143t-115.5 -134.5t-102 -122q38 4 78 7t79 5.5t75 4t67 2.5z" />
    <glyph glyph-name="five" unicode="5" horiz-adv-x="693" 
d="M214 450q52 33 105.5 48.5t107.5 15.5q75 0 126 -51q26 -26 39 -53.5t13 -59.5q0 -51 -38 -112t-108 -123q-71 -63 -144 -98t-130 -35q-36 0 -67 10t-53.5 28t-35.5 42.5t-13 53.5q0 15 4 30t10.5 27t14 19.5t15.5 7.5q6 0 8 -20q2 -17 3.5 -26.5t2.5 -13.5q9 -20 23 -37
t30 -29.5t33.5 -20t34.5 -7.5q33 0 79 22.5t90 60.5q35 30 64.5 66t55.5 74q50 79 50 120q0 65 -86 65q-21 0 -47 -4t-54.5 -12t-58 -19.5t-57.5 -25.5l-41 -22q-11 -7 -22.5 -13t-12.5 -6q-11 0 -35 23q-22 25 -22 35q0 5 11.5 36t29.5 79l27 69l39 99q46 120 54 130
t36.5 18.5t72.5 14.5t102 9.5t126 3.5q28 0 44 -2t24 -6.5t10.5 -13t2.5 -21.5q0 -29 -126 -36q-65 -5 -121 -10.5t-107 -13.5q-28 -53 -58.5 -128.5t-64.5 -176.5z" />
    <glyph glyph-name="six" unicode="6" horiz-adv-x="693" 
d="M201 386q-30 -59 -45.5 -119t-15.5 -117q0 -51 22.5 -79t64.5 -28q29 0 63.5 18t70.5 50v-1q78 69 120.5 138.5t42.5 123.5q0 48 -30.5 74t-87.5 26q-100 0 -202 -83zM239 484q54 23 98 38t82 15q62 0 149 -89q30 -35 30 -85q0 -70 -38.5 -142t-107.5 -129
q-108 -93 -229 -93q-38 0 -69.5 13t-54 37.5t-34.5 59t-12 76.5q0 48 13.5 103t39.5 120q25 64 62 127.5t81 122.5q40 52 78 95.5t70.5 75t58 48.5t40.5 17q18 0 34 -9.5t16 -17.5q0 -6 -20 -18l1 1l-9 -4q-23 -14 -57 -49.5t-71 -82.5q-38 -49 -77 -108.5t-74 -121.5z" />
    <glyph glyph-name="seven" unicode="7" horiz-adv-x="577" 
d="M534 790q-68 -5 -135 -12.5t-131 -18.5q-128 -21 -129 -21q-16 0 -16 14q0 44 25 57h-1q23 11 65.5 21t105.5 20h-1q65 9 131 14t136 5q25 0 34 -3t17 -12q31 -31 31 -48q0 -10 -24 -34q-165 -218 -306 -417.5t-255 -375.5q-9 -4 -22 -4q-16 0 -27 10.5t-11 24.5
q0 6 10.5 25.5t29.5 51t45.5 73t59.5 90.5q75 111 168.5 241t208.5 283z" />
    <glyph glyph-name="eight" unicode="8" horiz-adv-x="693" 
d="M372 487q55 32 99.5 65t75.5 63.5t48 57.5t17 48q0 30 -25 53t-62 23t-79 -21.5t-86 -64.5q-35 -34 -55.5 -67.5t-20.5 -59.5q0 -52 88 -97zM374 410q-69 -38 -120.5 -76.5t-89.5 -78.5q-77 -80 -77 -129q0 -34 26.5 -53.5t69.5 -19.5q46 0 96.5 19t101.5 57
q137 102 137 171q0 37 -32.5 62t-111.5 48zM279 449q-46 28 -63.5 54t-17.5 64q0 45 23 91.5t65 91.5q49 53 111 82t125 29q57 0 90.5 -22.5t50.5 -69.5q20 -46 20 -70q0 -45 -50 -98q-26 -28 -74.5 -65.5t-120.5 -85.5q73 -23 115.5 -68t42.5 -99q0 -82 -113 -171
q-80 -63 -153 -95t-137 -32q-72 0 -127 56q-27 28 -41 57.5t-14 62.5q0 52 72 126q36 38 85 75.5t111 86.5z" />
    <glyph glyph-name="nine" unicode="9" horiz-adv-x="693" 
d="M474 398q55 89 81 156.5t26 121.5q0 28 -11 50.5t-28 38.5t-36.5 24.5t-36.5 8.5q-37 0 -75 -30t-92 -88q-28 -30 -50.5 -64.5t-39 -68t-25.5 -64.5t-9 -55q0 -75 112 -75q38 0 82.5 9.5t97.5 31.5zM399 313q-42 -17 -70.5 -25t-51.5 -8q-72 0 -125 44h1q-27 23 -40 49.5
t-13 59.5q0 29 10.5 67t30.5 83q21 45 49.5 90.5t61.5 86.5q42 46 87.5 77.5t79.5 31.5q39 0 81.5 -18.5t78.5 -49t59 -69.5t23 -80q0 -38 -11.5 -80.5t-31.5 -84.5q-60 -125 -143.5 -243t-179.5 -212q-25 -25 -43.5 -35.5t-45.5 -10.5q-20 0 -28 2t-8 6q0 -1 82 90
q43 47 82 100.5t77 114.5z" />
    <glyph glyph-name="colon" unicode=":" 
d="M160 342q-15 0 -22.5 7.5t-7.5 27.5q0 16 7.5 30.5t20 25t29.5 16.5t36 6q11 0 19 -9.5t8 -22.5q0 -25 -32 -53q-29 -28 -58 -28zM112 -11q-53 0 -53 40q0 16 7 30t18.5 25t26.5 17.5t32 6.5q15 0 25 -9t10 -23t-6.5 -28t-18.5 -30q-12 -13 -22.5 -21t-18.5 -8z" />
    <glyph glyph-name="semicolon" unicode=";" 
d="M171 367q-32 0 -32 28q0 13 6.5 25.5t16.5 23t22.5 17t24.5 6.5q17 0 28 -10.5t11 -30.5q0 -24 -23.5 -41.5t-53.5 -17.5zM165 105q2 -5 -5.5 -13.5t-18.5 -19.5q-19 -17 -44.5 -47t-42.5 -79l1 3q-12 -15 -20 -15q-7 0 -12 3t-5 7q0 8 13 34t42 73q3 6 8 13.5t8 13.5
q12 21 24 33t23 12q12 0 20 -4t8 -10z" />
    <glyph glyph-name="less" unicode="&#x3c;" horiz-adv-x="1166" 
d="M976 703l-700 -286l700 -284v-66l-785 321v57q199 81 392.5 161.5t392.5 161.5v-65z" />
    <glyph glyph-name="equal" unicode="=" horiz-adv-x="1166" 
d="M983 316v-60h-799v60h799zM983 578v-60h-799v60h799z" />
    <glyph glyph-name="greater" unicode="&#x3e;" horiz-adv-x="1166" 
d="M976 445v-57q-200 -82 -392.5 -160.5t-392.5 -160.5v66l699 284l-699 286v65z" />
    <glyph glyph-name="question" unicode="?" horiz-adv-x="665" 
d="M168 -8q-20 0 -31.5 9.5t-11.5 26.5q0 31 32 63q33 33 64 33q17 0 31 -13t14 -30q0 -28 -32 -59q-33 -30 -66 -30zM438 903q26 0 59.5 -23.5t63 -56t50 -65.5t20.5 -52q0 -86 -192 -309q-51 -62 -92 -110.5t-70 -86.5q-6 -3 -12 -4t-17 -1q-17 0 -23 3t-6 11t22 42t62 89
l72 98l25 35q136 187 136 265q0 34 -18 52.5t-49 18.5q-59 0 -136 -53q-37 -26 -70 -57.5t-63 -74.5q-18 14 -25.5 25t-7.5 22q0 17 16 40t51 56q69 66 121.5 101t82.5 35z" />
    <glyph glyph-name="at" unicode="@" horiz-adv-x="1064" 
d="M0 14q0 1 0.5 6.5t1.5 11.5t1.5 11.5t0.5 8.5q2 6 4 18.5t2 14.5q1 3 3.5 12t5 19.5t5 20t4.5 14.5q0 2 1.5 8t2.5 8q2 3 6 11.5t5 11.5q2 2 6 8t6 8q2 3 6.5 8t10 10.5t10 9.5t6.5 5q5 2 9 5l7 3.5t5 3.5q5 1 15 5t13 4h6q-2 0 -8.5 -4t-8.5 -5q-1 -2 -5.5 -4t-5.5 -2
q-5 -3 -16 -9t-11 -8q-2 -2 -11 -10t-11 -12q-2 -2 -6 -8t-5 -8q-13 -23 -20.5 -49t-12.5 -50q-1 -5 -3.5 -16.5t-5.5 -25t-5.5 -25t-3.5 -16.5h-4v6zM1022 18q-2 3 -8.5 12t-8.5 12q-1 2 -7.5 13.5t-7.5 13.5l-6 9t-8.5 13t-8.5 13t-5 8q-2 2 -6 8.5t-5 8.5q-2 1 -3.5 5.5
t-1.5 5.5t2.5 1t2.5 -1q1 0 5 -4.5t6 -6.5t8.5 -11.5t6.5 -11.5q1 -1 5.5 -7.5t10 -15t10.5 -17.5t8 -14q2 -4 5.5 -10l7 -12t6.5 -11l3 -5v-6q-1 2 -5 6t-6 4zM671 34q-2 1 -6 6.5t-6 7.5q-1 0 -5 1t-6 3t-6 8.5t-5 8.5v33q0 2 2 10t4 11q0 1 2 6t4 10.5t3.5 10.5t1.5 7v22
q0 2 -2 10.5t-4 10.5q-1 -2 -5 -10.5t-6 -10.5q0 -1 -2 -3t-4 -2l-4.5 -4.5t-8 -7.5t-8.5 -7t-5 -4q-2 -1 -6 -5.5t-5 -5.5q-2 -2 -9 -6.5t-8 -4.5q-2 0 -11 -2t-10 -4q-3 0 -9.5 -4.5t-8.5 -6.5q0 3 -4.5 12t-5.5 12v4q1 3 2.5 9t1.5 8q1 0 3.5 2t2.5 3q1 0 5 2.5t6 2.5
q5 3 15.5 7t12.5 5h5q-1 -2 -2.5 -6t-2.5 -6q-2 0 -2 -2.5t2 -2.5q1 -1 5.5 -1t5.5 1l6 6t5 6l-5 5l11 16h-28q-2 0 -3 6.5t-3 9.5v6q0 1 -2.5 5t-5.5 9t-5 9t-2 5q-2 1 -6.5 10.5t-6.5 10.5q0 1 -3 6t-7 10.5t-7 10.5t-4 7q-1 4 -1 19t1 20h-5q-2 -2 -11 -6t-12 -5
q-2 -1 -8 -5.5t-13.5 -9t-14 -8.5t-7.5 -5q-2 -2 -14 -8t-14 -8t-3 -9t-3 -9l-2 -2q-2 -2 -2 -4l-3.5 7t-3.5 5h-6q-3 -2 -11 -6t-10 -6q-1 0 -3 -4t-2 -5l-6 -6q-2 -1 -3.5 -1.5t-3.5 -1.5t-4 -3q-2 0 -8.5 8t-8.5 8q0 1 -2 1t-3 -1q0 -2 -2.5 -13.5t-3.5 -13.5q0 -1 -4 -3
q-2 -1 -3 -2v16l-14 -5v17l-13 -17l-4 11q-3 0 -8.5 0.5t-11.5 1.5t-11.5 2t-7.5 2q-1 0 -6.5 1.5t-12.5 3t-12.5 3t-6.5 1.5q-2 1 -9.5 1h-15.5t-15.5 -0.5t-8.5 -0.5q-2 2 -9 6t-9 6q0 1 -2 5.5t-2 6.5q-2 2 -2 8t2 8q0 1 1.5 5.5t3.5 10t3.5 10.5t1.5 7q1 2 1 8t-1 8
l12 -10l6 4q-2 2 -6.5 8.5t-6.5 8.5q-1 1 -1.5 3t-1.5 4l-2 4v6v10v10v6q0 2 -2.5 9t-3.5 9v6q26 14 45 38q-2 -2 -10.5 -2t-10.5 2q-2 1 -6.5 5t-6.5 6h18v6q-1 1 -2.5 4.5t-3.5 8t-3.5 8.5t-1.5 5q-1 2 1.5 8.5t4.5 8.5l5 -6q0 2 1.5 6t3.5 6q1 1 5 2.5t6 2.5q1 2 3 3t2 3
q0 1 1 2q0 1 2 3q1 2 3 5q1 2 5.5 6.5l5.5 5.5v6q0 1 2 10t4 11q1 5 3 13.5t4 16.5q2 9 4 19v10v17.5v18v10.5q1 2 2 6q1 2 2 5.5t2 5.5q0 1 1.5 4.5t3 8t3 8.5t1.5 5q2 2 4 11.5t2 11.5l4.5 9t8 15.5l9 17t6.5 12.5q1 4 4.5 10t7.5 12.5t6.5 11t2.5 5.5q1 1 6.5 6
t11.5 11.5t12 12t9 8.5q2 2 8.5 5.5t8.5 5.5q16 10 38 17q5 2 15.5 4t12.5 2h82q0 -2 2.5 -3t3.5 -3q2 -1 8.5 -6t8.5 -5q3 -2 11 -6.5t10 -4.5h22q2 0 6 -2t5 -4q4 -2 12.5 -10.5l10.5 -10.5q1 -2 4 -6.5t6.5 -9.5t6.5 -10t4 -7q2 -4 8.5 -16.5t8.5 -17.5q0 -1 2.5 -8
t2.5 -9q1 -2 3 -4q1 -2 2 -3.5t1 -2.5q1 -3 3.5 -10t5 -15t5 -15t3.5 -10q0 -1 2 -9.5t3 -11.5q2 -5 3 -16t1 -12q1 -6 1 -22.5v-35v-35t-1 -22.5q2 -3 4 -11.5t2 -10.5q0 -3 2 -12t4 -19t4 -18.5t3 -10.5q0 -2 8 -15t13 -19q1 -1 8 -10t8 -11q2 -3 2 -14t-2 -14q2 0 4 2
l2 2v11q1 0 3.5 -2t2.5 -3v-16q-1 -3 -4 -9t-7 -13t-7.5 -13t-4.5 -9q-3 -5 -13 -17t-13 -16q-2 -1 -2 -5t2 -6q0 -1 4.5 -2.5t6.5 -2.5q0 -2 2 -3.5t2 -2.5q3 -1 11.5 -5.5t10.5 -4.5q0 -2 -2 -3.5t-3 -1.5q-3 -4 -14 -10.5t-13 -8.5v-5l27 -4q0 2 2 8t3 7q2 2 4 6.5t2 6.5
q1 0 5.5 4t5.5 5v17q2 -3 10.5 -11t10.5 -10t11.5 -3.5t11.5 -1.5q2 -2 11 -7t11 -6q1 0 10.5 -2t11.5 -4q4 0 10 -2t6 -3q1 0 10 -8.5t12 -12.5q2 -3 7 -8.5t10.5 -11.5t10 -11.5t6.5 -7.5q3 -4 7 -10t8.5 -12t7.5 -11l3 -5v-11q0 1 -2.5 2.5t-2.5 2.5q-2 1 -8.5 11
t-8.5 12q-2 3 -6 7.5t-8.5 10t-8 9.5t-4.5 5q-4 4 -11 11.5t-14 14.5l-12.5 12.5t-5.5 6.5q-1 0 -7.5 2t-14.5 4.5l-16 5t-12 3.5l-14 3.5t-14 2.5l-3 -3q-1 -1 -1 -2t-1 -1q-2 -1 -6.5 -7.5t-4.5 -7.5q-1 -1 -1.5 -2t-1.5 -2l-2 -2q-2 0 -7.5 -1t-12 -2t-12 -2t-6.5 -1
q-2 -1 -4 -3l-2 -2h10l-4 -6q0 -1 4 -3t6 -2q1 0 8 -2.5t8 -3.5q1 0 4.5 -3.5t7 -7.5t7 -7.5t4.5 -3.5h5h5q2 -2 3.5 -8t1.5 -8q2 -6 2 -18.5t-2 -14.5q0 -2 -6.5 -8t-8.5 -9q-2 0 -5.5 -3t-5.5 -3h-6v17h6q0 1 2 2.5t3 3.5v5q-1 2 -5 3t-6 3h-11l-17 -34h-22v-5q1 0 3 -2.5
t4 -3.5h11q0 1 7 3.5t8 2.5h6q-2 0 -2 -2.5t2 -3.5l2 -2q1 -1 1.5 -2t1.5 -2h12v-4q0 -1 4.5 -3t6.5 -2q0 -2 2 -4t3 -2q0 -1 5 -3q2 -1 5 -3q2 -1 4 -4t2 -4h-21v-14q1 0 5 -0.5t8.5 -0.5t8 0.5t4.5 0.5q5 2 13 10.5t10 11.5q1 -2 1 -8t-1 -8q-2 -4 -6 -10.5t-5 -6.5h-44
l11 -10h-39q-1 0 -10 -3t-11 -3q-6 -2 -16 -3.5t-12 -1.5q-3 0 -14 0.5t-14 2.5h23zM774 42q3 -1 3 -3.5t-3 -2.5q-2 -1 -2 2.5t2 3.5zM379 69q4 0 4 -6t-4 -6t-4 6t4 6zM374 69q-2 -2 -4 -2t-2 2q-1 2 2.5 2t3.5 -2zM351 80q2 0 6 -2t6 -4h-12q-3 0 -13.5 2t-12.5 4h26z
M692 85q0 -2 10.5 -5.5t17.5 -5.5h22q1 0 3.5 2t2.5 4q-4 0 -14.5 2t-13.5 3q-2 1 -3 2q-3 3 -3 4q-1 2 -2 5l-2 6q-2 2 -9 2t-9 -2v-17zM494 85q-1 2 -2 3l-3 3l11 6q-2 0 -4 4t-2 5v34q0 1 2 3.5t4 2.5v-10q0 -5 2 -11t3 -7l4.5 -4.5l7 -7t7 -6.5t4.5 -3v-6q-2 -1 -3 -3.5
t-3 -2.5q-2 -2 -6 -3q-3 -1 -5 -2q-2 0 -8.5 1.5t-8.5 3.5zM314 91q0 -1 2 -3.5t3 -2.5h-11q-1 0 -3.5 2.5l-3.5 3.5h13zM566 102h5q2 0 8 4l9 6q3 3 14 12t14 12v-7q-1 -2 -5.5 -8.5t-5.5 -8.5q-2 -1 -6 -4.5t-5 -5.5l-11 -5.5t-12 -5.5q-6 -3 -13 -5.5t-15 -0.5q2 2 8.5 9
t9.5 8h5zM483 102q5 0 5 -5.5t-5 -5.5t-5 5.5t5 5.5zM252 118q0 2 2 8.5t4 9.5l5 10v-17q-1 -4 -1.5 -8t-1.5 -9l-2 -10h-6v16zM319 106q0 2 4.5 2t5.5 -2q1 0 3.5 -1t2.5 -3h-16v4zM473 106q-1 5 -1 15t1 15q0 -3 2 -12t2 -12q2 0 2 -4t-2 -6l-2 2zM295 112q5 15 9 29.5
t15 25.5v-10q-1 -2 -3 -9t-2 -8q-2 -2 -4 -14t-2 -14q-1 -1 -6 -3.5t-7 -2.5v6zM659 123q2 -1 3 -2l3 -3h6q1 1 2.5 5t2.5 6v11h-5q-4 2 -6 6q-1 0 -2.5 -2.5t-3.5 -3.5v-17zM731 136q4 0 4 -6.5t-4 -6.5q-5 0 -5 6.5t5 6.5zM704 140q-4 0 -4 -5.5t4 -5.5q5 0 5 5.5t-5 5.5z
M626 151q1 2 3 3t2 3l-5 -11v5zM676 157q-4 0 -4 -5.5t4 -5.5q3 0 3 5.5t-3 5.5zM686 179q2 -2 6.5 -11t6.5 -11v10q-2 2 -4 6l-3 6q-2 1 -3 2q-3 3 -3 4v-6zM710 162q-3 0 -3 -3.5t3 -1.5q2 0 2 2t-2 3zM710 179q-5 0 -5 -6t5 -6q3 0 3 6t-3 6zM325 190q3 0 3 -5.5t-3 -5.5
q-5 0 -5 5.5t5 5.5zM680 206q5 -2 13.5 -6t10.5 -5h6q-1 0 -4 3l-2 2q-2 2 -9 6t-9 5q-1 2 -4.5 4t-5.5 2h-11q1 -1 7.5 -5t7.5 -6zM764 211q2 -1 2 -5t-2 -6q-3 -1 -3 6t3 5zM582 211q2 -1 3 -2l3 -3h11q0 1 2 3t4 2v6q-2 1 -4 5.5t-2 5.5l-5 6v5q-2 2 -6 9t-6 7q-1 2 -8 6
t-8 5q-2 1 -3.5 6t-1.5 7q-1 0 -3 2t-2 3q-3 -8 -0.5 -14.5t5.5 -14.5q1 -3 2 -5q2 -5 3 -5q1 -2 5 -8.5t6 -8.5l3 -3l2 -2q0 -2 -0.5 -6t0.5 -6zM748 223q4 0 4 -6t-4 -6q-5 0 -5 6t5 6zM748 239q4 0 4 -5.5t-4 -5.5q-5 0 -5 5.5t5 5.5zM620 260h6v6h-6v-6zM153 279h12
q2 0 4 8t2 13q0 1 -2 2.5t-4 2.5h-7q-1 -1 -3 -2.5t-2 -2.5v-21zM241 305q-2 2 -2 -2.5t2 -2.5q3 1 3 2.5t-3 2.5zM176 316q-4 0 -4 -5.5t4 -5.5t4 5.5t-4 5.5zM626 328q-2 -2 -8 -6t-8 -6h6q3 2 11.5 4t9.5 2q2 0 8.5 4.5t8.5 6.5t6 5.5t5 4.5t2.5 14t3.5 20v11
q-2 1 -3.5 7t-2.5 8t-2.5 6t-3.5 5v-15q2 -1 3.5 -8t2.5 -9v-5q-1 -2 -2.5 -6t-3.5 -6h-5q-5 2 -11 6t-6 6v54h-6q2 -3 2 -16t-2 -16q0 -1 -1.5 -5.5t-3.5 -5.5q0 -2 -4.5 -6t-5.5 -5q-2 -2 -11 -8.5t-11 -8.5t-9 -8.5t-8 -8.5h17v-10h37q0 -1 -2 -3t-3 -2zM605 328
q-5 0 -5 -6t5 -6q4 0 4 6t-4 6zM395 339q3 -2 11.5 -6.5t10.5 -4.5q3 -1 8.5 -1.5t11.5 -0.5t11.5 0.5t7.5 1.5q2 0 10 4.5t11 6.5q2 0 6.5 3t9.5 6.5t10 6.5t8 5q2 2 10.5 8.5t10.5 8.5q2 0 4 2t2 3q2 2 8.5 10.5t9.5 10.5l4.5 9t5.5 9q1 2 3 5.5t2 4.5q1 3 3.5 11t5 17
t5 17t3.5 11q2 0 6 4.5t5 5.5v11q0 2 -2.5 6t-2.5 5t1.5 6t3.5 10.5t3.5 10.5t2.5 6v28q0 1 -2 9t-4 13q0 1 -2.5 8t-2.5 9q-1 3 -4.5 13t-7.5 22t-7 22.5t-4 13.5q0 3 -2 8t-3.5 10.5t-3 10t-1.5 5.5q-2 2 -6 10.5t-6 10.5l-2 2q-3 3 -4 3q-3 4 -11 10t-10 7
q-4 2 -16.5 8.5t-16.5 8.5v4q0 1 1.5 5.5t3.5 9.5t3.5 9t2.5 4v6l-8.5 -8.5l-8.5 -8.5q-1 -1 -7.5 -10.5t-7.5 -10.5l-12 -6l-5 -5q-2 -2 -6 -4t-5 -2q-2 0 -7.5 -2t-12.5 -3.5t-12.5 -3.5t-7.5 -2q-1 0 -5 -2t-6 -4l-8 -8t-7 -8q-2 -2 -4 -5.5t-2 -4.5q-1 -2 -3.5 -9.5
t-5.5 -16t-5 -16t-3 -9.5q0 -1 -1.5 -5t-3.5 -8.5t-3.5 -9t-2.5 -5.5v-5q5 0 15 -1.5t13 -2.5q0 -2 5 -4t6 -2t6 -2t10.5 -3.5t10.5 -3.5t7 -2q0 -2 4 -8l6 -9q1 -1 1 -5.5t-1 -5.5q0 2 -4.5 6.5t-5.5 4.5q-2 0 -6.5 -3t-6.5 -3h-11q0 -1 -4 -2.5t-6 -2.5h-11v5h-17
q-3 -3 0 -5q2 -2 6 -3t6 -3q3 -1 16 -2.5t16 -2.5q-2 -2 -8 -3.5t-8 -1.5q-4 -1 -12 -1t-10 1q-2 0 -7 2t-10 5t-9.5 5.5t-5.5 3.5q-2 0 -4 -2t-2 -4q-2 -1 -4 -5q-1 -2 -1 -5q-1 -3 -1.5 -8.5t-0.5 -11.5t0.5 -11.5t1.5 -7.5q0 -6 1.5 -15t3 -17.5t3.5 -15t3 -6.5l4 -6
q-1 -5 -2.5 -17.5t-1.5 -16.5v-11q0 -2 1.5 -10.5t2.5 -11.5q1 -2 2.5 -5.5t3.5 -4.5q3 -4 11.5 -12.5t18 -18.5t18.5 -18t12 -11zM340 339q-4 0 -4 -5.5t4 -5.5q5 0 5 5.5t-5 5.5zM319 354q2 -1 8 -7l8 -8l1 1l2 4q1 2 2 5q2 1 2 3t-2 2q0 2 -5 4t-6 2l-2 2q-1 1 -2 3
q-2 2 -6.5 8.5t-4.5 8.5v6q-1 1 -4 7.5t-6 14t-5.5 13.5t-3.5 8v11h6v17l-10 -5v37q-2 -1 -8.5 -7t-8.5 -8q-1 -2 -5 -10.5t-6 -11.5v-6h11v-6q0 -1 -2 -8t-3 -7v-6q1 -1 5.5 -3t5.5 -4l-22 -11v-4q0 -1 2 -3l3 -3q2 -1 4 -5t2 -6q2 3 10.5 5t11.5 1q2 -2 6 -11.5t4 -11.5
q1 0 3.5 -2.5t3.5 -2.5q2 -1 5 -2t6 -4zM659 354q5 0 5 -5.5t-5 -5.5q-4 0 -4 5.5t4 5.5zM549 365q2 2 11 6t11 6q3 2 14.5 8t13.5 8q0 2 2 3.5t4 2.5v4q0 2 2 6t3 5q0 2 3 4t3 3q-2 3 -3 5q-3 3 -3 5t2.5 4t3.5 2q0 1 2 5.5t2 5.5q2 1 4 2.5t2 3.5q2 0 8.5 2t8.5 3
q1 2 3 5.5t2 5.5q-8 -5 -18 -7.5t-17 -8.5v22q-1 -1 -4.5 -1t-3.5 1q-2 0 -4 2t-2 4l-3 -6t-2 -6t-3 -8.5t-3 -7.5q-2 -3 -5.5 -11t-8 -17t-8.5 -16.5t-5 -10.5l10 -6zM417 382q34 6 60 21q2 0 2 -1.5t-2 -2.5q-1 -1 -4.5 -5.5t-4.5 -5.5q-2 -2 -6 -4t-6 -2
q-2 -1 -10.5 -2.5t-11.5 -2.5h-6q-1 0 -5 2zM654 388q-2 1 -2 -3t2 -3q2 0 2 2t-2 4zM389 403q0 2 1 9t-1 9q0 2 -6.5 8t-8.5 8q6 0 20 0.5t29.5 0.5t29.5 -0.5t20 -0.5q2 0 13.5 -2t13.5 -4q-2 -1 -8.5 -5.5t-8.5 -4.5q-1 -1 -5.5 -1t-4.5 1q-1 0 -3 2.5t-2 3.5h-6l-6 -6
h-5q-2 0 -8.5 1t-14 2t-14.5 2t-8 1h-6q-1 -2 -3 -6.5t-2 -6.5l2 -4q1 -2 1.5 -4t1.5 -3q2 -1 6.5 -7.5t6.5 -7.5q-5 -4 -7 0q-2 2 -8.5 8t-8.5 7zM246 409q-4 0 -4 -5t4 -5q5 0 5 5t-5 5zM252 421q-5 0 -5 -6t5 -6t5 6t-5 6zM648 431q0 -1 2 -4.5t4 -5.5v16q0 2 -2 8.5
t-4 8.5v-23zM171 427q0 2 -3.5 2t-2.5 -2q0 -3 2 -3t4 3zM308 437q-2 1 -2 -3t2 -3q4 3 0 6zM704 437q-4 0 -4 -5t4 -5q5 0 5 5t-5 5zM699 442q-5 0 -5 -5.5t5 -5.5q4 0 4 5.5t-4 5.5zM692 448q-5 0 -5 -5.5t5 -5.5t5 5.5t-5 5.5zM319 454q-3 1 -3 -3t3 -3q6 2 0 6zM176 465
q4 0 4 -5.5t-4 -5.5t-4 5.5t4 5.5zM192 482q0 -1 3 -4l2 -2q4 -2 6 0q-5 10 -11 15q-2 0 -2 -4t2 -5zM423 482q-10 2 -17 9q1 2 5.5 4.5t5.5 1.5q2 0 9 -5t8 -5q1 -1 4.5 -1t5.5 1q2 0 9 2t9 2h6v-4l-6 -3t-6 -2q-3 -2 -9 -4t-7 -2q-2 0 -8 2t-9 4zM637 491q-2 2 -2 -7.5
t2 -7.5q2 1 2 7.5t-2 7.5zM225 487q-4 0 -4 -5.5t4 -5.5q5 0 5 5.5t-5 5.5zM577 491q4 0 4 -4.5t-4 -4.5q-5 0 -5 4.5t5 4.5zM231 519q-1 -2 -5.5 -10.5t-5.5 -11.5q1 1 5 3.5t6 2.5q2 2 7 6.5t10 10t9 10t6 6.5v-5q0 -2 -2 -6l-3 -6h5l38 72v45q1 3 6 15t7 17q0 1 4.5 5.5
t6.5 5.5q0 1 1.5 1t2.5 -1q3 3 11.5 14t10.5 14t8.5 16t8.5 16q0 2 -0.5 6.5t0.5 4.5q1 1 2 3q3 3 4 3q1 1 10 5.5l11 5.5q1 0 6 5t5 6q1 0 6 2.5t5 3.5q2 1 3 8t3 7q3 2 11 2t10 -2q1 2 1 4t-1 2q0 1 -1.5 3.5t-2.5 3.5q4 0 4 4q1 2 1 4t-1 2q0 1 -4.5 4t-5.5 4h17l-7 14
l24 11h-40l-5 12q-3 -12 -10 -17q-2 0 -6.5 -3t-6.5 -3q-3 -3 -13.5 -11t-12.5 -11q-6 -5 -14.5 -13.5l-16.5 -16.5q-9 -10 -18 -19v-6q1 2 7 8.5t8 8.5q2 1 5.5 2.5t5.5 1.5q4 4 6 0q-11 -16 -19.5 -32t-18.5 -32q-2 -2 -3.5 -5.5t-3.5 -5.5q-2 -4 -4 -6h-13l-2 -2
q-2 -2 -2 -5q-1 0 -0.5 -4t0.5 -6q-1 -1 -3 -5.5t-2 -5.5q-2 -2 -3.5 -14t-2.5 -14t-2.5 -10.5t-3.5 -10.5q0 -3 -2.5 -11t-5 -17t-5 -16.5l-3.5 -10.5q0 -1 -2.5 -1t-3.5 1l-2 2q-1 1 -2 1.5t-2 1.5q0 -2 -2 -11t-3 -12q0 -1 -1.5 -5.5t-3.5 -10t-3.5 -10.5t-1.5 -6v-6z
M588 503q-1 0 -2.5 -2.5t-3.5 -3.5l6 11v-5zM241 536q4 0 4 -5.5t-4 -5.5q-3 0 -3 5.5t3 5.5zM517 575q-2 2 -6 8t-6 8q0 1 -2 1t-3 -1q-2 0 -5.5 -2t-5.5 -4v11h-16q0 2 1.5 6t2.5 6q2 0 6 2l6 3q2 2 8.5 4t7.5 2h17q2 0 11 -5.5t10 -5.5q2 -2 14 -3.5t14 -2.5q2 0 3 -2
t3 -4l-16 -16q-4 -2 -10 -6t-8 -4q-1 -1 -6 -1.5t-11.5 -0.5t-12 0.5t-8.5 1.5q-2 0 -5.5 1.5t-5.5 3.5h23zM532 580h6v5zM406 591q4 -3 0 -6q-2 -1 -2 3t2 3zM528 585q1 3 -3 3t-3 -3q3 -5 6 0zM252 596q-5 0 -5 -5.5t5 -5.5t5 5.5t-5 5.5zM571 619v-6l-10 6h10zM671 619
q-4 0 -4 -3.5t4 -2.5q3 3 0 6zM351 624q2 2 -5 2t-6 -2q2 -3 6 -3t5 3zM556 624q-2 -3 -6.5 -3t-6.5 3q-1 2 6 2t7 -2zM237 636h4v4zM665 640q-5 0 -5 -5t5 -5t5 5t-5 5zM241 651h5v6h-5v-6zM301 718q1 0 4 2t3 4q2 2 6 8t5 7v17h-5v-11q-2 -2 -7 -11t-6 -10v-6zM577 724
q-3 0 -3 -3.5t3 -2.5q2 0 2 2t-2 4zM599 728q-4 0 -4 -5t4 -5q5 0 5 5t-5 5zM654 728q-2 1 -2 -2.5t2 -1.5q2 0 2 2t-2 2zM594 739q-5 0 -5 -5.5t5 -5.5q4 0 4 5.5t-4 5.5zM588 745q-5 0 -5 -5.5t5 -5.5t5 5.5t-5 5.5zM571 773q2 -2 3 -4t3 -2h5q-1 0 -2.5 2t-2.5 4h-6z
M594 784q-5 0 -5 -5.5t5 -5.5q4 0 4 5.5t-4 5.5zM588 788q-5 0 -5 -5t5 -5t5 5t-5 5zM500 788h11q1 2 8 6.5t9 4.5q1 2 2.5 2t1.5 -2v6h-15q-2 0 -6 -2t-6 -4q-1 0 -3 -2t-2 -3v-6zM566 788q1 3 -5.5 3t-4.5 -3q0 -2 4 -2t6 2zM582 788q2 3 -2.5 3t-2.5 -3q1 -2 2.5 -2
t2.5 2zM549 794q2 3 -4.5 3t-6.5 -3q2 -2 5.5 -2t5.5 2zM561 816q-2 -1 -3.5 -5t-1.5 -6l15 7l-2 2q-1 0 -1 0.5t-1 0.5t-1 1q-5 5 -5 0zM582 805q2 2 -2.5 2t-2.5 -2q1 -2 2.5 -2t2.5 2zM556 822q0 3 -3.5 3t-3.5 -3q1 -2 3 -2t4 2zM335 850l5 5h-5v-5zM549 876h12v6l-3 3
q-1 1 -2 3zM473 882l4 6h-9z" />
    <glyph glyph-name="A" unicode="A" horiz-adv-x="561" 
d="M223 402q36 4 60 5.5t43.5 2t40 0t49.5 0.5q3 73 6.5 120.5t9 86t12 74.5t14.5 86q-23 -26 -41.5 -47.5t-34.5 -43.5t-31.5 -47t-34 -58t-41 -76.5t-52.5 -102.5zM405 336q-35 -3 -60 -3t-48 -0.5t-49.5 -3t-65.5 -9.5q-2 -5 -11 -20.5t-21 -36.5l-26 -45.5t-26 -46.5
t-21 -39t-12 -24l-10 -24q-37 -101 -83 -101q-6 0 -10 5t-4 13q0 22 22.5 80t67.5 154q44 94 102.5 202t130.5 230q114 195 185 195q9 0 23.5 -4.5t39.5 -13.5q6 -34 3.5 -62.5t-8 -62.5t-12.5 -79t-11 -113q-5 -90 -11 -184t-6 -195q0 -16 0.5 -38t1.5 -36q0 -5 0.5 -8
t0.5 -4q0 -44 -43 -44q-34 0 -36 152q-1 8 0 32t2 51.5t0 51t-5 31.5z" />
    <glyph glyph-name="B" unicode="B" horiz-adv-x="648" 
d="M87 60q10 -10 23.5 -15t36.5 -5q27 0 61.5 11t72 30.5t77 47.5t77.5 61q59 54 59 98q0 19 -8.5 37t-26.5 32t-45.5 22.5t-64.5 8.5q-42 0 -84 -4t-83 -13q-27 -72 -54 -151.5t-44 -150.5zM213 461q91 9 154.5 25t114.5 51q25 18 45.5 38.5t33.5 41.5t17 41.5t-4 38.5
q-14 31 -46.5 44t-72.5 15t-80.5 -4.5t-70.5 -14.5q-15 -39 -27.5 -74t-23 -68.5t-20.5 -66t-20 -67.5zM203 739q3 34 20.5 55t42 31.5t53 14t52.5 3.5q66 0 120.5 -19t86.5 -53q32 -33 52.5 -69.5t20.5 -63.5q0 -51 -63 -100.5t-186 -96.5q36 -9 66 -27t51 -41.5t32.5 -51
t11.5 -55.5q0 -34 -21 -68.5t-59 -66.5q-39 -32 -84 -58.5t-92 -45t-94.5 -28.5t-90.5 -10q-50 0 -78 21.5t-28 52.5q0 23 14 83.5t40 157.5q29 99 59 206t74 229z" />
    <glyph glyph-name="C" unicode="C" horiz-adv-x="616" 
d="M619 729q0 -23 -13.5 -39t-30.5 -16q-12 0 -18.5 12t-11.5 50q-4 20 -23 35t-47 15q-45 0 -99.5 -40.5t-109.5 -113.5q-37 -49 -67.5 -105t-53.5 -117q-23 -60 -34.5 -114.5t-11.5 -102.5q0 -73 36.5 -114t99.5 -41q41 0 83.5 14.5t93.5 44.5q11 7 25.5 17t34.5 25
q32 25 45 25q4 0 4 -10q0 -12 -10 -33t-40 -46q-26 -20 -55.5 -36.5t-59 -27.5t-56 -17t-47.5 -6q-54 0 -97 14.5t-74 41.5t-47.5 65.5t-16.5 86.5q0 44 14 100.5t41 121.5t65.5 136t86.5 144q29 43 58.5 73.5t57.5 49.5t51.5 28t40.5 9q24 0 56 -8.5t61 -24.5t49 -40.5
t20 -55.5z" />
    <glyph glyph-name="D" unicode="D" horiz-adv-x="658" 
d="M319 750q-40 -106 -74 -207t-61 -192t-47 -169.5t-31 -140.5q48 13 90 35t80.5 50.5t74 62.5t71.5 72q40 42 69 88t47.5 92t27.5 89.5t9 78.5q0 42 -7 71t-27 46.5t-55.5 25.5t-92.5 8q-5 0 -20.5 -0.5t-45.5 -3.5zM221 820q0 10 3.5 16.5t13 10.5t27 5.5t46.5 1.5
q90 0 153 -17.5t102 -53.5t57 -90.5t18 -127.5q0 -41 -14.5 -89.5t-40 -100t-61 -102.5t-77 -96.5t-87.5 -82t-93 -58.5q-101 -48 -167 -48q-73 0 -73 54q0 30 17 97t39 176q11 54 29 116t38 127.5t39 132t31 129.5z" />
    <glyph glyph-name="E" unicode="E" horiz-adv-x="636" 
d="M214 433q-14 -36 -31 -88t-33 -104t-29 -95.5t-17 -60.5q79 10 139 14t103.5 5t71.5 0t43 -1q58 0 58 -16q0 -19 -58 -28q-10 0 -14 -2q-43 -7 -97.5 -14t-114.5 -22q-63 -16 -101 -19t-53 -3q-23 0 -41.5 18.5t-18.5 44.5q0 8 11.5 49t33.5 126v-1l150 542q8 26 19.5 40
t18.5 18q16 0 51 -0.5t79 -2.5t91 -4.5t87 -4.5t67 -3.5t31 -1.5q15 -2 15 -7q0 -14 -41.5 -29t-119.5 -20q-61 -3 -113 -4t-94 -7q-11 -30 -22 -63t-21.5 -65.5t-20.5 -63.5t-17 -57q28 3 70.5 5t82 1t68 -5.5t28.5 -13.5q0 -15 -5.5 -27.5t-18.5 -13.5q-28 -2 -45.5 -1
t-40 0.5t-57 -3.5t-94.5 -12z" />
    <glyph glyph-name="G" unicode="G" horiz-adv-x="648" 
d="M520 346h-5q-37 2 -63.5 -0.5t-62.5 -9.5q-32 -5 -55 -8t-37 -3q-26 0 -41 10.5t-15 28.5q0 5 21 12.5t54 15.5q42 8 87.5 13.5t93.5 5.5q57 0 77.5 -16.5t20.5 -57.5q0 -12 -10.5 -39.5t-28 -61.5t-40.5 -68.5t-47 -59.5q-33 -34 -79.5 -62t-98 -45.5t-102.5 -21
t-91.5 13t-66 55.5t-25.5 106q0 44 10 96.5t30 113.5h-1q20 60 49 118.5t62 111.5q34 52 74 99t85 86q88 76 118 76q24 0 58 -19.5t65 -47.5t52.5 -60t21.5 -57q0 -5 -3.5 -10.5t-7.5 -5.5q-5 0 -44 51q-22 31 -51.5 50t-50.5 19q-31 0 -65.5 -30.5t-78.5 -75.5
q-37 -37 -69.5 -81t-59.5 -89q-56 -95 -86 -182.5t-30 -159.5q0 -61 21.5 -88t69.5 -27q56 0 110.5 29t101 73.5t81.5 98t52 103.5z" />
    <glyph glyph-name="H" unicode="H" horiz-adv-x="699" 
d="M177 325q-7 -21 -18 -55t-23 -72.5t-23 -76t-17 -66.5q-16 -90 -41 -90q-21 0 -33 8.5t-12 22.5q0 15 13.5 73.5t41.5 161.5q13 51 31.5 111t39.5 125.5t44.5 133.5t46.5 136q4 11 9.5 27t13.5 30.5t19.5 24.5t26.5 10q23 0 33.5 -4.5t13.5 -12.5t0 -19.5t-7 -26.5
q-8 -31 -26.5 -69t-39.5 -83t-40 -96.5t-28 -108.5q31 -1 71 0.5t81.5 4.5t81.5 6t70 6q38 127 63.5 212t44.5 136t33 72t28 21q35 0 41 -16t-8 -47q-17 -37 -34.5 -89t-31.5 -99q-18 -58 -38 -124t-39.5 -135t-38 -137.5t-31.5 -131.5q-5 -26 -9.5 -41.5t-9 -23t-10 -9.5
t-13.5 -2q-20 0 -33.5 13.5t-13.5 33.5q0 8 4 30.5t14 57.5q3 12 13 41t20.5 62t19.5 62.5t11 41.5q-65 -3 -112 -5.5t-82.5 -5t-61.5 -5t-47 -6.5z" />
    <glyph glyph-name="I" unicode="I" horiz-adv-x="321" 
d="M99 13q0 -14 -25 -14q-60 0 -60 37q0 28 48 193q11 39 25.5 87t30.5 100.5t34 108.5t36 113l3 10q2 5 4 10.5t4 11.5v-1q62 193 112 193q23 0 31.5 -8t8.5 -20.5t-5.5 -28t-10.5 -31.5q-24 -74 -59.5 -167.5t-70.5 -194.5t-64.5 -203.5t-41.5 -195.5z" />
    <glyph glyph-name="J" unicode="J" horiz-adv-x="528" 
d="M-38 80l-5 5q-27 25 -27 37q0 15 15 29.5t30 14.5q7 0 21 -18t34 -39t46 -39t57 -18q105 0 212 426q24 97 44 173t37 136q15 70 71 70q18 0 32 -8.5t14 -16.5q-2 -3 -3 -7q-2 -3 -2.5 -6.5t-2.5 -8.5v1q-8 -17 -15 -37t-12 -36q-20 -63 -42 -138.5t-48 -166.5
q-26 -95 -43 -151.5t-24 -76.5q-34 -94 -109 -158h1q-71 -59 -134 -59q-42 0 -75.5 20.5t-70.5 70.5z" />
    <glyph glyph-name="K" unicode="K" horiz-adv-x="589" 
d="M207 448q46 29 92 70.5t94 86.5q25 22 49.5 47.5t52 54t60 60t73.5 65.5q38 32 57 32q14 0 14 -17q0 -11 -16 -32t-39 -45t-48 -48t-43 -40q-47 -44 -124.5 -119t-180.5 -177q57 -55 103 -109.5t81 -104.5q32 -46 50 -82t18 -55q0 -10 -5.5 -20t-14 -17.5t-18.5 -12
t-20 -4.5q-8 0 -8 4q0 9 -18.5 46t-52 88.5t-81.5 112t-108 115.5q-13 -43 -27 -94.5t-25 -93.5l-12 -46q-7 -27 -12 -46.5t-8 -33.5q-4 -16 -7 -27q-5 -12 -18 -18.5t-31 -6.5q-27 0 -27 26q0 25 55 220q1 2 7 29.5t16.5 70.5t24.5 98t30 112t33.5 111.5t35 97t34 68.5
t31.5 26q17 0 32.5 -8.5t15.5 -20.5q0 -11 -42 -135z" />
    <glyph glyph-name="L" unicode="L" horiz-adv-x="512" 
d="M113 74q80 17 149 20.5t129 3.5q32 0 46 -7t14 -23q0 -10 -38 -15l-29 -3q-10 -2 -11 -2q-50 -8 -102 -13t-104 -17q-45 -10 -77.5 -16.5t-36.5 -6.5q-36 0 -36 53q0 17 15.5 80.5t43.5 165.5q29 106 65 222t79 244v-1l6 15q24 73 61 73q40 0 46.5 -26.5t-8 -75t-45 -117
t-64.5 -153t-65.5 -183t-49.5 -206.5z" />
    <glyph glyph-name="M" unicode="M" horiz-adv-x="813" 
d="M318 739q-37 -61 -66 -120t-53.5 -119t-46.5 -123t-46 -130q-93 -259 -102 -259q-16 0 -29.5 11t-13.5 23q0 14 17.5 67t48.5 131q17 42 35 92t38.5 105t43.5 114t50 119q25 59 46 94t39 53t33 23.5t28 5.5q33 0 52.5 -6t21.5 -14q-1 -1 -1 -2l-1 -1q-1 -5 -2.5 -8.5
t-2.5 -8.5q-18 -58 -32 -109.5t-23 -106.5t-13.5 -119.5t-3.5 -149.5q37 73 69 127.5t61.5 99.5t57.5 84.5t57 84.5q28 43 52.5 72t44 46.5t34 24.5t23.5 7q6 0 20.5 0.5t30 -2.5t30 -13t21.5 -31q-81 -177 -139.5 -358.5t-87.5 -362.5q-6 -32 -14.5 -51.5t-16.5 -19.5
q-15 0 -23.5 12t-8.5 32q0 45 14 118t41 170q28 100 57 204.5t75 218.5q-40 -37 -77 -79t-75 -96.5t-79.5 -124.5t-90.5 -163q-4 -7 -8 -15q-4 -7 -7.5 -15t-7.5 -16q-3 -8 -10 -20.5t-16 -25.5t-19.5 -22t-20.5 -9q-26 0 -44.5 12t-18.5 32q0 52 1 106.5t6.5 116t17.5 134
t34 160.5z" />
    <glyph glyph-name="N" unicode="N" horiz-adv-x="668" 
d="M303 716q-95 -224 -154.5 -404t-85.5 -311q-5 -29 -8 -29q-17 0 -34 9.5t-17 21.5q0 14 13 65t34 126q47 173 102 328q28 78 51.5 138t43.5 105q7 13 14.5 23.5t18 18t25.5 11.5t38 4q13 0 20.5 -5t11.5 -13t5 -17t1 -16q-10 -39 -15 -84t-5 -102q0 -59 -0.5 -118.5
t3 -118t12.5 -114.5t27 -107q10 13 22.5 52t27 93t31.5 119.5t35.5 131.5t38.5 128t41.5 109.5t43.5 76.5t45 29q19 0 19 -9q0 -6 -17 -38q-81 -219 -135 -395.5t-83 -298.5l-4 -17q-13 -71 -60 -71q-6 0 -14 4t-17 10.5t-17 15.5t-13 18q-8 13 -17.5 55.5t-20.5 114.5v-1
q-21 145 -21 303q0 20 2 41.5t5 42t5 40t2 35.5z" />
    <glyph glyph-name="O" unicode="O" horiz-adv-x="753" 
d="M110 217q0 -86 42 -133.5t117 -47.5q71 0 139 48t124 135q26 44 48.5 94t38.5 104q16 55 25 108t9 101q0 81 -31.5 123t-90.5 42q-54 0 -106.5 -31t-109.5 -97q-97 -114 -151 -230t-54 -216zM583 831q34 -15 60 -34.5t42.5 -46.5t25 -63t8.5 -84q0 -39 -6 -83
t-17.5 -89.5t-27.5 -91t-37 -87.5q-59 -122 -154 -198q-91 -73 -179 -73q-25 0 -52.5 5t-53.5 14.5t-49.5 23t-41.5 31.5q-33 29 -50 76t-17 108q0 88 37 187.5t108 198.5q39 54 79 98t83 78q21 17 44.5 30t52 18.5t64 2t81.5 -20.5z" />
    <glyph glyph-name="P" unicode="P" horiz-adv-x="589" 
d="M216 410q39 1 71.5 3.5t60.5 9.5t54 20t52 36q54 47 76 93t22 91q0 47 -44 76t-123 29q-20 0 -38 -2.5t-33 -7.5q-19 -52 -32.5 -97.5t-24.5 -87.5t-21 -82t-20 -81zM193 328q-12 -42 -25 -85t-25 -83t-22 -75.5t-15 -62.5q-3 -25 -11 -34t-25 -9q-20 0 -36 7.5t-16 15.5
q0 19 15.5 88t43.5 178q31 115 68.5 248t84.5 294q0 24 18 33.5t63 9.5q148 0 233 -56h-1q85 -57 85 -148q0 -115 -123 -212q-32 -25 -64.5 -41t-69.5 -26.5t-79 -18.5t-91 -16z" />
    <glyph glyph-name="Q" unicode="Q" horiz-adv-x="732" 
d="M322 85q-9 8 -22 18t-28 21q-35 26 -35 34q0 4 8 11t15 7q23 0 58.5 -20.5t74.5 -49.5q108 85 170 227q64 144 64 300q0 85 -24.5 123t-77.5 38q-58 0 -106.5 -27.5t-101.5 -87.5h1q-47 -52 -87 -117t-69 -131t-45 -128.5t-16 -110.5q0 -74 29 -112t88 -38q55 0 103 26z
M389 31q-81 -38 -155 -38q-84 0 -147 63q-60 64 -60 164q0 60 17.5 126.5t51.5 140.5q67 146 191 286q24 27 51 44t52.5 26t48 12.5t37.5 3.5q115 0 168 -64t53 -206q0 -147 -66 -288q-32 -71 -77.5 -128t-105.5 -102q30 -31 49.5 -52t31 -35t16.5 -21.5t5 -11.5
q0 -27 -6 -39t-15 -11.5t-20.5 10.5t-23.5 26q-17 23 -38.5 47t-47.5 46z" />
    <glyph glyph-name="R" unicode="R" horiz-adv-x="636" 
d="M209 404q39 -4 71.5 -3t61 7.5t55 19.5t54.5 34q36 27 66 61t42.5 70t2.5 71.5t-55 65.5q-41 28 -88.5 44t-93.5 4q-22 -61 -39 -112.5t-31 -96.5t-25 -85.5t-21 -79.5zM179 287q-2 -7 -9 -24t-15 -39t-16.5 -47t-14.5 -48l-33 -130q-3 -29 -21 -29q-7 0 -15 5t-15 13.5
t-11.5 18.5t-4.5 20q0 31 5 61t13.5 59.5t18.5 60t19 63.5q28 99 53.5 187.5t48.5 162.5q23 75 40 125.5t26 70.5q8 21 34.5 29.5t82.5 8.5q116 0 203 -75q88 -72 88 -152q0 -71 -37 -122.5t-95.5 -86.5t-129.5 -55.5t-139 -30.5q50 -54 100 -108.5t96 -91.5
q24 -19 46.5 -38t33 -34.5t3 -25t-44.5 -9.5q-14 0 -42.5 21.5t-68.5 57.5t-90.5 83t-108.5 99z" />
    <glyph glyph-name="S" unicode="S" horiz-adv-x="560" 
d="M621 719q0 -9 -12 -17.5t-25 -8.5q-9 0 -16.5 6.5t-15 15.5t-15.5 19t-18 18q-45 34 -84.5 38.5t-73 -11.5t-60 -47t-45 -68.5t-28.5 -76t-10 -69.5q0 -49 44.5 -112.5t122.5 -134.5q27 -23 36.5 -45t9.5 -39q0 -23 -15 -57.5t-41 -66.5t-60.5 -54.5t-72.5 -22.5
q-51 0 -99.5 17.5t-93.5 49.5q-85 65 -85 126q0 14 10.5 26t22.5 12q7 0 16 -23q2 -3 3 -6.5t2 -6.5q32 -63 86.5 -95.5t129.5 -32.5q24 0 43.5 12t34 31t22 40.5t6.5 41.5q-8 29 -37 74.5t-83 93.5q-29 25 -44.5 50t-24.5 45q-18 39 -18 90q0 35 13 77t35.5 83.5t53.5 79.5
t67.5 64t76.5 37.5t81.5 1t82.5 -47.5t78 -107z" />
    <glyph glyph-name="U" unicode="U" horiz-adv-x="697" 
d="M451 189q-29 -48 -62 -85.5t-65.5 -64t-62 -40t-51.5 -13.5q-33 0 -60.5 12t-47.5 34t-31 54t-11 71q0 36 12.5 97t32.5 136q25 87 56.5 172.5t69.5 170.5q43 100 84 100q23 0 26 -15t-13 -48q-100 -218 -150.5 -374.5t-50.5 -259.5q0 -19 6 -37t15 -32.5t20 -23t22 -8.5
q23 0 57 19.5t75 64.5q36 40 72 104.5t69.5 139t63 152t52.5 143t37.5 111t19.5 57.5q8 23 20 31t30 8q12 0 21 -1.5t13 -7t2 -17.5t-11 -33q-26 -56 -46.5 -113t-37.5 -112t-32 -107.5t-30 -100.5q-14 -46 -26 -88t-20 -78t-12.5 -65t-4.5 -48q0 -30 6 -57q1 -5 -4.5 -11
t-13 -11t-15.5 -8t-12 -3q-14 0 -20.5 11.5t-7.5 29t1 39.5t5.5 42.5t6.5 37.5t3 25z" />
    <glyph glyph-name="V" unicode="V" horiz-adv-x="577" 
d="M193 84q34 56 63 111t55.5 108t52 104.5t53.5 99.5l162 295q11 15 33.5 26.5t40.5 13t24.5 -10t-12.5 -42.5q-21 -30 -43.5 -71t-47 -88t-52 -97t-57.5 -99q-16 -25 -36.5 -68t-45 -92.5t-51.5 -101t-54.5 -93t-54.5 -68t-51 -26.5q-6 0 -15.5 2t-18.5 5t-16 7t-9 9
q-4 14 -7.5 47t-3.5 81q0 87 7 166.5t19 157t27 156t32 163.5q5 20 13 23t20 3q3 0 4 1t3 1.5t5 -0.5t11 -5q26 -16 26 -28q0 -8 -14 -59q-38 -150 -54 -295t-10 -290q1 -12 1.5 -23.5t0.5 -22.5z" />
    <glyph glyph-name="W" unicode="W" horiz-adv-x="830" 
d="M430 527q-45 -58 -80.5 -116t-66 -116.5t-57 -117.5t-52.5 -120q-12 -31 -24.5 -41t-29.5 -10q-20 0 -36.5 15t-16.5 34q0 16 2.5 49t7.5 84q5 52 12.5 106t17.5 114q9 63 18.5 120.5t19 105t18 83.5t15.5 57h-1q7 21 24 33t36 12q22 0 22 -24q0 -7 -48 -227
q-23 -110 -43 -220.5t-37 -221.5q69 127 125 233t104 189q22 36 38.5 57t29.5 32t23 14.5t19 3.5q11 0 22 -8q21 -8 21 -25q0 -5 -1.5 -16t-5.5 -31q0 -1 -0.5 -2t-0.5 -2q-23 -129 -17 -250.5t27 -233.5q38 105 72.5 196.5t68.5 173.5t67.5 157.5t70.5 147.5q19 38 35 52
t39 14q20 0 26 -5t2.5 -16.5t-13.5 -29t-23 -41.5q-43 -86 -80.5 -168t-71 -163.5t-65.5 -165t-64 -171.5q-5 -6 -6 -13v-2q-12 -33 -31.5 -52t-44.5 -19q-38 0 -53 52v-1q-15 60 -15 250z" />
    <glyph glyph-name="X" unicode="X" horiz-adv-x="577" 
d="M230 411q-9 31 -17 55t-14.5 45.5t-12.5 42.5t-12 47q-12 52 -17.5 85t-5.5 48q0 18 13 29.5t29.5 14.5t30.5 -4t17 -25q4 -32 9 -63.5t12 -64.5t15 -69t18 -78q20 18 52 52.5t69 75.5t76.5 83.5t74.5 77t62 56.5t40 22q6 0 11.5 -6t8.5 -14t1.5 -15.5t-8.5 -11.5
q-49 -56 -96 -105t-92 -95.5t-87.5 -93.5t-81.5 -100q8 -53 22.5 -103t30.5 -94.5t30.5 -82t22.5 -64.5t7 -42t-17 -15q-20 0 -39 19t-39 58.5t-42 100.5t-48 144q-19 -24 -40 -56t-42.5 -66l-43 -68t-40.5 -64q-75 -116 -88 -116q-16 0 -25.5 11t-9.5 28t64 124.5
t202 296.5z" />
    <glyph glyph-name="Y" unicode="Y" horiz-adv-x="552" 
d="M283 410q36 57 69 113t64.5 106.5t62 93t59.5 71.5q25 25 44 43t33.5 26t25.5 3.5t22 -25.5l-15.5 -19.5t-42 -53t-60.5 -80t-71.5 -101.5t-75.5 -117t-71.5 -127t-59.5 -130.5t-40 -127.5q-20 -90 -44 -90q-21 0 -35.5 15.5t-14.5 38.5q0 6 2 19.5t6.5 31.5t11 39
t15.5 42q27 64 36.5 127t7 122.5t-13 113.5t-22 100.5t-20.5 84.5t-9 65q0 44 45 44q9 0 17.5 -13t15.5 -36t13 -55t10 -70q3 -33 7 -68.5t9 -69.5t10 -64t9 -52z" />
    <glyph glyph-name="Z" unicode="Z" horiz-adv-x="622" 
d="M98 84q85 2 155.5 2h134.5q32 0 45.5 -12t13.5 -35q0 -5 -35.5 -12t-88.5 -14t-115 -11t-115 -3t-88.5 9.5t-35.5 26.5q0 39 103 157h-1q124 140 211 236t137 150q46 48 82 90t81 80q-18 9 -57 11.5t-90 -2t-110.5 -14.5t-118.5 -26l-17 -4q-5 -2 -7.5 -2t-4.5 -1
q-3 -1 -4 -1q-10 0 -21 11t-11 21q0 8 11 11q27 13 50.5 21t48.5 13.5t52.5 10.5t61.5 12t60.5 12t50.5 7t49 3t55 1q15 0 37 -2.5t42 -7t34 -10.5t14 -13q0 -11 -10 -25t-44 -41q-157 -156 -298.5 -320.5t-256.5 -328.5z" />
    <glyph glyph-name="bracketleft" unicode="[" horiz-adv-x="414" 
d="M139 -164q20 -4 31 -4.5t19 -0.5q10 0 27.5 0.5t25.5 0.5q27 0 27 -15q0 -17 -34.5 -27t-97.5 -10q-42 0 -60 17.5t-18 59.5q0 29 5 80t14 109q21 128 44.5 243.5t49.5 221.5t51.5 184t48.5 132q12 26 45 38.5t99 12.5q52 0 52 -17q0 -16 -59 -28l-53 -11
q-88 -304 -145 -562q-55 -254 -72 -424z" />
    <glyph glyph-name="bracketright" unicode="]" horiz-adv-x="414" 
d="M269 822q-5 0 -12.5 1l-15 2t-14 1.5t-9.5 0.5q-9 0 -27 -1t-26 -1q-25 0 -25 16q0 17 34.5 26t97.5 9q42 0 60 -17.5t18 -59.5q0 -12 -1.5 -32t-4 -44.5t-6.5 -53t-9 -57.5q-22 -132 -46.5 -250t-50.5 -225q-26 -106 -49 -182.5t-46 -125.5q-13 -26 -46 -37.5t-99 -11.5
q-52 0 -52 16q0 15 60 28q16 3 28.5 5.5t23.5 5.5q45 153 80 292.5t64 268.5q56 254 73 426z" />
    <glyph glyph-name="underscore" unicode="_" horiz-adv-x="700" 
d="M700 -249v-81h-700v81h700z" />
    <glyph glyph-name="a" unicode="a" 
d="M199 322q0 31 -31 31q-25 0 -57.5 -33t-64.5 -91q-29 -54 -46.5 -104t-17.5 -77q1 -29 24 -24q16 2 41.5 26.5t52.5 63.5q20 32 38 63t32 63q29 67 29 82zM154 111q-47 -60 -87.5 -92.5t-76.5 -32.5q-26 0 -43 21t-17 53q0 48 18 103t54 115q34 61 72 96t70 35
q10 0 33.5 -6.5t46 -20t36.5 -33t4 -45.5q-39 -96 -54.5 -150t-15.5 -74q0 -15 4.5 -21.5t18.5 -6.5q12 0 29 20.5t34 45.5t32.5 45.5t23.5 20.5q4 0 8 -7.5t4 -13.5q0 -10 -18 -38t-45 -64q-23 -30 -41.5 -42.5t-37.5 -12.5q-26 0 -39.5 19t-13.5 53q0 8 0.5 13t0.5 9v11z
" />
    <glyph glyph-name="b" unicode="b" horiz-adv-x="370" 
d="M211 360q-19 0 -54.5 -27t-72.5 -72q-39 -49 -59.5 -98t-20.5 -100q0 -59 55 -59q27 0 49 17.5t45 54.5q19 34 35.5 68.5t28 66.5t18 59t6.5 46t-8 31.5t-22 12.5zM62 305q54 45 93.5 71t71.5 26q29 0 45 -26.5t16 -75.5q0 -53 -26 -122t-70 -134q-27 -41 -68.5 -61
t-80 -20.5t-66 18t-27.5 55.5q0 20 11.5 72t35.5 137q24 86 47.5 169t58.5 175q8 21 14 38t12.5 26.5t16.5 9.5t26 -14q10 -8 11 -14t-4.5 -17.5t-15.5 -33t-22 -61.5q-17 -51 -39.5 -103t-39.5 -115z" />
    <glyph glyph-name="c" unicode="c" horiz-adv-x="265" 
d="M181 351q-28 13 -52 -2.5t-43 -43.5t-33 -60.5t-21 -52.5q-15 -41 -19.5 -76t-4.5 -60q0 -18 2.5 -28t8.5 -15t15 -6t21 -1q35 0 68 19t76 72q16 20 28 43t33 34q3 2 13.5 1t10.5 -5q0 -10 -11 -33t-29 -49q-38 -57 -84 -87t-94 -30q-50 0 -78 28.5t-28 76.5q0 72 38 160
q37 90 88 141q20 21 55 21q15 0 29 -2.5t25 -9.5t18 -18t7 -29q0 -6 -5 -30t-12.5 -50t-16.5 -46.5t-17 -20.5q-11 0 -19 8t-8 17q0 10 3.5 24.5t9.5 34.5z" />
    <glyph glyph-name="d" unicode="d" horiz-adv-x="351" 
d="M199 311q-9 11 -16.5 16t-20.5 5q-20 0 -43 -23t-55 -74h1q-35 -54 -55 -100.5t-20 -86.5q0 -17 10 -29t22 -12q17 0 39 13.5t47 57.5q23 42 46.5 98t46.5 125zM154 74q-42 -58 -78 -83t-63 -25q-29 0 -49.5 20.5t-20.5 66.5q0 65 37 143q35 79 97 141q29 30 50 30
q7 0 15.5 1t18 0t21 -6.5t24.5 -17.5l65 167q16 48 26.5 78t18 46.5t13 22.5t11.5 6q17 0 30.5 -6.5t11.5 -15.5q-7 -39 -26 -89.5t-40.5 -102.5t-42 -99.5t-30.5 -80.5q-20 -67 -29.5 -116t-9.5 -78q0 -38 24 -38q11 0 25 10t28 24t27 29.5t23 26.5q5 6 7 10.5t4 4.5
q19 -3 22 -15t-5.5 -28.5t-26 -35t-38.5 -34t-43 -25.5t-40 -10q-52 0 -57 79z" />
    <glyph glyph-name="e" unicode="e" horiz-adv-x="250" 
d="M65 162q14 0 28 8.5t27 33.5q6 12 11 28.5t9.5 33.5t7 33t2.5 27t-7 20t-18 9q-22 0 -53 -50q-7 -11 -13.5 -26t-11.5 -30t-8 -28t-3 -20q0 -23 6.5 -31t22.5 -8zM11 158q-4 -17 -11 -42t-7 -45q0 -41 18.5 -57t42.5 -16q17 0 37.5 14t40.5 35t39.5 46t35.5 46t27.5 35
t16.5 14q3 0 6.5 -4.5t3.5 -11.5q0 -5 -4 -15.5t-11.5 -23.5t-17 -28t-21.5 -30q-42 -53 -83 -81t-83 -28q-88 0 -88 103q0 30 6.5 64.5t20.5 74.5q26 81 70 143q27 38 55 38q9 0 23.5 -4t28.5 -11.5t24 -17.5t10 -22q0 -78 -44 -140q-33 -51 -63 -60t-73 24z" />
    <glyph glyph-name="f" unicode="f" horiz-adv-x="259" 
d="M123 290q-18 -52 -32 -107t-24 -112q-7 -38 -19 -58t-30 -20q-26 0 -26 20q0 23 20.5 97.5t55.5 180.5h-18q-20 0 -32 6.5t-12 16.5q0 7 18 12.5t58 10.5q31 117 68 210t80 163q10 26 30.5 47.5t45.5 36t52 21t48.5 2.5t35.5 -20.5t14 -46.5q0 -6 -7.5 -12t-15.5 -6
q-10 0 -19 16v-1q-14 27 -37 27q-87 0 -226 -399l-12 -35h25q4 0 8 -0.5t6 -0.5q36 0 48 -4.5t12 -18.5q0 -8 -3 -13t-13 -8t-28 -4t-48 -1h-23z" />
    <glyph glyph-name="g" unicode="g" horiz-adv-x="269" 
d="M-26 36q16 -19 43.5 -5t57 46t55 74t38.5 80.5t8 65t-38 26.5q-19 0 -51.5 -34t-66.5 -91q-14 -23 -22.5 -46.5t-14 -45.5t-7.5 -40t-2 -30zM135 77q-56 -57 -86 -80t-53 -23q-30 0 -48 22.5t-18 60.5q0 28 7 61t20.5 67t33 67.5t43.5 63.5q13 17 23.5 28t19 17t17 8
t17.5 2q10 0 34 -6.5t47.5 -18.5t38.5 -28.5t8 -35.5q-13 -29 -22.5 -60.5t-17.5 -65t-15 -69.5t-16 -72v1q-9 -43 -24.5 -81t-41 -66.5t-61 -45t-84.5 -16.5q-48 0 -77 14.5t-29 35.5q0 15 11 15q5 0 13 -3.5t18 -7.5t21 -7.5t21 -3.5q58 0 89 16t48.5 45.5t29.5 71.5
t33 94z" />
    <glyph glyph-name="h" unicode="h" horiz-adv-x="343" 
d="M161 210q-50 -71 -83.5 -116.5t-55.5 -72t-35.5 -37t-22.5 -10.5q-32 0 -32 29q0 22 12 70t38 123q12 34 27.5 77.5t33.5 90.5t37 95t37 93q3 8 7.5 18t7.5 18q16 40 28.5 61.5t22.5 31t19 11t19 1.5q5 0 9.5 -3t4.5 -8q0 -1 -25 -56q-35 -77 -65.5 -145.5t-57.5 -136.5
t-53 -139t-52 -152q72 100 120 163t78 98t47 48t28 13q9 0 15.5 -7t6.5 -18q0 -9 -2.5 -18t-9.5 -23q-25 -53 -42.5 -93t-28.5 -70t-16 -50.5t-5 -33.5q0 -30 22 -30q19 0 44 27.5t67 95.5l-1 -2l8 10q11 20 15 20q2 0 8.5 -7.5t6.5 -13.5q0 -4 -7 -17.5t-16 -31.5
q-12 -20 -26.5 -39t-28.5 -35q-40 -43 -83 -43q-53 0 -53 61q0 24 7 58.5t25 94.5z" />
    <glyph glyph-name="i" unicode="i" horiz-adv-x="210" 
d="M92 429q-17 0 -27 7.5t-10 22.5q0 10 6.5 19t17 16t23 10.5t25.5 3.5q27 0 27 -25q0 -10 -5.5 -20t-14.5 -17.5t-20 -12t-22 -4.5zM-31 102q0 60 21 140q20 81 39 106q8 11 23 17.5t35 6.5q16 0 16 -12q0 -6 -8 -26l-10 -26l-9 -26q-59 -161 -59 -204q0 -40 33 -40
q10 0 26.5 8.5t37 25.5t43 44t43.5 64q1 11 6.5 15.5t11.5 4.5t11 -3.5t5 -9.5q0 -30 -19.5 -64t-49 -63t-64 -48t-64 -18.5t-49 25.5t-19.5 83z" />
    <glyph glyph-name="j" unicode="j" horiz-adv-x="148" 
d="M-67 6q16 73 33.5 132t29.5 105l9 43q11 43 21.5 66t28.5 23q14 0 18.5 -4.5t4.5 -13.5q0 -17 -5 -39t-12.5 -46.5t-15.5 -50.5t-15 -50q-12 -43 -22 -91.5t-22.5 -96t-28.5 -91.5t-40 -77.5t-57.5 -53.5t-79.5 -20q-30 0 -56.5 8t-47 21t-32 29.5t-11.5 34.5q0 11 9 11
q16 0 36 -13.5t43.5 -26t49.5 -17t53.5 13t55 65.5t53.5 139zM129 490q0 -11 -5.5 -22t-14.5 -20t-21 -15t-24 -6q-32 0 -32 27q0 20 18 36.5t42 16.5q23 0 30 -3.5t7 -13.5z" />
    <glyph glyph-name="k" unicode="k" horiz-adv-x="343" 
d="M9 132q-8 -23 -16 -51.5t-16 -58.5q-13 -58 -27 -58q-13 0 -22 7.5t-9 17.5q0 6 32 110l24 80q37 125 63 210.5t42 133.5q19 60 31.5 93.5t21.5 49.5t16.5 19t16.5 3q23 0 25 -10t-5 -25.5t-17.5 -33.5t-13.5 -34q-13 -33 -27 -71t-29 -83.5t-31.5 -100.5t-35.5 -123
q6 5 16.5 14t22.5 19.5l24 21t21 18.5v-1q127 109 151 109q12 0 13.5 -6t-3.5 -15t-15.5 -18.5t-22.5 -15.5q-36 -20 -63.5 -50t-56.5 -59q14 -100 36 -147.5t48 -47.5q21 0 39.5 16t34 37.5t27 44t19.5 35.5q21 26 27.5 18t1.5 -31.5t-20 -54t-37 -49.5q-23 -29 -56.5 -46
t-60.5 -17q-35 0 -59 31q-27 34 -65 151z" />
    <glyph glyph-name="l" unicode="l" horiz-adv-x="279" 
d="M92 279q12 19 31.5 54t41.5 78t44.5 91.5t42 94.5t34 86.5t19.5 68.5t-1.5 40t-28.5 0q-66 -146 -108.5 -277t-74.5 -236zM18 149q16 66 39.5 149t50.5 169.5t56 171.5t56 156q1 13 8 23.5t15.5 17.5t17.5 10.5t16 3.5q12 0 26 -7t25.5 -17.5t19 -23.5t7.5 -25
q0 -59 -76 -230q-38 -86 -87.5 -173.5t-111.5 -181.5q-9 -48 -9 -80q0 -52 10.5 -73t36.5 -21q16 0 33.5 17.5t34.5 42t32.5 50.5t28.5 44t22.5 22.5t14.5 -15.5l1 3l-4 -11v2q-22 -42 -36.5 -70t-22.5 -39q-17 -27 -37 -47t-38 -29t-41 -9q-17 0 -33 9.5t-28.5 25t-20 36
t-7.5 41.5q0 16 -1 29t2 29z" />
    <glyph glyph-name="m" unicode="m" horiz-adv-x="475" 
d="M297 84q0 29 54 184l3 9q-23 -26 -47 -62.5t-54 -82.5q-66 -128 -96 -128q-34 0 -34 34q0 10 7 44t20 89q7 21 8 47q-35 -33 -60 -74t-45 -83q-17 -33 -33.5 -55.5t-26.5 -22.5q-27 0 -39.5 11.5t-12.5 38.5q0 8 8.5 39.5t25.5 86.5h-1q11 31 19 57.5t15 49.5l6 22
q6 22 10.5 35.5t9 20t9 8.5t10.5 2q13 0 18.5 -7t6 -17.5t-2.5 -21.5t-8 -19q-16 -26 -28 -59t-21 -68t-16 -69.5t-14 -63.5q55 93 86.5 147.5t53.5 80.5q25 29 50 50.5t36 21.5q8 0 13.5 -8.5t8.5 -20.5l-10 -20q-17 -48 -30.5 -100.5t-22.5 -109.5q27 57 57 107.5t59 90
t56 67t47.5 38.5t32.5 3.5t12 -36.5q0 -5 -4 -13t-18 -28q-16 -24 -31 -53t-26 -63v1q-13 -33 -18.5 -56.5t-5.5 -38.5q0 -40 30 -40q10 0 19 4.5t19.5 16t24 32t33.5 52.5l19 38q12 18 21 15t9 -14q0 -8 -14 -36t-35 -63h1q-58 -88 -96 -88q-35 0 -55 23t-13 55z" />
    <glyph glyph-name="n" unicode="n" horiz-adv-x="363" 
d="M175 237q-29 -20 -47.5 -48.5t-37.5 -62.5l-15 -27q-53 -102 -75 -102t-35.5 13.5t-13.5 37.5q0 16 5.5 46t17.5 75q23 96 55 169q10 24 19 32t23 8q12 0 22 -6t10 -15q0 -2 -7 -17q-29 -60 -50.5 -124t-32.5 -133q52 85 90.5 145t66 98t45.5 56t29 18q17 0 26.5 -9
t9.5 -23q0 -9 -3 -11t-9 -12t-15.5 -34t-22.5 -76q-13 -47 -21.5 -91t-8.5 -68q0 -19 5.5 -30t18.5 -11q28 0 93 110l15 26l3.5 7t3.5 8q2 4 5 7t5 3q5 0 12 -6t7 -11q0 -6 -8.5 -23.5t-22.5 -44.5q-16 -27 -33 -51.5t-35 -42.5q-25 -25 -51 -25q-30 0 -47 25.5t-17 73.5
q0 23 5 59t16 87z" />
    <glyph glyph-name="o" unicode="o" horiz-adv-x="303" 
d="M231 230q26 8 41.5 22.5t32.5 34.5l14.5 14.5t16.5 13.5t14 4.5t6 -11.5q0 -20 -16 -40.5t-37.5 -37.5t-44 -28.5t-35.5 -13.5q-29 -106 -75 -161.5t-105 -55.5q-42 0 -67 28t-25 75q0 23 5.5 51t16 58t25.5 60.5t34 59.5q38 62 76 62q57 0 88.5 -29.5t34.5 -105.5z
M12 67q0 -53 40 -53q43 0 87 85q43 80 43 159q0 22 -9.5 35.5t-25.5 13.5q-39 0 -89 -85q-46 -81 -46 -155z" />
    <glyph glyph-name="p" unicode="p" horiz-adv-x="290" 
d="M10 82q4 -24 19.5 -39t36.5 -15q30 0 53 25t47 82q18 44 27.5 85.5t9.5 73.5q0 53 -31 53q-16 0 -45 -17.5t-55 -56.5q-23 -38 -34.5 -85.5t-27.5 -101.5v-4zM77 371q30 33 61.5 41t56.5 -4.5t41 -43.5t16 -77q0 -110 -58 -205q-54 -90 -116 -90q-11 0 -23 1.5t-24 7
t-22 15t-16 25.5q-15 -82 -25.5 -133.5t-17 -85.5t-10.5 -57.5t-6 -50.5q-1 -11 -10 -14t-19.5 -0.5t-19 10.5t-8.5 20q0 9 2 20.5t6.5 29.5t10 44.5t13.5 64.5q16 77 36.5 162t46.5 180q4 15 8 27t12 26t23.5 34.5t41.5 52.5z" />
    <glyph glyph-name="q" unicode="q" horiz-adv-x="351" 
d="M158 89q-51 -45 -81.5 -68.5t-56.5 -25.5q-27 -2 -45 35q-12 14 -17.5 28t-7.5 29q-3 56 31 130.5t104 167.5h-1q9 15 29 21.5t44 6t49 -8t43 -20.5t26.5 -31t0.5 -40q-24 -73 -48 -148t-43.5 -150t-31.5 -149.5t-12 -144.5q-1 -7 -10.5 -13t-26.5 -7q-12 -1 -16 9
t-4 25.5t3 34t7 36.5t7.5 32.5t3.5 20.5q8 42 21 98.5t32 131.5zM151 182q25 46 40 89.5t14 62.5q-1 13 -11 22.5t-22 8.5q-19 -1 -47 -27t-56 -69q-30 -48 -46 -91t-19.5 -75t5 -48.5t27.5 -10.5t48 38.5t67 99.5z" />
    <glyph glyph-name="r" unicode="r" horiz-adv-x="298" 
d="M34 373q-20 14 -20 23t6 19t15.5 18t22 13t25.5 5q11 0 18 -6t7 -14q0 -11 -10 -45l65 -19q7 13 17.5 26t23.5 13q14 0 26.5 -9t12.5 -18q0 -7 -6 -15.5t-21 -20.5q-44 -75 -67 -140.5t-23 -118.5q0 -21 8 -35.5t21 -12.5q12 1 24.5 14t25.5 31.5t26 40t24.5 40.5t21 33
t17.5 18q5 2 10 -3.5t5 -10.5q0 -8 -11 -31.5t-31 -56.5h1q-21 -33 -37.5 -55t-31.5 -35t-29 -18.5t-30 -5.5q-35 0 -54 21.5t-19 59.5q0 82 62 234l-58 16q-26 -65 -45 -106.5t-31 -65.5t-17.5 -33.5l-5.5 -9.5q-18 0 -21 12t6.5 41t30.5 77t50 120z" />
    <glyph glyph-name="s" unicode="s" horiz-adv-x="189" 
d="M-60 64q15 -12 27 -20t24 -13.5t24.5 -9.5t29.5 -9q6 17 5 43t-5.5 53t-10 53t-7.5 43q-23 -32 -43 -67.5t-44 -72.5zM-100 32q-13 -11 -20 -15t-9 -4q-7 0 -7 20q3 2 7 5t8 8q30 43 54.5 78t44 71.5t34.5 78t27 97.5v5.5t1 6.5l1 1q0 32 20 32q14 0 40 -16q19 -9 19 -15
q0 1 -2 -1q-14 -17 -23 -28t-14.5 -22t-8 -26.5t-2.5 -41.5q0 -54 21 -135q5 -20 7.5 -33.5t3 -23t0.5 -16v-13.5q0 -21 -10 -37.5t-26 -26.5t-35.5 -12t-37.5 7q-25 12 -42 26.5t-30 19.5z" />
    <glyph glyph-name="u" unicode="u" horiz-adv-x="382" 
d="M170 77q-42 -46 -72.5 -62t-58.5 -16q-27 0 -47 23q-24 24 -24 59q0 57 25 141q23 85 62 159q7 14 14.5 20t17.5 6q17 0 17.5 -13t-10.5 -39q-43 -90 -62 -160.5t-19 -110.5q0 -25 14.5 -31.5t32.5 -6.5t35 17t37 54t44 95.5t56 141.5q11 26 19.5 35.5t17.5 9.5
q10 0 14.5 -5.5t5.5 -13.5t-1 -16.5t-4 -14.5q-15 -45 -29 -83t-25 -71t-18 -62t-7 -56q0 -41 18.5 -46.5t44 12.5t51.5 53.5t41 77.5q0 1 0.5 2.5t0.5 2.5v-1q6 18 13 18q5 0 13 -6t8 -11q0 -8 -22 -52t-49 -83q-21 -31 -42 -43.5t-45 -12.5q-29 0 -48 14t-19 55
q0 2 -0.5 6.5t0.5 13.5z" />
    <glyph glyph-name="v" unicode="v" horiz-adv-x="298" 
d="M27 38q37 61 67.5 115.5t55 99.5t43 78.5t31.5 53.5q12 18 20 28.5t14.5 16t12 7.5t13.5 2q16 0 17 -2t1 -6q0 -1 0.5 -7t-12.5 -20l1 1q-70 -107 -121 -199.5t-91 -174.5q-11 -20 -22 -29t-37 -9q-28 0 -34 10q-8 11 -8 77q0 127 25 218q24 85 45 85q14 0 19.5 -7
t5.5 -15l-12 -26.5t-23.5 -71t-17 -103t6.5 -122.5z" />
    <glyph glyph-name="w" unicode="w" horiz-adv-x="435" 
d="M154 94q-38 -57 -69 -89.5t-57 -32.5q-13 0 -25.5 7t-22.5 19t-16 28t-6 34q0 21 4 48.5t12 58.5t18.5 63t24.5 64q16 37 25.5 49t21.5 12q14 0 20 -7t10 -21q-16 -32 -30 -72t-25 -79.5t-17.5 -73t-6.5 -50.5q0 -30 19 -30q25 0 56 62v-1q15 27 42 88.5t68 158.5
q4 4 7 4q8 0 16 -1t13.5 -4t7.5 -8.5t-3 -14.5q-23 -51 -30 -104t-7 -108q0 -35 20 -35q14 0 32 21t35.5 54t34 74t29.5 80.5t20 73.5t6 53q-1 10 13 12.5t27 2.5q7 0 6 -16.5t-7 -39.5t-14 -49t-13 -45q-11 -44 -26.5 -84.5t-32.5 -75.5q-24 -50 -51.5 -80.5t-52 -36.5
t-45 15.5t-31.5 75.5z" />
    <glyph glyph-name="x" unicode="x" 
d="M85 100q-8 -10 -23 -25.5t-31.5 -32t-32.5 -30t-26 -19.5q-14 -5 -18 -5q-10 0 -17.5 6t-7.5 12q0 10 16 22.5t38 31t43.5 45t32.5 64.5q-15 49 -18 87.5t-3 55.5q0 14 2 26.5t15 23.5q21 1 27 -14.5t7.5 -38t3 -46.5t13.5 -39q29 33 47.5 55.5t30.5 37.5t21 25t19 19h-1
q38 32 53 32q10 0 17 -5.5t7 -10.5q0 -6 -9.5 -20.5t-36.5 -31.5q-13 -12 -21.5 -21t-19.5 -23t-28.5 -37.5t-47.5 -63.5q11 -60 31.5 -96t37.5 -36q6 0 16.5 9t24 25t28.5 38t29 48l17 33q8 15 16 20t14 4t9.5 -6t3.5 -11q0 -4 -6 -18t-17 -37q-21 -47 -54 -86
q-45 -61 -101 -61q-35 0 -57 20.5t-44 73.5z" />
    <glyph glyph-name="y" unicode="y" horiz-adv-x="333" 
d="M136 77q-38 -42 -66 -61t-49 -19q-12 0 -21 9.5t-15 23t-9.5 27t-3.5 22.5q0 48 10 97t27 95q40 92 68 92q3 0 9.5 -3t12.5 -8t8.5 -11.5t-2.5 -14.5q-18 -38 -34 -73.5t-28.5 -67.5t-19.5 -58.5t-7 -45.5q0 -24 19 -24q12 0 37 19t52 63q32 54 57.5 110.5t37.5 114.5v-1
q6 41 39 41q16 0 28.5 -13.5t0.5 -42.5q-75 -138 -105 -322q-6 -48 -21.5 -90t-41 -73.5t-62 -49.5t-86.5 -18q-21 0 -44 7t-42.5 21t-32.5 34t-13 47q0 24 21 24q5 0 11.5 -16t20.5 -34t38 -30.5t65 -6.5q30 5 50 14t35 33t28 68.5t28 120.5z" />
    <glyph glyph-name="z" unicode="z" horiz-adv-x="361" 
d="M43 41q10 -5 22 -5t24 2.5t24 6t23 6.5q50 10 63 10q20 0 31.5 -7t11.5 -19q0 -9 -11 -10q-30 -5 -54.5 -11.5t-48 -11.5t-48 -8.5t-54.5 -3.5q-22 0 -36.5 10t-14.5 25q0 20 76.5 107.5t238.5 234.5l-142 -17q-15 -2 -22.5 -2.5t-10.5 0.5t-4 2t-3 1q-3 0 -9 3t-10.5 7
t-6 8.5t4.5 6.5q36 15 66 23t55 11.5t47.5 3.5h43.5q20 0 34.5 -12.5t14.5 -26.5q0 -10 -18 -40.5t-74 -82.5q-58 -54 -115 -110t-98 -101z" />
    <glyph glyph-name="braceleft" unicode="{" horiz-adv-x="700" 
d="M577 934h-8h-13q-87 0 -119 -35q-33 -35 -33 -142v-165q0 -56 -6.5 -94.5t-21.5 -61.5q-26 -43 -136 -73q109 -30 136 -74q15 -23 21.5 -61t6.5 -95v-165q0 -104 33 -140q32 -35 123 -35h17v-66h-14q-66 0 -107 8t-67 25q-17 12 -30 27.5t-20 36.5h1q-7 22 -11 57t-4 85
v167q0 55 -9.5 92.5t-30.5 61t-55 34t-82 10.5q-2 0 -6.5 -0.5t-8.5 -0.5q-1 0 -2.5 -0.5t-2.5 -0.5v66h7h13q48 0 82 10.5t55 34t30.5 61.5t9.5 93v166q0 51 4 87t11 57h-1q14 41 50 61q27 17 67 25.5t107 8.5h14v-65z" />
    <glyph glyph-name="bar" unicode="|" horiz-adv-x="700" 
d="M383 1060v-1380h-66v1380h66z" />
    <glyph glyph-name="braceright" unicode="}" horiz-adv-x="700" 
d="M375 760v-166q0 -55 9.5 -93t30.5 -61.5t55 -34t83 -10.5h14h7v-66h-2l-3 1q-5 0 -9.5 0.5t-6.5 0.5q-49 0 -83 -10.5t-55 -34.5t-30.5 -62t-9.5 -92v-166q0 -51 -4 -87t-11 -58h1q-14 -41 -49 -62q-25 -17 -63.5 -24.5t-107.5 -7.5h-18v66q3 0 2.5 0t4.5 -1
q5 0 8.5 -0.5t5.5 -0.5q87 0 119 35q33 36 33 143v164q0 111 27 156q29 42 136 74q-108 30 -136 73q-14 23 -20.5 62.5t-6.5 93.5v165q0 108 -34 142q-33 35 -122 35h-17v65h14q68 0 108.5 -8t67.5 -25q34 -21 48 -62h-1q7 -22 11 -57.5t4 -86.5z" />
    <glyph glyph-name="asciitilde" unicode="~" horiz-adv-x="1166" 
d="M1036 433q-131 -93 -255 -93q-28 0 -59 6.5t-68 17.5v-1l-60 21q-68 23 -121.5 36.5t-87.5 13.5q-29 0 -57 -5.5t-58.5 -17.5t-64.5 -31t-73 -46v67q69 48 133 71t121 23q18 0 36.5 -1.5t40.5 -6.5t51 -13.5t68 -22.5q13 -4 25 -9q115 -42 176 -42q28 0 56.5 5.5t59 17
t64 30.5t73.5 46v-66z" />
    <glyph glyph-name="logicalnot" unicode="&#xac;" horiz-adv-x="1166" 
d="M983 577v-323h-59v263h-740v60h799z" />
    <glyph glyph-name="endash" unicode="&#x2013;" horiz-adv-x="2758" 
d="M603 301q-9 6 -14.5 17l-10.5 21q-2 8 -6.5 21.5t-4.5 14.5v234h42v-246q0 -2 7.5 -11t12.5 -13q1 -2 6 -6.5t5 -6.5q4 -3 13.5 -7.5t11.5 -4.5q4 -1 14.5 -1.5t22.5 -0.5t22.5 0.5t14.5 1.5q2 0 11.5 4.5t12.5 7.5q1 2 6 6.5t7 6.5q4 4 11 13t7 11v246h43v-246
q0 -1 -3 -7t-6.5 -14t-7.5 -16t-7 -12q-1 -2 -5.5 -7t-6.5 -6q-4 -3 -12 -7t-15.5 -7.5t-14 -6.5t-7.5 -3q-6 -1 -20 -1.5t-30 -0.5t-30 0.5t-20 1.5q-1 0 -7 3t-14 6.5t-16 7.5t-12 7zM1749 290q-5 1 -14.5 5.5t-11.5 5.5q-3 4 -10.5 11t-15 15t-14.5 14.5t-9 9.5
t-5.5 10.5t-7.5 15t-7 14t-3 9.5q-1 3 -1.5 14.5t-0.5 25.5t0.5 27t1.5 19q0 1 1.5 6t3 11t3.5 12t4 9q2 4 6 13t5 10q3 3 9.5 10.5t14.5 15.5t15 14.5t10 8.5q2 2 11.5 7t14.5 6q3 1 9 3.5t12 4.5l10.5 3.5l4.5 1.5q4 0 14.5 0.5t22.5 0.5t22.5 -0.5t14.5 -0.5
q1 0 5.5 -1.5l10.5 -3.5t12 -4.5t10 -3.5l12 -6t12 -7q8 -4 22 -12.5t16 -10.5q1 -2 4.5 -7t7 -11t7 -11.5t4.5 -8.5q4 -5 8.5 -18.5t4.5 -18.5t0.5 -19t0.5 -30t-0.5 -30t-0.5 -19q0 -2 -1.5 -7t-3.5 -11t-4 -11t-4 -8q0 -1 -3.5 -6t-7 -11t-7.5 -11.5t-5 -8.5
q-2 -2 -7 -6.5t-6 -5.5q-3 -1 -9.5 -4.5t-14.5 -7.5l-15 -7.5t-10 -4.5q-6 -3 -20.5 -8t-17.5 -5q-4 0 -14.5 -0.5t-22.5 -0.5t-22.5 0.5t-14.5 0.5l-4.5 1.5l-10.5 3.5l-12 4t-9 4zM2131 290q-5 0 -14 5t-11 6q-3 3 -8.5 8t-11.5 11t-11 11.5t-6 7.5q-3 4 -7 11t-8 15
t-7 14.5t-3 8.5q-1 7 -1.5 24.5t-0.5 37t0.5 37t1.5 24.5q0 1 3 7.5t7 14.5t8 15.5t7 11.5q2 3 11.5 12.5l12.5 12.5q3 2 8.5 6t11.5 8t11 7t7 3q2 1 8.5 3t14.5 4t15.5 3.5t10.5 2.5q4 0 12.5 0.5t18.5 0.5t18.5 -0.5t11.5 -0.5q3 -1 10.5 -2.5t15.5 -3.5t14.5 -4t8.5 -3
q4 -1 18 -10t20 -14l12.5 -12.5t11.5 -12.5q3 -4 7 -11.5t8 -15.5t7 -14.5t3 -7.5q1 -7 1 -24.5v-37v-37t-1 -24.5q0 -2 -3 -8.5t-7 -14.5t-8 -15t-7 -11q-2 -2 -6.5 -7.5t-10.5 -11.5l-11 -11l-8 -8q-2 -1 -11.5 -5.5t-14.5 -5.5q-3 -2 -9 -4l-12 -4l-10.5 -3.5l-4.5 -1.5
q-4 0 -14.5 -0.5t-22.5 -0.5t-22.5 0.5t-14.5 0.5q-5 0 -23 5t-26 8zM0 591v18h259v-18h-105v-301h-49v301h-105zM431 609q2 0 11.5 -4.5t12.5 -8.5q4 -2 13.5 -11t11.5 -12q2 -4 6.5 -18t6.5 -20q1 -2 1 -11.5t-1 -12.5q-2 -2 -6.5 -11.5t-6.5 -13.5q-2 -3 -7 -10
t-11 -14.5t-11 -14.5t-7 -10q4 -7 14.5 -24.5t22.5 -37t22 -37l14 -24.5q2 -2 6.5 -12t5.5 -12q-4 -2 -18 -2t-18 2q-1 0 -4.5 3t-7.5 7t-7.5 8t-5.5 6q-5 6 -15.5 21.5t-22.5 33t-22.5 33.5t-14.5 22h-54v-134h-44v319h136zM1084 609v-18h-136v-111h110q2 0 7 -6.5t6 -11.5
q1 -2 1 -9.5t-1 -8.5h-123v-123h161l-13 -31h-185v319h173zM1294 609q1 0 10.5 -4.5t12.5 -8.5q4 -2 13 -11t13 -12l6.5 -13t5.5 -13v-23q0 -2 -5 -11.5t-7 -14.5q-1 -2 -5.5 -7t-9 -11t-8 -11.5t-3.5 -6.5q1 -2 6.5 -8t12 -12t12.5 -11.5t7 -6.5t2.5 -6t3.5 -10.5t3.5 -11
t1.5 -8.5q2 -5 2 -14t-2 -11q0 -2 -3.5 -9t-7 -14.5t-7.5 -15t-5 -10.5q-2 -2 -6.5 -7t-6.5 -6q-5 -2 -14 -6.5t-11 -4.5h-160v319h149zM1471 609v-270l19 -18h123q1 -2 1 -10t-1 -10q-2 -2 -6 -6.5t-5 -4.5h-185v319h54zM2611 609q1 0 7.5 -3t14.5 -6.5t15.5 -7.5t11.5 -7
q2 -2 7.5 -6.5t11 -10.5t10.5 -12t7 -9q2 -1 6.5 -10l6.5 -13q1 -3 3.5 -9t4.5 -12t3.5 -11t1.5 -6q0 -4 0.5 -14.5t0.5 -22.5t-0.5 -22t-0.5 -14q0 -1 -1.5 -6t-3.5 -11t-4.5 -12t-3.5 -9q-2 -4 -6.5 -14t-6.5 -10q-2 -3 -7 -8.5t-10.5 -11.5t-11 -11t-7.5 -6
q-4 -3 -11.5 -7t-15.5 -7.5t-14.5 -6.5t-7.5 -3h-172v319h172zM1194 326q4 0 13 -0.5t18.5 -0.5t18.5 0.5t12 0.5q2 0 11 5t14 8q10 6 16 16.5t8 19.5q1 2 1 6.5t-1 6.5q0 3 -5 12.5t-6 12.5q-2 1 -6.5 5.5t-6.5 5.5q-5 2 -19 6.5t-19 6.5q-4 1 -18 1t-18 -1q-3 -2 -8 -6.5
t-5 -6.5v-98zM1761 339q3 -3 13 -8t11 -5q4 0 14.5 -0.5t22.5 -0.5t22.5 0.5t14.5 0.5q2 0 11.5 5t13.5 8q4 2 13.5 12t10.5 12q3 3 7 10.5t8 15.5t7 15t3 9q1 4 1.5 14t0.5 22t-0.5 22.5t-1.5 14.5q0 2 -3 8.5t-7 14l-8 15t-7 11.5q-1 3 -10.5 12.5t-13.5 12.5t-13.5 8
t-11.5 5q-4 0 -14.5 0.5t-22.5 0.5t-22.5 -0.5t-14.5 -0.5q-1 0 -11 -5t-13 -8l-25 -25q-1 -2 -6 -11.5t-7 -12.5q-1 -3 -2.5 -9t-3.5 -12l-3.5 -10.5l-1.5 -4.5q-1 -7 -1 -25.5t1 -25.5l1.5 -4.5l3.5 -10.5t3.5 -12t2.5 -9q2 -5 7 -14t6 -11q3 -2 12.5 -12t12.5 -12z
M2155 339q3 -3 12.5 -8t12.5 -5q4 0 12.5 -0.5t18.5 -0.5t18.5 0.5t11.5 0.5q4 0 13 5t13 8q2 1 7 6.5t10.5 11.5t11 11t7.5 7q3 3 8 12.5t5 12.5q0 5 0.5 19t0.5 30t-0.5 30t-0.5 19q0 4 -5 13t-8 13l-12 12t-15.5 16t-14 14t-7.5 7q-5 1 -17.5 2t-26 1t-26 -1t-17.5 -2
q-1 -1 -7.5 -7t-14 -14t-15.5 -16l-12 -12q-3 -4 -7.5 -13t-4.5 -13q-1 -5 -1.5 -19t-0.5 -30t0.5 -30t1.5 -19q0 -3 4.5 -12.5t7.5 -12.5q1 -2 6.5 -7t11.5 -11l11.5 -11.5t7.5 -6.5zM2500 326q4 0 12.5 -0.5t18.5 -0.5t18.5 0.5t12.5 0.5q5 2 19 6.5t17 6.5t10.5 8.5
t15.5 14.5t14.5 15.5t8.5 10.5q1 1 3 6t4 11t4 11t2 8q1 7 1 25.5t-1 25.5q0 3 -2 8t-4 11t-4 10.5t-3 6.5q-1 1 -5.5 6.5t-10.5 11.5t-11.5 11t-8.5 7q-1 2 -11 6.5t-14 6.5q-3 1 -9 3.5t-12 4.5l-10.5 3.5t-5.5 1.5q-3 0 -10 0.5t-14.5 0.5t-14.5 -0.5t-10 -0.5v-247z
M344 462q4 0 15 1.5t22.5 3.5t22 4t15.5 4q1 0 5.5 4.5l6.5 6.5q3 4 8 13.5t5 11.5q0 3 0.5 8.5t0.5 11.5t-0.5 10.5t-0.5 5.5q-2 4 -11.5 13t-13.5 13q-2 1 -7 2.5t-11 3.5t-11 4t-8 2q-5 2 -19 2t-19 -2v-123zM1194 462q6 -2 13 0l6 6t6 7q2 0 9.5 1.5t15.5 3.5t15 3.5
t9 2.5q5 2 14.5 11t11.5 14v36q0 2 -5.5 6.5t-7.5 6.5q-5 3 -14 8t-11 5q-3 0 -12 0.5t-18.5 0.5t-18.5 -0.5t-13 -0.5v-111z" />
    <glyph glyph-name="emdash" unicode="&#x2014;" horiz-adv-x="1922" 
d="M230 813v-268h152v268h195v-740h-195v287h-152v-287h-189v740h189zM970 813q2 0 10 -1t11 -3q2 0 10 -1.5t11 -3.5q17 -5 31.5 -13.5t28.5 -19.5q4 -1 9 -5t5 -6q4 -1 13 -11.5t13 -13.5q1 0 5 -5.5t6 -7.5q1 -2 5.5 -9t4.5 -9q1 -2 4 -7t3 -7l5 -15t6 -16q0 -3 1.5 -9.5
t2.5 -9.5v-8.5t0.5 -14t1.5 -14t2 -9.5q1 3 5 10.5t8.5 16.5t8 16.5t5.5 10.5q1 2 6.5 10t8.5 11q2 2 5.5 8t3.5 8q3 2 11.5 11t11.5 12q2 2 8 9t9 8q2 2 11.5 10.5t13.5 10.5q2 2 7 6.5t6 6.5q2 0 5.5 2t7.5 4l8 6q5 2 13.5 6.5t17.5 9t16.5 8.5t9.5 6q1 0 6.5 1.5t12 4
t13.5 4.5t10 2q2 2 7.5 3.5t8.5 1.5q3 1 9 2.5t8 1.5q6 1 16.5 2t12.5 1h78q2 0 11 -1t13 -2q26 -5 48 -12t45 -18q9 -4 19 -9t20 -12l7.5 -5t9.5 -6t9 -6t5 -4q3 -1 11.5 -8t11.5 -8q2 -2 7 -7.5t10.5 -11t10 -11t6.5 -7.5q2 0 7 -6.5t8 -10.5q8 -11 15 -22t15 -22
q1 -3 4 -9.5t6.5 -13.5t6.5 -12.5t4 -6.5q0 -1 1.5 -6.5t4 -12.5t4.5 -13.5t2 -9.5q2 -2 4.5 -13t4.5 -15q0 -4 0.5 -12t2.5 -9q0 -2 0.5 -8.5t1 -14l1 -15t1.5 -11.5v-9q-1 -4 -1.5 -12t-1 -15.5t-1 -14t-0.5 -7.5q-2 -2 -2.5 -10.5t-0.5 -10.5q-2 -4 -4.5 -15t-4.5 -14
q0 -1 -1 -5.5t-2.5 -10t-3 -10t-2.5 -6.5q-2 -2 -4.5 -9t-2.5 -8q-22 -46 -51 -83q-2 -3 -7.5 -10t-7.5 -7q-1 -2 -5 -6l-8.5 -8.5l-8.5 -8.5t-6 -5q0 -2 -8.5 -8.5t-12.5 -9.5q-2 -1 -7 -5.5t-7 -5.5q-2 -2 -6 -4t-7 -4q-4 -3 -8 -5q-4 -3 -12.5 -7.5l-17 -9t-16 -8.5
t-10.5 -4q-2 0 -8 -2t-12.5 -4.5t-12.5 -5t-9 -3.5q-2 0 -6.5 -1t-10.5 -2t-11.5 -2t-8.5 -1q-4 -1 -15 -2.5t-14 -1.5h-66q-2 0 -13.5 1.5t-15.5 2.5q-2 0 -9 1t-8 3q-5 0 -16 3t-13 3q-2 1 -10 3t-11 4q-2 2 -9.5 4t-9.5 4q-3 1 -9 4.5t-13 6.5t-12.5 6t-7.5 4
q-1 0 -5 2.5t-9 6l-10 7t-8 5.5q-2 2 -7 6t-7 5q-5 5 -17 15.5t-15 11.5q-1 3 -11 13t-14 15q-2 5 -10 15.5t-11 13.5q0 2 -4 8.5t-6 11.5q-2 1 -7.5 10t-7.5 14q0 -3 -1 -8.5t-2 -11.5t-2.5 -11.5t-1.5 -7.5q0 -4 -4 -16.5t-6 -17.5q-2 -1 -6 -9.5t-5 -10.5q-2 -3 -7 -11
t-6 -10l-8 -8l-10.5 -10.5l-10.5 -10.5l-7 -7q-4 -2 -16 -10.5t-18 -10.5q-1 -1 -7.5 -4.5t-14 -7.5t-15.5 -7.5t-12 -5.5q-2 0 -4 -1t-3.5 -1.5t-2.5 -1.5q-4 0 -15 -3t-13 -3q-4 -1 -11.5 -2.5t-9.5 -1.5h-330v740h351zM1785 102q1 2 5.5 6t5.5 4q2 1 10 1t11 -1
q2 0 4 -1.5t3 -2.5l3 -3q1 -2 1 -3v-21q0 -2 -2.5 -5t-4.5 -3q-3 -2 -12.5 -2t-12.5 2q-1 0 -5.5 4t-5.5 6v19zM1807 83q-1 2 -1 -1t1 -1q2 0 2 1t-2 1zM1796 98l-0.5 -2.5t-0.5 -5.5t0.5 -5.5t0.5 -1.5q2 3 2 8.5t-2 6.5zM1817 83l4 4v7q-1 0 -2 -1l-2 -2v-8zM1807 102
q-3 0 -3 -4t3 -4q4 0 4 4t-4 4zM1817 106q-3 0 -3 -4t3 -4t3 4t-3 4zM1813 106q2 2 -4.5 2t-5.5 -2q2 -3 5.5 -3t4.5 3zM809 244h100q3 0 12.5 0.5t12.5 1.5q1 0 5.5 1.5t5.5 3.5q1 0 4 1t3 3q2 1 8 6t6 6q1 2 5.5 10.5t5.5 10.5q0 2 1.5 8t2.5 8v5q-1 10 -3 16t-5 14l-2 4
q-1 2 -1 3l-18 18q-1 0 -3 1l-4 2q-1 2 -5.5 3t-5.5 1q-3 0 -9 2q-3 1 -5 2h-111v-131zM1445 265q4 -2 15.5 -4t13.5 -2q3 -1 11.5 -1.5t18.5 -0.5t19 0.5t14 1.5q2 0 8.5 0.5t9.5 0.5q4 2 12 4.5t9 2.5q4 2 14.5 8t15.5 8q2 2 10.5 7t10.5 7q1 1 5 5.5t9 9.5t10 9.5t8 7.5
q1 1 5.5 6.5t4.5 7.5q2 5 8.5 17.5t8.5 17.5q1 0 3 8t4 13q1 1 1.5 3.5t1.5 4.5q1 3 1 6t2 15.5t2 16.5v9q0 4 -2 16t-2 13q0 2 -1 7.5t-3 7.5q-2 5 -4 12.5t-3 8.5q-2 5 -8.5 18.5t-8.5 18.5q0 2 -4.5 7t-5.5 7q-2 2 -7.5 7t-11 11t-10.5 11l-7 7q-2 1 -5 2q-6 2 -7 4
q-2 1 -9 5.5t-9 5.5q-1 0 -3 2t-4 2q-3 2 -15 5.5t-16 3.5q-8 4 -15 4q-2 2 -12.5 3t-15.5 1h-14q-2 0 -13.5 -1t-14.5 -3q-2 0 -7 -1t-7 -3q-5 0 -13 -3t-9 -3q-4 -1 -14 -6.5t-13 -8.5q-5 -2 -12.5 -7t-9.5 -6q-1 -2 -5 -5.5t-8.5 -8t-9 -8.5t-5.5 -7q-2 0 -6 -6t-6 -7
q-1 -2 -1.5 -3.5t-2.5 -3.5t-3 -4q-14 -28 -21 -53q0 -3 -2 -11l-2 -8v-57q0 -1 2 -7.5t2 -9.5q2 -4 6 -16.5t6 -15.5q0 -1 2.5 -6.5t2.5 -7.5q2 -2 6 -9.5t5 -8.5q2 -2 6 -7t6 -7l4.5 -4.5l7.5 -7.5l7.5 -7.5t5.5 -4.5q0 -2 5.5 -5.5t8.5 -7.5q1 -1 5.5 -3t5.5 -2
q1 -2 9.5 -6t11.5 -5q1 -2 8 -4t9 -3zM1462 309q0 2 -7 4.5t-10 4.5q-2 0 -4 2t-3 2q-3 2 -11.5 7.5t-9.5 5.5q-2 3 -12 12.5t-13 12.5q0 1 -3 5.5t-4 5.5q-2 3 -7.5 14.5t-6.5 13.5q0 2 -1 4q-2 4 -4 6q0 2 -0.5 4.5t-0.5 4.5q-1 3 -1 6v51q0 1 1 4q0 2 0.5 4t0.5 4
q2 3 4.5 11.5t4.5 9.5q0 2 0.5 5.5t2.5 3.5q1 2 3.5 5t4.5 7q3 4 6 9q3 2 13 13t15 15l6 3t6 4t10 6t11 6q2 0 4 1q2 0 3 0.5t2 0.5q3 1 8.5 2.5t6.5 1.5h60q2 0 10.5 -3t12.5 -3q1 -2 9 -6l12 -6q1 -2 5 -4t4 -3q5 -4 17 -16t16 -17q1 0 3 -4t4 -5q2 -4 5.5 -12t3.5 -9
q0 -2 2.5 -6t2.5 -6q0 -3 2 -9q1 -3 2 -5v-57l-2 -6q-2 -6 -2 -7q0 -3 -2.5 -6t-2.5 -5q0 -3 -3.5 -11t-5.5 -10t-4 -6t-3 -5l-6.5 -6.5l-9.5 -9.5t-10 -9.5t-7 -5.5q0 -2 -4 -5t-5 -3l-12 -6t-9 -5q-2 0 -6 -1.5t-6 -3.5q-2 0 -4.5 -0.5t-4.5 -0.5h-5q-3 0 -11 -0.5
t-16.5 -0.5t-15.5 0.5t-10 0.5q-1 0 -8.5 0.5t-10.5 0.5zM1107 428q5 -3 14.5 -11t11.5 -10v100q-2 -2 -7 -7.5t-10.5 -11t-10.5 -11t-7 -7.5q-4 -3 -13 -9t-13 -7q4 -2 11.5 -8t9.5 -8q1 -2 3.5 -3t4.5 -3zM809 531h104q1 0 6.5 1t8.5 1q2 2 6.5 4.5t6.5 2.5q2 2 8 7.5
t7 8.5t3 6l2 4t1 4q2 1 3 6.5t1 8.5v17q0 1 -1 8t-3 9q0 2 -1 4l-2 4l-7.5 7.5t-6.5 5.5q-1 2 -6.5 4t-7.5 4t-7.5 2.5t-6.5 0.5h-108v-120zM1155 591q-3 0 -3 -3t3 -3t3 3t-3 3z" />
    <glyph glyph-name="quotedblleft" unicode="&#x201c;" horiz-adv-x="466" 
d="M391 889q14 0 16.5 -4t2.5 -18q0 -99 -17 -155.5t-46 -56.5q-11 0 -18.5 8.5t-7.5 22.5q0 11 3 32t11 51q7 30 12 52.5t7 38.5q3 29 37 29zM272 889q14 0 17.5 -5t3.5 -17q0 -97 -18 -154.5t-47 -57.5q-11 0 -18 8.5t-7 22.5q0 11 4 32t11 51q8 30 12.5 52.5t6.5 38.5
q1 17 9 23t26 6z" />
    <glyph glyph-name="quotedblright" unicode="&#x201d;" horiz-adv-x="466" 
d="M356 664q-14 0 -20 3t-6 15q0 14 11.5 53.5t29.5 86.5q8 21 14.5 34t12.5 20.5t12.5 10t15.5 2.5q12 0 20 -7t8 -20q0 -15 -26 -72l-36 -90q-2 -2 -4 -10q-9 -26 -32 -26zM237 664q-16 0 -21.5 3t-5.5 15q0 13 12 53t30 87q8 21 14.5 34.5t12.5 20.5t12 9.5t14 2.5
q28 0 28 -29q0 -15 -24 -70l-36 -90q-2 -2 -4 -10q-9 -26 -32 -26z" />
    <glyph glyph-name="quoteleft" unicode="&#x2018;" 
d="M272 889q14 0 17.5 -5t3.5 -17q0 -97 -18 -154.5t-47 -57.5q-11 0 -18 8.5t-7 22.5q0 11 4 32t11 51q8 30 12.5 52.5t6.5 38.5q1 17 9 23t26 6z" />
    <glyph glyph-name="quoteright" unicode="&#x2019;" 
d="M237 664q-16 0 -21.5 3t-5.5 15q0 13 12 53t30 87q8 21 14.5 34.5t12.5 20.5t12 9.5t14 2.5q28 0 28 -28q0 -16 -24 -73l-36 -88q-2 -2 -4 -10q-9 -26 -32 -26z" />
    <glyph glyph-name="T" unicode="T" horiz-adv-x="594" 
d="M336 744q-2 0 -5.5 -0.5t-14.5 -1.5l-33 -3t-60 -5q-29 -2 -43 -3t-16 -1q-16 0 -25 13t-9 34q0 13 118 31h-1q129 18 306 18q84 0 117.5 -9t33.5 -32q0 -8 -19.5 -12.5t-48.5 -6.5t-62.5 -3t-61.5 -2t-46 -3t-15 -7q-39 -113 -75 -219t-67 -203q-30 -96 -52.5 -168.5
t-36.5 -123.5q-11 -42 -20.5 -53.5t-25.5 -11.5q-18 0 -28.5 9.5t-10.5 25.5q0 14 15 72.5t42 154.5q29 100 66.5 225.5t77.5 284.5z" />
    <glyph glyph-name="space" unicode=" " 
 />
    <glyph glyph-name="exclam" unicode="!" horiz-adv-x="357" 
d="M155 234q-1 -24 -8.5 -33t-27.5 -9q-28 0 -28 11q0 26 10.5 82.5t33.5 146.5q23 93 51.5 184t61.5 182v-1l3 7q40 102 78 102q18 0 31.5 -11t13.5 -23q0 -5 -15 -27l-82 -239zM62 -3q-53 0 -53 34q0 31 29 60q31 29 57 29q31 0 31 -46q0 -31 -19 -54t-45 -23z" />
    <glyph glyph-name="bullet" unicode="&#x2022;" horiz-adv-x="1180" 
d="M206 -162q1 1 3 2h19v9q0 1 -2 3t-3 2q-2 0 -7 1.5t-7 3.5h-23q-1 0 -1 1t1 1q0 2 6 3.5t8 2.5q2 0 9 2t8 4q2 0 4 3.5t2 4.5q-2 3 -7 12t-7 12v4q1 1 2.5 4.5t2.5 5.5q0 1 8.5 4t9.5 4q2 2 5.5 9.5t4.5 8.5q0 2 1.5 3.5l2.5 2.5l9 4l10 20q0 1 2 5.5t2 6.5v5
q-11 -6 -23 -9q-1 0 -1 2t1 2q0 2 1.5 5.5t1.5 4.5q2 0 6 -0.5t5 0.5q2 0 2.5 4.5t2.5 5.5q1 1 7 6t8 7h-6q-1 0 -4.5 -1.5t-7.5 -3l-8 -3t-5 -1.5q-1 -1 -5.5 -1t-6.5 1l23 28v4q-3 5 -5 5q-2 2 -10.5 5.5t-12.5 3.5h14q5 -1 9 -2q8 -2 10 -2q1 2 4.5 4.5t4.5 4.5q2 2 4 11
t2 12q1 -2 9.5 -9t11.5 -10q2 -2 7.5 -4.5t6.5 -4.5h6l-38 38q-4 4 -9 4q-2 -1 -5.5 -5.5t-3.5 -8.5q-2 -1 -1 -9t1 -10l-2 -2q-2 -2 -3 -2q-3 -5 -5 0q-2 0 -3 2t-3 2q0 1 1 4.5t-1 5.5q0 1 -5.5 4.5t-6.5 4.5l-5 5h10v5q-1 2 -4.5 4.5t-5.5 4.5q2 1 5.5 4t4.5 4v14
q0 1 -2 3.5t-3 2.5l9 5q0 -1 1.5 -5t1.5 -6q1 -1 2 -1t2 -1l2 -2q1 0 4.5 2.5t5.5 1.5q1 0 6.5 -5.5l8.5 -8.5q0 -2 1 -4l2 -4h4q1 0 2.5 -2.5t3.5 -2.5v-4q0 -3 1 -4q0 -1 1 -1q2 0 6 1.5t6 3.5q-5 -3 0 -5q2 -2 7 -8t7 -6q2 -2 8.5 -3.5t9.5 -1.5q4 0 4 5q1 0 1 2t-1 2
q0 2 -1.5 6t-2.5 4l-90 88h-3v-20q-1 -1 -4 -8t-5 -10l-5 -3q-1 -1 -4.5 -1t-4.5 1v-19q-2 0 -3.5 2t-2.5 2l-2 4q-1 2 -1 6q-3 2 -5 0v-10q1 -2 4 -9.5t4 -8.5q0 -1 -2 -3q-1 -1 -1 -2h-5q-2 0 -4.5 -2t-4.5 -2v13q-1 1 -2 4.5t-2 5.5t-4.5 5t-5.5 3q-1 1 -2.5 1t-1.5 -1
q-1 0 -2.5 -2t-3.5 -2q-1 0 -2.5 -4.5t-2.5 -5.5q0 1 -2 2.5t-2 3.5q-2 1 -2 2.5t2 1.5q2 2 7.5 8t7.5 7q0 2 3.5 2t4.5 -2q3 3 0 3l-4 4q3 5 11 17t12 17q1 1 2.5 4.5t2.5 5.5q-1 0 -5.5 1t-5.5 1q0 2 -1.5 6t-1.5 6q-1 0 -1 1t1 1q0 3 1 4l2 2h6q3 0 13 -2t15 -4
q5 0 13.5 -1t9.5 -1q2 -2 13 -6t14 -6q2 0 12.5 -4t12.5 -4h9q-2 2 -7 7.5t-7 6.5q-1 0 -5.5 1.5l-9 3t-8.5 2.5l-4 1q-1 2 -5.5 4t-5.5 2q-2 1 -8.5 3.5t-14 5.5t-14.5 5.5t-9 3.5q-5 2 -16.5 7t-16.5 7q-1 2 -4.5 3t-3.5 3q-3 1 -9 4t-6 4q-3 3 0 6l2 4q1 2 2 3
q1 2 2.5 9.5t2.5 9.5v6q-1 -2 -6.5 -7.5t-7.5 -6.5q-1 -1 -4 0v14q-2 -1 -5 -4.5t-3 -5.5q-2 -2 -2 -9t2 -9l-6 3l-0.5 5.5t-0.5 12.5t0.5 14t0.5 11l2 4q1 2 4 5q0 1 3.5 4.5l4.5 4.5l4 -4q2 0 4 4q1 2 1 5q-2 2 -4.5 9t-4.5 9q0 1 -4 2.5t-4 2.5q-2 0 -4 2q-1 1 -2 3v9
q3 -2 6 0q0 2 2 7t2 7h-10q2 2 5.5 11t4.5 12v24l-14 -28q-1 1 -3.5 4.5t-2.5 4.5q-1 2 0 5l6 4v28q1 0 4.5 2t5.5 2q0 1 1.5 1t2.5 -1v14l-2 4q-2 4 -2 6v32l-16 -13v9l-26 32q-2 0 -2 2t2 4l4 2q2 5 0 5q0 1 -4 6.5t-6 7.5v5q2 2 5.5 3t4.5 3l-24 21q-3 2 0 5q1 2 2 3
q2 2 2 3q2 0 2 1.5t-2 1.5q-1 0 -1 1t-0.5 1t-0.5 1l-2 2q-1 0 -1 2.5t1 3.5l4 4q-1 2 -6 4.5t-6 4.5q-3 3 -12.5 12t-11.5 11t-5 9.5t-5 9.5v56q1 1 2.5 5.5t3 10t3 10t1.5 6.5v4q-1 0 -4.5 -2t-5.5 -2q0 -2 -2 -2t-2 2q0 1 2 4.5t2 5.5v4q2 1 7 6.5t9 7.5q1 0 3 1q4 2 5 2
t3.5 1t4.5 2q3 1 5 2q2 2 5.5 2t3.5 -2q2 0 11.5 -3.5t14.5 -4.5q0 -2 3 -3q2 -1 4 -1q1 -2 12 -6t13 -4q0 -1 2 -3q1 -1 2 -1v-20l-2 -4l-2 -4q-2 -4 -4 -11.5t-2 -8.5v-36q1 -4 1.5 -12.5t1.5 -18.5t1.5 -18.5t1.5 -11.5q0 -1 1.5 -10t2.5 -12q0 -5 2 -11.5t2 -8.5
q2 0 2.5 -2t1.5 -2q3 0 10 -0.5t15.5 -1.5t16 -1.5t10.5 -1.5t7 -3q3 -2 6 -3.5l5 -2.5q5 -2 13 -7t10 -7q3 -2 8.5 -6.5t5.5 -5.5q1 -4 1 -13t-1 -13q-3 -1 -6 -3q-6 -4 -8 -5t-3 -1t-3 -1t-3 -2l-18 18q-1 0 -2.5 -2t-2.5 -4q-2 -2 -4 -9t-2 -9l2 -2q1 -1 4 -1q2 -1 7 -3
t7 -2q-2 -2 -11.5 -2t-11.5 2q-2 0 -7 3.5t-7 4.5q-1 -13 0.5 -25t2.5 -25q1 -3 2.5 -12.5t3.5 -11.5q0 -1 2 -6t3 -7q0 -2 2 -6t4 -8.5t4.5 -8.5t3.5 -5q0 -1 3.5 -6.5t5.5 -7.5q1 -2 4.5 -6.5t7 -10t7 -10t4.5 -5.5q1 -2 2.5 -4.5t3.5 -4.5q2 -3 3 -5l4 -8t6 -13
t5.5 -13.5t2.5 -7.5q1 -1 2.5 -4.5t3.5 -5.5q1 -3 4.5 -8.5t7.5 -11.5t7 -11t3 -6q1 0 5.5 -3.5t4.5 -5.5q3 -4 7.5 -10.5t6.5 -7.5q1 -2 2.5 -14t1.5 -14q1 -1 2 -4.5t2 -5.5h6v16h5q2 -2 7 -5.5t6 -4.5q1 -2 4 -4t4 -2h16q2 1 4 3q2 1 3.5 2t2.5 1q1 1 10.5 4.5t11.5 5.5
q5 1 15 6.5t12 7.5q1 0 6.5 6t7.5 8q1 0 4.5 2t4.5 3q2 0 3 1q1 0 1.5 0.5t1.5 0.5q5 5 13 16.5t9 12.5q2 5 10.5 15t9.5 13q0 2 2 9t2 9q-2 -1 -7 -1t-7 1q-1 2 -2.5 6.5l-2.5 7.5v4l2 10q1 4 3 9q0 3 0.5 14.5t1.5 25t1.5 25t0.5 14.5q1 3 2 8.5t1.5 11.5t1.5 10.5t1 6.5
l2 4q1 2 1 3.5t1 2.5q0 2 3.5 11.5t5.5 10.5q1 1 5 8t8.5 15t9 15.5t5.5 9.5q1 1 4.5 9t3.5 12v5q1 3 4.5 14t5.5 14q2 -1 7 -6.5t7 -7.5q2 -1 6 -6.5t4 -7.5q1 -2 1.5 -6.5t0.5 -5.5q1 -3 1 -8.5v-11.5v-11t-1 -7h6v-6q-1 -1 -6 -9t-7 -9q0 -1 -2 -4.5t-3 -5.5l-2 -2
q-2 -2 -4 -2q-1 -1 -6.5 -8.5t-7.5 -9.5q0 -2 -3.5 -7.5t-4.5 -6.5q-2 -3 -9 -12t-9 -11h5q2 0 5.5 1.5t3.5 3.5q3 2 11.5 10.5l11.5 11.5q0 1 3.5 6.5t5.5 7.5q3 5 7.5 13.5t4.5 10.5q2 3 6.5 10.5t9 16t8.5 16.5t6 11q1 5 6 15t5 15v-16q2 2 6 9.5t5 9.5t2 7t2 11t1.5 11
t0.5 8t-0.5 10.5t-1.5 16t-2 15.5t-2 10q-1 0 -2.5 2t-2.5 2q-1 1 -2 6t-2 10.5t-2 10.5t-1 6q0 2 -4.5 9t-5.5 10q-3 3 -5 6q-2 2 -3.5 4t-1.5 3t-2 4.5t-4 5.5q-1 2 -6 10t-11.5 17.5t-11.5 18t-6 10.5t-3 9t-2 9h5q2 -2 2.5 -6t0.5 -5q2 0 3 -1.5t3 -1.5v36q0 -1 1 -1
t1 -0.5t1 -0.5l2 -2q1 -2 2 -7.5t2 -11.5t2 -11t1 -6q1 3 1 12v19v19.5t-1 13.5q0 2 -0.5 10t-1.5 10q-2 0 -3.5 -2.5t-1.5 -3.5v-24h-5q0 2 -2 11.5t-4 12.5q0 3 -1.5 7t-1.5 6h-3h-2q0 1 -2 2.5t-4 2.5q0 2 -2 4.5t-2 4.5v5h4q2 0 2 2t-2 4q0 1 -3.5 2t-4.5 1l4 5q0 1 4 1
h9.5h11.5t9 -1q2 -1 5 -2q2 -1 4.5 -2t4.5 -1q1 0 4 -1.5t4 -1.5q15 -10 28 -18.5t24 -19.5q0 -1 3.5 -6t4.5 -8q2 -2 7.5 -12t6.5 -12l2 -2l2 -2v4q0 2 -2.5 8.5t-6 14t-7 14t-5.5 9.5q-1 2 -10.5 8.5t-14.5 10.5q-3 2 -8 5.5t-11 7.5t-11.5 7t-7.5 3q-1 2 -6.5 3.5
t-7.5 1.5q-1 0 -6 0.5t-11 1l-12 1t-7 1.5q-2 1 -13.5 5.5t-14.5 5.5h-4q-4 -2 -4 -6q1 -1 4 -4.5t4 -4.5q2 -2 7.5 -9t7.5 -8q2 -2 3.5 -6t1.5 -5q1 -2 1 -7t-1 -7l-3 -3l-2 -2q-2 2 -5 7.5t-4 6.5q-2 4 -7.5 11.5t-6.5 7.5q-2 3 -7.5 8t-11.5 11l-11 11t-8 7h10
q1 0 7.5 -2t7.5 -3h4q2 1 11.5 2.5t11.5 2.5l-42 13q4 3 6 7t3 7q2 -1 5 -2t5 -1q2 -1 16 -0.5t16 0.5q1 0 3 -1l4 -2l6 -2q1 -2 7 -2t8 2q-4 1 -14 6.5t-14 7.5t-4 5q-1 3 -1 11.5t1 9.5h-11l-6 2l-4 2l-4 2t-5.5 2.5t-7.5 3.5t-9 4v4h28q0 1 1 5.5t3 4.5q0 1 6 1.5t9 2.5
h4q2 0 7.5 -1.5t5.5 -2.5q1 0 9 -2.5t9 -2.5l10 -5l8 -4q2 0 4 -4.5t2 -5.5q0 -2 -2 -4t-4 -2q5 -1 20 -6t20 -6h12q2 5 -2.5 9t-2.5 9q2 -2 8 -6.5t7 -6.5q0 -1 1.5 -5.5t2.5 -4.5l13.5 -9t14.5 -9q0 -1 7 -2.5t7 -2.5q1 -1 1 -5q0 -2 -1 -4q2 -1 9 -8.5t9 -9.5
q0 -1 4.5 -3.5t5.5 -2.5l25 -25q8 -8 16 -17v-4h-4v-5l16 -20q7 -8 14 -17t12 -14l4 -4q2 8 -2 15.5t-2 16.5l14 -28q0 -1 2 -6.5t2 -7.5q1 -3 2.5 -6.5t3.5 -7.5l4 -8q0 -1 2.5 -4.5t5.5 -7.5t6 -7.5t4 -4.5q0 -1 3 -5t6 -8.5t6 -8.5t4 -5q1 -2 7 -8t13.5 -13t13.5 -13
l8 -8t4 -7t3 -7q2 -2 4 -7.5t2 -7.5v-31q0 -3 -2 -14.5t-4 -14.5v-14q2 -2 6 -4.5t4 -4.5q2 -2 8 -9t8 -9q1 -2 4 -9t4 -10q1 -2 4.5 -13.5t3.5 -13.5q2 -3 5.5 -12t4.5 -12q2 -2 5.5 -9.5t3.5 -8.5q1 -1 4.5 -5t7 -8.5l7 -9t4.5 -5.5q2 -2 5.5 -11t3.5 -11q1 -2 1 -9.5
t-1 -9.5l-3 9q-2 -2 -6 -9t-4 -9v-10q3 0 14 -2t14 -2h10q2 -5 4 -5q0 1 1 2q2 2 2 3h11v-5q-2 -1 -7 -2.5t-7 -1.5h-50q0 -1 1.5 -5.5t3.5 -4.5q1 -1 5.5 -4t9.5 -6l10 -6t6 -3q2 -2 5.5 -4.5t4.5 -4.5q1 -1 2 -6.5t2 -7.5q0 -1 -0.5 -8.5t0.5 -9.5t3.5 -6t5.5 -8.5t6 -8.5
t3 -5q2 -2 5.5 -11t4.5 -11v-10q-1 1 -3 2t-2 2q0 2 -1.5 5.5t-3.5 4.5q-2 2 -5 7l-6 10q-4 5 -7 11h-10q2 0 4 1.5t2 2.5q0 2 -2 4.5t-4 4.5q-1 1 -10 12t-12 16q-1 1 -3.5 2.5t-2.5 2.5q-3 2 -9.5 6.5t-8.5 6.5q-1 1 -4 2.5t-4 2.5h-6v-5q2 -2 4.5 -6.5t4.5 -6.5
q7 -8 15.5 -15.5t16.5 -12.5v-5q0 -2 1 -6.5t2 -9.5t2 -11q0 -1 4.5 -6.5t5.5 -7.5t1.5 -2t1.5 -1l1 -1q2 0 5.5 1t4.5 3l-2.5 -5t-1.5 -5v-4q1 -3 3.5 -11t5 -17t5 -17t4.5 -11q4 2 9 0q0 -1 1 -1.5t2 -2.5l2 -4q0 -2 -2 -4t-3 -2h-12v-45l-21 -11q2 0 3.5 -2t2.5 -2
t4.5 -2t7 -4.5l7 -5l3.5 -2.5q1 -2 3.5 -3t4.5 -3q3 -2 6 -3q2 -1 7 -6.5t7 -7.5h-5q-1 1 -5 3.5t-8.5 5.5t-8.5 6t-5 4q-4 1 -10.5 4.5t-7.5 3.5t-4.5 -1.5t-5.5 -2.5q0 -1 -2 -3q-1 -1 -2 -1q-2 -2 -7.5 -4.5t-6.5 -4.5l-6 -3l-4 -2h-3l-10.5 -7t-8.5 -7q1 -2 8.5 -5.5
t10.5 -4.5l10 -4q10 -4 11 -5q2 0 3 -1l3 -3q1 -1 2.5 -4.5t1.5 -5.5q2 -3 2 -13.5t-2 -12.5h-4q-1 -2 -5.5 -5.5t-5.5 -4.5q-2 -2 -5.5 -8t-3.5 -7q2 -2 3 -4q2 -4 3 -5q1 -3 6.5 -7t7.5 -5q2 -2 11 -8t10 -8q2 -1 4.5 -2t4.5 -3q3 -2 6 -5q5 -3 12 -9l14 -12q8 -7 16 -15
v-42h-5q-1 0 -9.5 4.5t-20 10.5t-23.5 12.5t-20 10.5q-1 0 -6.5 3.5t-7.5 4.5q-1 0 -3.5 2t-2.5 4q-4 3 -14.5 8.5t-11.5 5.5q-5 1 -19 1t-19 -1v4h-6q-1 0 -4 -1.5t-4 -2.5v4h-6q-1 -2 -1 -4q-1 -2 -1 -6q-2 -1 -2.5 -10t-2.5 -12v-6q0 -1 1.5 -4t3.5 -3q0 -4 1 -15t1 -16
q2 -2 2 -10.5t-2 -10.5q0 -2 -1 -9.5t-1 -9.5q-1 3 -1.5 9t-1 12.5t-1 11.5t-1.5 7t-2.5 8t-2.5 8q-1 1 -2.5 6.5t-3 11.5t-3 11t-1.5 7t-1.5 3t-2.5 3q-2 -3 -5.5 -10.5t-4.5 -9.5q-1 -1 -4 -2.5t-4 -1.5t-3 -2q-1 -1 -2 -1q-2 -3 -5 -10t-4 -9v-6h14q-2 -1 -7.5 -6
t-6.5 -7v-9q0 -2 2 -8t2 -8v-8h-39v14l-7 -14h-111q1 0 4 2t4 3l5 3v20q-2 1 -4.5 1t-2.5 -1q-2 0 -6 -2t-6 -2q-1 -2 -8.5 -11.5t-9.5 -12.5q-1 -2 -6.5 -2t-7.5 2q-1 1 -2.5 4t-0.5 4l-11 -3q3 5 6 11.5t5 11.5q-2 -2 -5.5 -4.5t-5.5 -4.5q-1 -2 -4.5 -9.5t-3.5 -9.5h-6
q-1 0 -2.5 2t-2.5 3v9l5 -6v20q0 1 2 3t4 2l4 -5q0 2 1.5 9t2.5 9q2 1 6 7t5 7q0 1 1.5 5t1.5 6l-8 -5q-2 0 -2 2t2 3q0 2 2 4l3 3q2 2 4 6t3 4h6q0 3 2 14t2 14v4q-2 2 -10.5 3t-11.5 1h-20q-1 2 -1 7.5t1 6.5q2 2 7.5 3.5t6.5 2.5q2 0 6 3t5 3q2 0 7 -1t6 1q1 0 4 1t4 3
q2 1 3.5 4t2.5 4q7 -12 8 -24v38q0 2 2.5 9.5l3.5 10.5q1 1 4 8t4 9q0 1 1.5 3t3.5 2l5 -10l4 5q1 3 4.5 9.5t7 13.5t7 13.5t5.5 9.5v5l-4 5v5l-10 -5q2 2 5.5 9l4.5 9q2 8 6 20.5t7.5 24t6 20.5l2.5 9v6q-1 -2 -4.5 -5.5l-4.5 -4.5q-2 -3 -7.5 -10.5t-5.5 -9.5
q-1 -1 -4.5 -10t-5.5 -11v-5q-1 -2 -2.5 -9.5t-2.5 -10.5q-2 -2 -2.5 -7.5t-2.5 -5.5q-1 -2 -7.5 -11.5t-6.5 -11.5q-11 -20 -17 -41t-11 -43h-4q-1 0 -4.5 -1.5t-5.5 -3.5q-1 2 -1.5 7.5t-2.5 6.5v6l10 -6q-1 4 -1 10.5t1 8.5q0 1 3.5 2.5t4.5 1.5v5h-14v5q2 9 6 17t8 15
h-4l-2.5 -3.5t-5.5 -9t-5.5 -11t-3.5 -8.5q-1 -2 -1 -11t1 -12q-1 0 -3 2t-2 4q-2 1 -6 10t-4 12q-1 0 -4.5 -2t-5.5 -3q-1 -2 -1 -5.5t1 -4.5h-8q-2 0 -5.5 2t-4.5 3q-2 1 -8 3l-6 2q-1 0 -4.5 -1.5t-3.5 -3.5q1 2 4 5.5t4 4.5q1 2 4.5 2.5t5.5 1.5q3 2 13 5.5t15 4.5v4
q-3 0 -12 -1t-12 -3q-1 0 -9.5 -2t-10.5 -3h-14q-1 2 -1 4q-1 2 -1 5q0 2 -1.5 7.5t-3.5 6.5q-1 2 -5 5.5t-6 3.5q-1 1 -4 1t-4 -1q-2 0 -7.5 -4.5t-6.5 -4.5q-2 -1 -9 -1t-9 1q1 2 0 5q-2 1 -7 6.5t-7 7.5q-1 1 -5.5 4t-9 6.5t-8.5 7t-5 4.5q-2 1 -5.5 5.5t-4.5 4.5
q-2 1 -6.5 9t-6.5 9l-10 10q-1 1 -4 6.5t-5 7.5q0 1 -3.5 2.5t-5.5 2.5v-11q0 -2 1.5 -9.5t2.5 -8.5q1 0 3 -5t4.5 -10.5t4.5 -10.5t2 -6q2 -2 3.5 -10.5t2.5 -12.5v-46l-4.5 -9t-5.5 -10q-1 -2 -6.5 -7t-7.5 -6q-1 -1 -6.5 -5.5t-7.5 -4.5h-4q-1 0 -9.5 3t-10.5 1
q-1 0 -7.5 -5t-8.5 -9q-2 -2 -6 -5t-8 -6.5t-7.5 -6.5t-4.5 -4q-1 -2 -2.5 -7t-1.5 -7q-1 0 -4.5 1.5t-5.5 2.5v10q2 1 5.5 4.5t4.5 5.5v54h-4v-22q-2 0 -5 -2t-3 -4q-2 -1 -5.5 -8.5t-4.5 -9.5l10 4v-4q0 -1 -2.5 -4t-2.5 -4l-3 -3q-1 -1 -2 -1q-2 -2 -7.5 -2t-6.5 2
q-2 -2 -2 -4t2 -2q0 -1 2 -4.5t2 -5.5q1 -3 1 -13t-1 -15q2 2 5 7.5t5 6.5q0 2 2 3t3 1t2 -1l3 -3v-14q0 -1 -4 -6.5t-6 -7.5q-2 -1 -7.5 -6.5t-6.5 -7.5q-2 -2 -3 -9t-3 -9l-2 -2l-2 -2h-22q-2 0 -6 6l-6 9v31q0 1 -0.5 7t-0.5 13t-0.5 13.5t-0.5 8.5v6q-2 1 -4 6t-2 6
q-1 2 -2 11.5t-2 12.5q0 -3 -1.5 -12.5t-1.5 -11.5q-1 -1 -3.5 -6t-2.5 -6v-12l9 12v-12l1 -4t1.5 -8.5t1 -8.5t0.5 -5v-41q0 -2 -1.5 -6t-2.5 -5q1 1 4.5 1t5.5 -1l2 -4q2 0 2 -2t-2 -2q0 -2 -1 -6t-1 -6q-2 -1 -1 -6t1 -6q-2 -2 -5.5 -4.5t-4.5 -4.5v-11q1 0 4.5 -1.5
t5.5 -1.5v-5h-97l3.5 7l3.5 7zM312 -165q0 -1 1 -2q2 -2 2 -4q1 -1 1 -4t-1 -4h-3v14zM700 -171q-3 2 -3 -1t3 -2q2 0 2 1.5t-2 1.5zM806 -165q-2 -3 0 -6h6q1 2 4 5.5t3 5.5h-4q0 -1 -4.5 -2.5t-4.5 -2.5zM321 -155q3 0 3 -5t-3 -5q-5 0 -5 5t5 5zM182 -155h-11v4z
M592 -139q3 -1 3 -7.5t-3 -8.5q0 -1 -0.5 2t-0.5 6.5t0.5 6.5t0.5 1zM140 -146q3 0 3 -4.5t-3 -4.5q-5 0 -5 4.5t5 4.5zM237 -141q-4 0 -4 -5t4 -5t4 5t-4 5zM176 -141h-5l5 2v-2zM704 -133q-3 0 -3 -4t3 -4t3 4t-3 4zM118 -123h2l5 -4l-5 -6q-1 1 -1 2q-1 1 -1 4v4z
M668 -127q3 0 3 -6t-3 -6q-5 0 -5 6t5 6zM134 -123q5 0 5 -5t-5 -5q-3 0 -3 5t3 5zM787 -123q-3 0 -3 -5t3 -5q4 0 4 5t-4 5zM162 -119q2 1 4.5 5t4.5 6t6 2.5t5 0.5q1 -1 2 -1l2 -2q0 -2 2 -6t2 -5q-2 1 -9 1t-10 -1l-4 -4h-5v4zM598 -119q4 0 4 -4t-4 -4q-5 0 -5 4t5 4z
M770 -121l4 -2l2 -2l2 -2q0 1 2.5 4t2.5 4q2 2 7 7.5t7 6.5h5q2 0 2 4t-2 6l-2 2q-1 0 -1 0.5t-1 0.5t-1 1q-3 4 -5 7q-2 2 -3.5 4t-1.5 3t-5 6l-4 4h-8l2 -2q2 -2 2 -4v-4q-1 -3 -3 -7.5t-5 -6.5v4q-2 -1 -6 -2.5t-5 -1.5h-5q-2 1 -8.5 7t-7.5 7q-2 0 -2 -2t2 -2
q1 -5 5.5 -14t6.5 -10l8 -6q3 -2 6.5 -4t5.5 -4zM797 -123v4h-5zM839 -108q-2 -2 -2 -8t2 -7h-5q2 0 4.5 2t4.5 2q1 1 3 1t2 -1q2 0 4.5 -2t4.5 -2h4q1 0 3.5 1.5t2.5 2.5q1 2 1.5 8.5t2.5 9.5q0 4 0.5 12t1.5 17t1.5 16.5t0.5 10.5h10q0 2 -1.5 5.5t-2.5 4.5h-6v13q0 1 1 2
q0 1 2 3q1 2 3 4v5q-1 0 -6 5l-4 4q-4 6 -4 10h-33q-1 -2 -4.5 -5t-4.5 -5h-6q0 2 -4 4q-2 1 -3 2h-6q2 -3 11 -12.5t12 -11.5q1 -1 6.5 -4t7.5 -4q2 -2 9.5 -5.5t8.5 -4.5l6 -6v-14q0 -2 -2.5 -6.5t-3.5 -5.5q0 -2 -4 -5.5t-4 -4.5q-1 -2 -3 -7t-4.5 -10l-4.5 -9t-2 -5z
M140 -113q1 1 4.5 2.5t5.5 2.5l4 -11h-14q-2 2 0 6zM120 -108q4 0 4 -5.5t-4 -5.5q-2 0 -2 5.5t2 5.5zM209 -108q4 0 4 -5.5t-4 -5.5q-5 0 -5 5.5t5 5.5zM280 -108q-5 0 -5 -5.5t5 -5.5q2 0 2 5.5t-2 5.5zM778 -108q4 0 4 -5.5t-4 -5.5q-3 0 -3 5.5t3 5.5zM162 -108
q-1 -5 -4 0q0 2 3 2t1 -2zM203 -105q5 0 5 -4t-5 -4q-2 0 -2 4t2 4zM806 -105q-3 0 -3 -4t3 -4q5 0 5 4t-5 4zM130 -91q1 4 2 7l2 7q2 2 5.5 5t4.5 5h6q-2 -3 -5.5 -12.5t-4.5 -11.5q-1 -1 -3.5 -4.5t-2.5 -5.5q-1 -1 -1.5 -2.5t-2.5 -1.5h-5v10zM783 -95q1 -2 2.5 -3
t1.5 -3v-4l-9 10h5zM881 -105q2 0 5 4t4 6v8q-8 -6 -9 -14v-4zM171 -95q4 0 4 -5t-4 -5q-3 0 -3 5t3 5zM246 -101q1 1 4.5 5t7 7.5l7 7l4.5 4.5q1 2 3 5t2 5v12q0 2 -2 3.5t-3 2.5q-2 -1 -4.5 -4.5t-4.5 -5.5q-1 -1 -3 -6.5t-2 -7.5q1 2 4.5 6t5.5 4h4q0 -1 -2 -4.5t-2 -5.5
q-2 -2 -11.5 -11t-11.5 -11zM825 -87q0 -1 2 -4t2 -4q1 3 1 12t-1 10q0 5 -2 15q-1 4 -2 9h-6v-14q0 -2 2 -11.5t4 -12.5zM158 -81q3 0 3 -5t-3 -5t-3 5t3 5zM616 -81q0 1 2 2.5t4 1.5l-6 -10v6zM718 -77q-3 0 -3 -5t3 -5t3 5t-3 5zM140 -73q-5 0 -5 -4t5 -4q3 0 3 4t-3 4z
M158 -55v10q2 2 4.5 8t4.5 8q0 -2 2 -3.5t2 -2.5q1 -1 0.5 -7t-0.5 -7q1 -1 3 -7t2 -7q2 0 2 -2t-2 -2q0 -2 -2 -3t-3 -3l-9 18h-4zM630 -59q5 0 5 -4t-5 -4t-5 4t5 4zM881 -55q-5 0 -5 -4t5 -4q3 0 3 4t-3 4zM186 -49q3 0 3 -5t-3 -5t-3 5t3 5zM228 -49q-1 -3 -2.5 -3
t-2.5 3q-2 2 2.5 2t2.5 -2zM644 -45q5 0 5 -5t-5 -5q-3 0 -3 5t3 5zM728 -45q-5 0 -5 -5t5 -5t5 5t-5 5zM140 -41q3 0 3 -4t-3 -4q-5 0 -5 4t5 4zM214 -41q2 0 2 -4t-2 -4q-4 0 -4 4t4 4zM760 -41q-4 0 -4 -4t4 -4q5 0 5 4t-5 4zM939 -41q-1 0 -1 -1q-1 -1 -1 -3h12
q1 1 6.5 3t11.5 4.5t11.5 5t7.5 3.5q1 0 6.5 2t7.5 2q2 1 5.5 2t5.5 1h-20q-1 0 -6.5 -1.5t-12 -3.5t-13 -4.5t-10.5 -3.5q0 -1 -4 -2.5t-6 -3.5zM917 -35q-3 0 -3 -5t3 -5t3 5t-3 5zM228 -29q3 0 3 -6t-3 -6q-4 0 -4 6t4 6zM242 -29q2 -2 2 -4t-2 -2q-2 -1 -2 2.5t2 3.5z
M654 -29q0 -2 1.5 -3.5t1.5 -2.5t-1.5 -1t-1.5 1q-2 0 -3 2t-1 4h4zM867 -25q0 -2 -2.5 -2t-3.5 2q0 1 3 1t3 -1zM913 -3q0 -3 2 -11.5t2 -10.5v22q0 2 -1.5 7t-2.5 7v-14zM144 -22q-1 -2 -2.5 -2t-1.5 2q-1 2 2.5 2t1.5 -2zM325 -17q-3 0 -3 -4t3 -4t3 4t-3 4zM857 -22
q-4 -4 -4 0q0 2 2 2t2 -2zM237 -13q4 0 4 -4.5t-4 -4.5t-4 4.5t4 4.5zM848 -13q4 0 4 -4.5t-4 -4.5t-4 4.5t4 4.5zM176 -8q5 0 5 -4.5t-5 -4.5q-4 0 -4 4.5t4 4.5zM329 -8q-3 0 -3 -4.5t3 -4.5t3 4.5t-3 4.5zM843 -13q0 -2 -2 -2t-2 2q-2 4 1.5 4t2.5 -4zM875 -8q5 0 5 -4.5
t-5 -4.5q-3 0 -3 4.5t3 4.5zM150 1l-6 -4v4h6zM365 1q5 0 5 -4.5t-5 -4.5q-2 0 -2 4.5t2 4.5zM1037 1q5 0 5 -4.5t-5 -4.5q-4 0 -4 4.5t4 4.5zM843 1q0 -2 -2 -2t-2 2q-2 4 1.5 4t2.5 -4zM399 11q1 -1 4.5 -2t3.5 -2h10q0 1 2 2t2 2q-2 2 -10.5 3t-11.5 3h-4q0 -2 1.5 -4
t2.5 -2zM997 11q-5 0 -5 -5t5 -5q2 0 2 5t-2 5zM1023 11q-2 2 -2 -1.5t2 -2.5q6 2 0 4zM329 17q0 -6 4 -6v18q0 2 -2 5.5t-2 4.5v-22zM437 20q-2 2 -5 0t-1 -3q2 -2 4.5 -0.5t1.5 3.5zM802 20q-4 0 -4 -4.5t4 -4.5q3 0 3 4.5t-3 4.5zM815 20q-2 0 -2 -4.5t2 -4.5q3 0 3 4.5
t-3 4.5zM861 24q-2 1 -2 -4t2 -3q3 1 3 4t-3 3zM907 24q-2 1 -2 -4t2 -3q3 1 3 4t-3 3zM1016 29q0 -2 1.5 -6.5t1.5 -5.5q2 0 5.5 1.5t4.5 1.5q0 1 1.5 4t1.5 5q1 2 1 5.5t-1 4.5q0 1 -2 3l-1 1h-18q-3 -1 0 -4q0 -1 2 -5.5t3 -4.5zM668 24q3 0 3 -3.5t-3 -3.5q-5 0 -5 3.5
t5 3.5zM812 24q-5 0 -5 -3.5t5 -3.5q2 0 2 3.5t-2 3.5zM848 24q-4 0 -4 -3.5t4 -3.5t4 3.5t-4 3.5zM171 29q4 0 4 -4.5t-4 -4.5q-3 0 -3 4.5t3 4.5zM196 39v18h-6q-1 0 -4.5 -1t-3.5 -3q-1 -1 -5 -4.5t-6 -5.5q1 2 2.5 5.5t2.5 4.5q2 2 8 6.5t6 6.5q2 1 2 4.5t-2 5.5h6
q0 -5 4 -5q2 0 4.5 1.5t4.5 3.5q-2 -2 -4 -5t-2 -5l2 -4q1 -2 4 -5q1 0 4 -3.5t4 -5.5l-3 -5l9 5q1 -2 1 -7t-1 -7l-5.5 -5.5t-3.5 -4.5v5h-5q-2 -1 -4.5 -2.5t-4.5 -2.5h3v19zM616 29q0 -3 -2 -3t-4 3q0 2 3 2t3 -2zM890 43q-1 -2 -1 -7t1 -7q2 0 6.5 1.5t6.5 3.5
q0 1 2 4.5t2 4.5l14 14q2 2 6 9.5t5 9.5q2 1 7 9t6 10t4.5 8.5t3.5 8.5q-1 1 -6.5 1t-7.5 -1q-1 -1 -1 -2q-1 -1 -1 -2q-3 -3 0 -4q0 -2 1 -4.5t1 -4.5q-1 -2 -4.5 -6t-8 -8.5t-8.5 -9t-5 -5.5q-2 -2 -7.5 -4.5t-6.5 -4.5h-4q-2 0 -6 -1t-4 -3v-5h10q-5 0 -5 -5zM937 39
q0 -2 6 -6l6 -4q2 -1 5.5 -1t4.5 1q2 0 5 4.5t3 5.5q2 2 2 7t-2 7q0 4 -2 4h-6q-1 0 -4.5 -1t-5.5 -3l-4 -5h-18q1 -2 4.5 -4.5t5.5 -4.5zM242 39l-5 -5v5h5zM802 39q0 -1 1.5 -3t2.5 -2q2 1 3.5 4.5t2.5 4.5q0 2 -0.5 5.5t0.5 4.5q0 2 3 8.5t4 9.5q0 2 2 2.5t4 2.5h4
q1 -2 4.5 -7.5t5.5 -6.5q0 -1 2 -3l2 -2q1 2 1 7t-1 7q0 2 -2 7.5t-2 6.5q-2 2 -2 3.5t2 1.5l18 18q1 -7 -2.5 -11.5t-1.5 -11.5q1 2 4 7t4 7t4.5 9.5t5.5 9.5q0 1 4 4t6 4q1 1 4.5 3.5t4.5 2.5q0 1 2.5 2.5t2.5 2.5q1 2 4 6.5t4 6.5q-2 -2 -10.5 -5.5t-11.5 -4.5h-6l28 29
h-13q-2 -1 -9 -5t-10 -6q-2 -1 -7.5 -4t-6.5 -4q-2 3 -2 14t2 14q0 1 9.5 5.5t14.5 6.5q1 2 4.5 1t4.5 -1q2 2 8.5 10t8.5 10q2 1 2 5t-2 6q-1 -2 -5.5 -2t-6.5 2q-2 0 -6 5t-4 8q0 -3 -1.5 -9.5t-2.5 -8.5q0 -2 -4 -6l-6 -6q-2 0 -5.5 -1t-4.5 -1q-1 -2 -4 -2t-4 2
q1 2 6.5 10.5t7.5 10.5q1 2 4 6t6.5 8.5t7 8.5t5.5 6h-5q-2 0 -7.5 -2t-6.5 -2l24 21h4q1 1 2 5.5t2 5.5v60q0 2 -1.5 6.5t-2.5 6.5q0 1 -3.5 6.5t-5.5 7.5t-6 7.5t-8.5 11.5t-8.5 11.5t-6 7.5v56q-1 -2 -4 -9.5t-4 -10.5v-18q0 -5 -1.5 -11.5t-3.5 -6.5h-5q-2 3 -6 10
t-8.5 15t-8.5 15t-5 10q0 2 -2 4q-1 1 -1 2q-6 0 -10 -6v6q2 1 2.5 4t1.5 4q-1 -1 -4 -2t-5 -1q-2 -1 -5.5 -1t-4.5 1q0 -1 2 -5l3 -6q3 -2 5 -4q4 -4 5 -4q2 -2 2.5 -5.5t1.5 -4.5v-4q-1 -3 -3 -8t-4 -10.5t-4 -9.5t-3 -5t-10 -13t-12 -20q-2 -2 -8 -9.5t-7 -8.5
q-2 -2 -5.5 -4.5t-3.5 -4.5q-1 -1 -3 -4.5t-2 -5.5q-2 -1 -4.5 -6.5t-2.5 -7.5q-2 -2 -8.5 -10t-14 -17.5t-14 -17.5t-7.5 -9q-1 -2 -4 -7t-4 -7l59 59q0 1 2 4.5t3 4.5q2 2 4.5 5.5t4.5 4.5q0 -4 -1.5 -14.5t-3.5 -13.5q0 -1 -2 -11.5t-2 -12.5v-5h4q2 1 3.5 7t1.5 8
t2 12.5t3 15.5v4q0 2 2 10.5t4 8.5v5q0 1 2.5 5.5t5.5 10t5.5 10t3.5 6.5q1 0 2.5 4.5t1.5 5.5l8 12t7 11q2 0 2.5 2t1.5 2q2 2 3.5 7t2.5 7l3 -4q-1 -2 -3.5 -7.5t-5.5 -11.5t-5.5 -11.5t-3.5 -6.5q0 -2 -2.5 -9t-2.5 -10q-1 -4 -1 -14.5t1 -13.5q0 2 2.5 9t2.5 9
q2 4 5 15.5t4 13.5q2 2 5.5 9t3.5 9q1 0 4.5 4.5t5.5 4.5q-2 -3 -7 -15t-6 -17l-3.5 -7t-2.5 -7v-5q2 -1 5.5 -1t3.5 1q1 2 4.5 9.5t5.5 9.5q1 0 1 1t1 2l2 2q1 2 3 4.5t2 4.5q2 -2 5.5 -4.5t3.5 -4.5q1 -1 1 -7t-1 -8q0 -2 -5.5 -12t-8.5 -15q0 -1 -2 -3l-2 -2v18
q-4 -5 -10.5 -18.5t-8.5 -18.5q-1 -1 -4.5 -6.5t-4.5 -7.5v-8q2 1 7.5 4.5t7.5 3.5q2 2 8.5 9.5t8.5 9.5q3 4 10 16.5t9 15.5h5q2 -2 9 -4.5t9 -4.5l4 -4q5 -5 6 -5t4.5 -1.5t4.5 -3.5l2 -4q2 -4 3 -5q1 -2 2.5 -7.5t1.5 -6.5v-13q0 -2 -3.5 -7.5t-5.5 -6.5t-7.5 -5.5
t-7.5 -5.5q-1 0 -7 -5.5t-7 -7.5q-1 -1 -6 -4t-7 -4q2 1 2 4t-2 4q0 2 -4 5.5t-5 4.5q-2 0 -3.5 3.5t-1.5 4.5q-1 2 -4.5 7.5t-4.5 6.5l-6 6l-7 -10q1 -3 3.5 -9.5t5.5 -14t5 -14t3 -9.5q1 0 1 -3.5t-1 -5.5q0 -2 -4.5 -9t-5.5 -9l15 11v-5q0 -2 -4 -7t-5 -7q-2 -2 -3.5 -4
t-2.5 -2h6q1 0 6.5 3t7.5 3q1 -2 4.5 -8t4.5 -6q5 -5 5 0v-6l-2 -2q-2 -2 -3 -2q-1 -2 -2.5 -4.5t-2.5 -4.5v-11q0 -3 -1.5 -13t-2.5 -13q-2 -2 -2.5 -7t-2.5 -7l-4.5 -9t-7 -15t-7 -14.5t-3.5 -8.5q-1 -1 -2.5 -6.5t-3.5 -7.5q-1 -3 -2.5 -9.5t-1.5 -8.5zM371 43
q-3 2 -3 -1.5t3 -2.5q4 3 0 4zM325 53q-2 2 -2 -4.5t2 -5.5q2 2 2 5.5t-2 4.5zM662 43q0 2 -2.5 2t-2.5 -2q1 -2 3 -2t2 2zM365 53q-1 2 -1 -1.5t1 -3.5q2 1 2 2.5t-2 2.5zM468 53q-4 0 -4 -5t4 -5t4 5t-4 5zM223 66q4 0 4 -4.5t-4 -4.5q-5 0 -5 4.5t5 4.5zM217 71
q5 0 5 -4.5t-5 -4.5q-2 0 -2 4.5t2 4.5zM232 71q4 0 4 -4.5t-4 -4.5q-3 0 -3 4.5t3 4.5zM347 71q-1 2 -1 -1.5t1 -3.5q2 1 2 2.5t-2 2.5zM358 71q-4 0 -4 -4.5t4 -4.5t4 4.5t-4 4.5zM468 71q-4 0 -4 -4.5t4 -4.5t4 4.5t-4 4.5zM973 76q0 -2 -2 -5.5t-4 -4.5h6q2 1 5 4.5
t3 5.5v9q2 4 9.5 14t9.5 13q-2 -2 -10.5 -8.5t-10.5 -8.5q-2 -1 -6 -2.5t-6 -2.5v-5q2 0 4 -2t2 -3q1 0 1 -2t-1 -2zM246 76q2 0 2 -5t-2 -5q-3 0 -3 5t3 5zM1023 76q0 -1 -2 -3l-2 -2l4 9v-4zM1121 76q-1 -2 -3 -2t-2 2t2.5 2t2.5 -2zM1112 85q3 0 3 -4.5t-3 -4.5
q-4 0 -4 4.5t4 4.5zM186 90q3 0 3 -5t-3 -5t-3 5t3 5zM417 90q-4 0 -4 -5t4 -5q3 0 3 5t-3 5zM176 95q-1 2 -2.5 4.5t-2.5 4.5q2 2 5 0q2 -2 3.5 -4.5t2.5 -4.5v-5q-1 0 -2.5 2t-3.5 3zM274 95q5 0 5 -5t-5 -5q-4 0 -4 5t4 5zM412 95q-2 0 -2 -2.5t2 -2.5q5 2 0 5zM228 95
q-1 -3 -2.5 -3t-2.5 3q-2 2 2.5 2t2.5 -2zM255 99q-2 0 -2 -2.5t2 -1.5q2 0 2 1.5t-2 2.5zM265 99q-4 0 -4 -4.5t4 -4.5q3 0 3 4.5t-3 4.5zM407 104q-2 0 -2 -4.5t2 -4.5q4 0 4 4.5t-4 4.5zM839 112q0 2 2 6l2 4q2 1 6 4.5t4 5.5q-2 -4 -7 -15t-7 -13t-2.5 -3.5t-2.5 -1.5
q0 2 1.5 7t3.5 6zM965 108q-3 -3 -4 -5l-2 -4q2 -1 7.5 -1t6.5 1q1 0 4 3.5t4 5.5q2 2 8 9t8 9q0 2 1.5 6t1.5 5q-2 -1 -4.5 -2.5t-4.5 -2.5q-3 -2 -11.5 -11.5t-12.5 -12.5h-2zM246 108q-2 0 -2 -3t2 -1q3 1 0 4zM269 108q-3 0 -3 -4.5t3 -4.5q4 0 4 4.5t-4 4.5zM265 108v4
h-5zM644 112q-1 3 -3.5 0t-0.5 -4q2 -2 3.5 0t0.5 4zM237 118q4 0 4 -5t-4 -5t-4 5t4 5zM1016 112v6h-5zM630 137q-2 -2 -7.5 -9t-6.5 -10q2 1 10 4t10 4q1 1 6.5 3.5t7.5 2.5q3 3 7 5q1 -1 3 -5t2 -6v-8q3 1 14.5 6.5t13.5 7.5q1 1 3.5 2t4.5 3q3 2 6 3v4q0 2 -2 6l-2 4
q-1 0 -1 2t1 2q0 1 2.5 5t4.5 8t4.5 7.5l2.5 3.5q5 6 11.5 19t8.5 15q0 1 1 7t1 11v8q-1 -1 -1 -2q-1 -1 -1 -2v-1q-2 -2 -8 -10.5t-8 -10.5q-1 -2 -7.5 -7.5t-6.5 -6.5q0 -2 -2 -6t-2 -6q-1 0 -2.5 -1t-3.5 -1v14q-3 -5 -12 -14l-19.5 -19.5l-19.5 -19.5t-13 -12zM1023 122
q-3 0 -3 -5t3 -5q5 0 5 5t-5 5zM339 140q1 -2 2 -5t3 -6q2 -4 3 -7h6v28q0 2 -2 7t-4 7t-4 0q0 -2 -2 -10t-2 -10v-4zM654 126q-2 1 -2 -1.5t2 -2.5q1 0 1 2t-1 2zM668 140q3 0 3 -4t-3 -4q-5 0 -5 4t5 4zM867 137q0 -2 -2.5 -2t-3.5 2q0 2 3 2t3 -2zM953 140q-2 0 -2 -2
t2 -1q7 3 0 3zM431 144q-2 2 -2 -1t2 -3t2 2t-2 2zM687 144q2 0 2 -3.5t-2 -3.5q-4 0 -4 3.5t4 3.5zM214 150q-2 1 -2 -2.5t2 -3.5q3 3 0 6zM255 150q4 0 4 -5t-4 -5q-5 0 -5 5t5 5zM806 150q-3 0 -3 -5t3 -5q5 0 5 5t-5 5zM829 150q-3 0 -3 -5t3 -5q4 0 4 5t-4 5zM1043 150
q0 -2 1.5 -3t2.5 -3h10v25q-1 2 -2.5 7t-3.5 6q-2 5 -7 12.5t-7 7.5h-5v-12q1 -1 5 -4t6 -4v-32zM249 154q3 0 3 -1.5t-3 -2.5q-2 -2 -2 1t2 3zM949 154q-3 0 -3 -5t3 -5t3 5t-3 5zM209 154h-6q1 1 5 2.5t6 1.5l4 -2q4 -2 5 -2q1 1 1 4.5t-1 5.5q0 1 -2.5 2.5t-3.5 2.5h-3
q-1 -1 -2.5 -5t-2.5 -6v-4zM295 164q-1 1 -1 -2.5t1 -3.5q7 3 0 6zM867 169q-5 0 -5 -5.5t5 -5.5q3 0 3 5.5t-3 5.5zM973 172q1 0 2.5 -1.5t3.5 -1.5q0 -1 1 -1t1 1t-0.5 1t-0.5 1q-1 0 -1 1q0 2 -2.5 2t-3.5 -2zM102 221q2 -3 3 -10t3 -9q1 -26 -1 -25.5t-5 25.5v19z
M333 178q-3 0 -3 -4.5t3 -4.5q5 0 5 4.5t-5 4.5zM223 182q-2 1 -2 -2.5t2 -1.5q2 1 2 2.5t-2 1.5zM329 178q0 2 -2 2t-2 -2t2 -2t2 2zM395 182q3 0 3 -5t-3 -5t-3 5t3 5zM150 202q-3 2 -12.5 7t-12.5 7q0 1 -2.5 2.5t-2.5 2.5v2q2 1 5.5 1t4.5 -1q2 0 7.5 -3t6.5 -4
q2 -2 5.5 -4t4.5 -2h4l-14 13q7 2 14 0q3 -2 6.5 -7t2.5 -6l-5 -6q1 -1 2 -1q1 -1 3 -1q1 -2 7 -6t8 -6h-15q-2 2 -8 6zM1057 196q-5 0 -5 -4t5 -4q3 0 3 4t-3 4zM171 210q4 0 4 -4t-4 -4q-3 0 -3 4t3 4zM1005 210q-4 0 -4 -4t4 -4q5 0 5 4t-5 4zM1084 216q2 -2 2 -6t-2 -6
q-2 0 -2 6.5t2 5.5zM917 221q-3 0 -3 -5.5t3 -5.5t3 5.5t-3 5.5zM1047 221q-3 0 -3 -5.5t3 -5.5t3 5.5t-3 5.5zM1043 223q-5 0 -5 -3.5t5 -3.5q3 0 3 3.5t-3 3.5zM1051 228q-2 2 -2 -1.5t2 -3.5q2 1 2 2.5t-2 2.5zM108 237q-2 3 -4 8.5t-2 6.5v14q0 2 2 7.5t4 6.5h4
q1 -1 1 -5.5t-1 -5.5l-2 -6q-2 -6 -2 -7q0 -3 4 -14t6 -14q-4 -2 -6 0l-2 4q-2 4 -2 5zM144 234q2 -3 0 -5t-4 -1q-3 2 0 5t4 1zM162 234q-1 1 -1.5 6.5t-2.5 7.5h4l14 -14q-1 -2 -4.5 -4t-4.5 -2q-2 0 -2.5 2t-2.5 4zM1032 237q-2 0 -2 -4.5t2 -4.5q4 0 4 4.5t-4 4.5z
M672 242q-3 0 -3 -4t3 -4t3 4t-3 4zM927 269q2 -2 3.5 -6.5t3.5 -9.5t5 -11h6v6q0 1 -3 6.5t-3 7.5q1 1 3 2q3 3 3 2v3l-24 25v-10q2 0 4 -4t2 -6v-5zM1043 248q-5 0 -5 -5.5t5 -5.5q3 0 3 5.5t-3 5.5zM1079 248q4 0 4 -5.5t-4 -5.5q-3 0 -3 5.5t3 5.5zM1093 248q4 0 4 -5.5
t-4 -5.5q-3 0 -3 5.5t3 5.5zM333 256q2 2 7.5 3t6.5 3q2 0 6 1.5t5 2.5q2 0 11 1.5t10 1.5q5 1 12 3t8 2q1 1 5 3l9 4.5l9 4.5t5 2h4q2 -1 2 -6.5t-2 -7.5q-1 -1 -4.5 -4t-5.5 -4q0 -1 -3.5 -2t-5.5 -2q-2 -2 -12 -5.5t-15 -4.5t-11.5 -2.5t-8.5 -1.5q-2 -2 -11 -2t-11 2
q-1 0 -5.5 3t-4.5 5zM154 262q0 -3 -3.5 -6.5t-6.5 -3.5q-2 1 3.5 6t6.5 4zM134 262q5 0 5 -5t-5 -5q-3 0 -3 5t3 5zM949 266q-3 0 -3 -5t3 -5t3 5t-3 5zM1070 266q4 0 4 -5t-4 -5q-5 0 -5 5t5 5zM734 269q-4 1 -4 -1.5t4 -1.5q1 0 1 1.5t-1 1.5zM797 269q-4 0 -4 -3.5
t4 -3.5t4 3.5t-4 3.5zM853 269q-4 0 -4 -3.5t4 -3.5q3 0 3 3.5t-3 3.5zM130 284q2 -1 2 -4.5t-2 -5.5q-2 -1 -2 5.5t2 4.5zM857 280q0 -1 2 -3q1 -1 2 -3h6v14q0 2 -9 10.5t-15 13.5q-2 0 -4.5 2t-4.5 2v-4q0 -2 1.5 -5t3.5 -5q1 0 8 -8.5t10 -13.5zM736 294q0 -1 -1 -4.5
t-1 -5.5h2q0 2 2.5 5.5t2.5 4.5t-2.5 1t-2.5 -1zM307 326q0 4 5 4q0 2 9.5 1t11.5 -1q2 2 10 7.5t10 6.5l5 3q2 1 5 2q2 1 9.5 1t12.5 -1q1 0 5.5 -1t10 -1.5t10 -1.5t6.5 -1h28q2 0 9 -1t9 -3q-1 -1 -1 -1.5t-1 -1.5l-2 -2q-3 0 -9.5 -4.5t-8.5 -4.5q-2 -1 -12 -3t-12 -2
q-4 -2 -10.5 -2.5t-7.5 -2.5q-2 0 -7.5 -2t-11.5 -4.5t-11 -4.5t-6 -3q-2 0 -12 -1t-12 -3q-2 0 -7.5 -1.5t-6.5 -2.5q0 -1 -2 -3q-1 -1 -2 -3h-14v38zM112 298q5 0 5 -5t-5 -5q-3 0 -3 5t3 5zM140 298q3 0 3 -5t-3 -5q-5 0 -5 5t5 5zM959 298q-5 0 -5 -5t5 -5t5 5t-5 5z
M134 302q5 0 5 -4t-5 -4q-3 0 -3 4t3 4zM682 312q-2 -2 -2 -7t2 -7q6 15 15.5 27.5t19 25.5t18.5 26t15 28q2 2 3.5 7t1.5 7v28q0 1 -1.5 6.5t-3.5 7.5q0 1 -2 4t-2 4q-1 1 -5.5 7t-4.5 7l-2 4q-2 2 -4 2t-2 -2q-1 0 -4.5 -4t-5.5 -4h-10q-1 -3 -2 -5q-1 -1 -1 -3
q0 -1 -1 -2q0 -2 -2 -7t-2 -7q-1 -1 -1 -4t1 -4q0 2 3 9.5t5 9.5h10q2 -2 2 -8t-2 -7q0 -1 -2.5 -5.5t-5.5 -10.5l-6 -12t-4 -9l-24 -42q-1 -1 -4.5 -6.5t-3.5 -7.5q-2 -3 -4.5 -8l-5.5 -11l-5.5 -11t-2.5 -7v-5h4l12 18q5 8 10.5 16t10.5 13q2 2 6.5 11t6.5 12q1 3 5 10
t8.5 15t8.5 15.5t6 10.5h6q0 -2 1 -3q0 -1 1 -1q0 -4 2.5 -12.5t2.5 -11.5q0 2 2 7t3 7q0 1 2 1t2 -1q-6 -24 -21 -41.5t-29 -37.5q-5 -4 -11 -16.5t-7 -15.5zM953 302q-3 0 -3 -4t3 -4q5 0 5 4t-5 4zM949 307q-2 1 -2 -2t2 -3q4 2 0 5zM787 312q-3 0 -3 -5t3 -5q4 0 4 5
t-4 5zM812 312q2 0 2 -5t-2 -5q-5 0 -5 5t5 5zM158 316q-2 2 -2 -1.5t2 -2.5q2 0 2 2t-2 2zM945 316q-5 0 -5 -4.5t5 -4.5q3 0 3 4.5t-3 4.5zM815 321q3 0 3 -4.5t-3 -4.5q-2 0 -2 4.5t2 4.5zM787 330q-3 0 -3 -4.5t3 -4.5q4 0 4 4.5t-4 4.5zM186 330v5h-4zM1051 335
q-3 0 -3 -4.5t3 -4.5q5 0 5 4.5t-5 4.5zM1043 340q0 -1 2 -3l2 -2q5 2 0 5q0 1 -2 3q-1 1 -2 1q-2 0 0 -4zM140 349q2 -2 2 -3.5t-2 -1.5q-3 0 -3 3t3 2zM690 353h4q2 0 3.5 2t2.5 3zM750 358q-2 0 -2 -3.5t2 -1.5q2 1 2 2.5t-2 2.5zM154 372q-3 0 -3 -4.5t3 -4.5t3 4.5
t-3 4.5zM708 372q-1 2 -3.5 -1t-0.5 -4q2 0 4 1.5t0 3.5zM280 395q-1 1 -1 3t1 2l6 2q6 2 7 3l2 4q2 2 8.5 10t8.5 8v1q0 1 1 2t2 3q3 1 12 6.5t12 7.5v-20h8q2 1 6 4.5t5 5.5q2 2 4.5 11t2.5 13q2 -2 7.5 -7t6.5 -7q2 -2 6 -9.5t6 -10.5v-8q-2 -2 -3.5 -5.5t-2.5 -4.5
q-1 -2 -4.5 -5.5t-5.5 -3.5q-1 -1 -5.5 -4.5t-6.5 -4.5q-2 -2 -5.5 -3.5t-4.5 -1.5q-3 -1 -10.5 -2.5t-9.5 -1.5h-32q-1 2 -8 4.5t-10 4.5zM200 395q-1 2 -3.5 -0.5t-0.5 -3.5q2 -2 4 0t0 4zM853 405q3 0 3 -5t-3 -5q-4 0 -4 5t4 5zM190 405q2 0 4 2l2 2v10q-1 -2 -2.5 -2.5
t-3.5 -2.5v-9zM993 407q2 -2 4 -2q1 -2 4 -2t4 2q2 0 4 2l2 2v24q-2 2 -3 9t-3 9q-1 2 -6.5 8t-7.5 7h-12v-5q0 -2 3.5 -10t3.5 -10v-4v-4q1 -5 3 -13.5t2 -10.5zM578 414q-3 0 -3 -4.5t3 -4.5q5 0 5 4.5t-5 4.5zM598 414q-5 0 -5 -4.5t5 -4.5q4 0 4 4.5t-4 4.5zM1023 433
q-3 0 -3 -5t3 -5q5 0 5 5t-5 5zM125 437q4 0 4 -5t-4 -5t-4 5t4 5zM834 441q-2 1 -2 -2.5t2 -1.5q2 0 2 2t-2 2zM991 441q5 0 5 -4t-5 -4q-4 0 -4 4t4 4zM158 447q-3 0 -3 -5t3 -5t3 5t-3 5zM529 447q-3 0 -3 -5t3 -5q2 0 2 5t-2 5zM829 451q-2 0 -2 -2t2 -2q8 0 0 4z
M134 466q5 0 5 -5.5t-5 -5.5q-3 0 -3 5.5t3 5.5zM728 479q5 0 5 -5t-5 -5t-5 5t5 5zM787 487q0 -2 2 -7t3 -7h5q0 1 3 4l2 2q2 0 5.5 -2t4.5 -4q1 2 1 5.5t-1 4.5q-2 1 -7.5 3.5t-7.5 0.5q0 4 -1 12.5t-1.5 18t-1.5 18t-1 11.5v30q0 1 -2 2t-3 1l-2 -6q-2 -6 -2 -8v-35
q0 -3 1 -9.5t1.5 -13.5t1 -12.5t0.5 -8.5zM965 487q-2 -1 -2 -6.5t2 -7.5q1 5 4 15.5t4 12.5q2 7 0 10q-1 -1 -2.5 -4.5t-3.5 -5.5q-1 -2 -1.5 -7t-0.5 -7zM700 493q-3 2 -3 -7t3 -7q2 1 2 6.5t-2 7.5zM1016 483q2 0 2 -5t-2 -5q-4 0 -4 5t4 5zM714 498q0 -2 2 -8t2 -7l4 10
l-8 40q0 4 -1 12.5t-2 18.5t-2 18.5t-1 12.5q2 0 3.5 3.5t2.5 4.5q1 4 2.5 16.5t1.5 16.5q2 3 2.5 14.5t1.5 13.5l-8 -5v93q0 1 -1 7.5t-2 13.5t-2 13t-1 8v22h-8l-13 32h-5q-2 2 -3 6t-3 4h-8v-4h4v-14q0 -2 3 -8.5t6 -14.5t6 -15t3 -8q1 -2 3 -8q1 -3 1 -6v-46
q-3 1 -15 6.5t-17 7.5h-8q-2 -2 -2 -5.5t2 -4.5q0 -3 1 -5q0 -5 2 -5q1 -1 5 -7t6 -7q1 -1 9 -10.5t10 -11.5t2.5 -5.5t0.5 -4.5v-105l4 8v-52l10 6q2 -10 4.5 -21t5.5 -20zM802 539q1 -3 1.5 -8.5t1 -12t1 -12.5t0.5 -8v47l-4 2v-8zM120 515q4 0 4 -4t-4 -4q-2 0 -2 4t2 4z
M622 547q1 0 1.5 -3t0.5 -5q0 -3 -0.5 -12.5t-1.5 -11.5v32zM867 515h4v4zM171 533q1 0 2.5 -1t2.5 -1q5 6 9.5 11.5t10.5 9.5q-2 3 -9 10.5t-11 8.5q-1 2 -6.5 2t-7.5 -2q-1 -3 -1 -12.5t1 -11.5t3 -5q2 -2 3 -4.5t3 -4.5zM200 539l-2 -4l-2 -4q2 1 9 6.5t9 7.5
q0 1 3.5 1.5t5.5 0.5q-2 2 -5.5 2t-3.5 -2q-1 0 -5 -0.5t-6 -1.5q0 -2 -1.5 -3.5t-1.5 -2.5zM734 539q-5 0 -5 -4t5 -4q2 0 2 4t-2 4zM120 539v6h-2zM728 547q-5 0 -5 -4t5 -4t5 4t-5 4zM750 552q-3 0 -3 -3.5t3 -3.5q4 0 4 3.5t-4 3.5zM307 595q-2 2 -2 11t2 11
q0 2 7.5 8.5t10.5 10.5q1 1 3 2t2.5 1.5t2.5 1.5t8 3q3 1 6 1q2 0 5.5 -7t5.5 -7q2 -1 6.5 -2.5t6.5 -1.5h70q1 0 11.5 3.5t15.5 5.5q1 0 4.5 2.5t4.5 2.5h14v9q0 1 -1 9t-3 10v9q2 0 3 4t1 5v14q0 2 1.5 7t3.5 6q0 1 2 2.5t2 3.5q2 -9 4 -19t6 -19q0 3 1 9.5t1.5 13.5
t1.5 13.5t1 9.5v48q-1 2 -2.5 12.5t-2.5 13.5q-1 1 -3 7t-4 12.5l-4 13t-3 9.5q-2 0 -3.5 4t-1.5 6q0 1 -2.5 6t-5.5 10t-6 9.5t-4 6.5v4h-5q-2 0 -7.5 4.5t-6.5 5.5h-5q2 -2 5.5 -7t4.5 -7v-5h-5q-2 3 -11 12.5t-12 12.5q-2 1 -12.5 6t-13.5 6h-10q-4 -2 -4 -4
q3 -1 6.5 -3.5t7.5 -4.5l-6 -6q0 2 -2 4l-2 2h-30l10 8l-22 -8v-6l-2 -2q-3 -3 -4 -3t-6.5 -3.5t-7.5 -5.5v-5q-1 -2 -1 -3t-1 -2l-2 -2q-1 -2 -10.5 -3.5t-11.5 -2.5q-2 0 -6 -5t-6 -5q-3 -2 -7 -4q-8 -4 -8 -6q-2 0 -10 -2t-10 -2q-2 -1 -4.5 -1t-4.5 -1q-3 -1 -5 -2
q-3 -2 -12 -7.5t-11 -6.5t-7.5 -7t-6.5 -7q-2 -1 -4.5 -2.5t-4.5 -1.5q-1 0 -6.5 -2t-7.5 -4q-2 0 -6.5 -2t-10 -4t-10 -4t-5.5 -2h-4q-2 1 -10 3t-10 4q2 0 5.5 2t4.5 3q2 7 0 7h-20q-1 0 -1 3t1 4q0 2 4 3t6 3q2 0 7.5 1.5t6.5 2.5q2 0 5.5 2t4.5 2q1 2 4 6t4 5h-18
q0 2 2 4.5t4 2.5q0 2 7.5 4t9.5 2q1 0 4.5 2t4.5 2q2 0 2 2t-2 2q0 2 -2 4t-3 2h57q-1 2 -5 6.5t-6 6.5q0 1 -1.5 2.5t-1.5 2.5l9 4l-9 5q0 1 6 3t8 2h21q2 0 5.5 2t5.5 4q2 1 7.5 4.5t6.5 3.5v4q2 2 4.5 7t4.5 7q0 2 2 4l2 2q3 0 12.5 1.5t12.5 1.5l-6 3t-5 2
q-5 2 -20.5 3.5t-20.5 2.5q21 5 43 11.5t44 9.5l-8 13h14l-10 7q2 0 3 2t1 3q2 2 0.5 11.5t-0.5 11.5q2 3 10.5 11.5t13.5 10.5q1 1 9.5 0.5t10.5 -0.5t8.5 2t7.5 2q2 2 10.5 6t9.5 4q5 1 18.5 1t17.5 -1v-4q-1 -2 -2.5 -5.5t-1.5 -4.5q2 -1 7.5 -1t6.5 1q2 1 13.5 7t13.5 7
h5q2 0 2.5 -2t2.5 -2q-2 0 -5 -2t-5 -4l-9 -8q-1 -1 -5.5 -3t-10 -4.5t-10.5 -4.5t-6 -2l-2 -2q-1 -1 -2 -1t-1 -1q-5 -2 -18.5 -10t-18.5 -10q2 -2 9.5 -8.5t10.5 -8.5q1 -1 6 -3t6 -2q2 0 5.5 -2.5t4.5 -3.5l-10 -3l5 -5q-15 -5 -33 -9l56 -21h-36q2 -1 10.5 -4t11.5 -4
q2 -1 9 -1.5t14.5 -1t14.5 -1t9 -0.5q1 0 11 -10.5t17 -17.5q1 -2 4 -7t4 -7q2 -4 6 -10.5t5 -8.5q1 -1 2 -5t2.5 -9t2.5 -10t2 -8v-4q-2 0 -4.5 2t-4.5 2q-2 2 -6 7t-5 7l-2 -2l-2 -2q-2 -1 -2 -2.5t2 -1.5q1 -2 7 -9.5t8 -10.5h-5q-2 2 -6 4l-4 2q-2 0 -5.5 -4.5
t-4.5 -5.5q2 -3 7.5 -10t6.5 -8q1 -3 0 -4q0 -2 -2 -3.5t-2 -2.5l4.5 -4.5t5.5 -3.5q1 0 4.5 -2.5t4.5 -3.5q2 -1 7.5 -4.5t5.5 -5.5q2 -2 7 -6t10.5 -9t10 -10t6.5 -7q0 -2 1 -4q0 -2 1 -4q2 -2 6 -7t6 -7q0 -2 1 -5.5t1 -4.5q2 -3 6 -14t6 -13q1 -4 2.5 -14.5t1.5 -13.5
v-38q0 -3 -1.5 -13.5t-2.5 -12.5q-3 0 -4 1l-2 2q-1 2 -4.5 7.5t-3.5 7.5q-4 2 -12.5 11t-11.5 11q-2 2 -4.5 3.5t-4.5 2.5h-15q0 -1 2 -5.5t2 -5.5q2 0 4 -2q1 -1 2 -1q1 -1 2.5 -5.5t2.5 -5.5v-3q-1 0 -5 1.5t-6 1.5t-8 2.5t-13 5t-12.5 4.5t-6.5 2t-2 1t-3 2l-4 2
q-1 0 -8.5 2.5l-10.5 3.5q-5 1 -13 2.5t-10 1.5q-1 0 -4.5 -4t-5.5 -6v-8q-1 -3 -8.5 -12.5t-9.5 -11.5v-5q-1 -2 -6.5 -9.5t-7.5 -7.5q-1 -2 -4 -4t-4 -2h-20l24 23v5q-2 -2 -9 -7t-11 -7q-1 -1 -6.5 -1t-7.5 1l-4 4l-3 3q-1 1 -1 2q-1 1 -1 2t-0.5 1.5t-0.5 1.5l-2 4h-4
l-33 -32h-5q-2 2 -3 5.5t-3 3.5q-1 1 -4 3t-4 2q-2 0 -3 -2t-3 -3l-2 -4q-2 -4 -2 -5t-3.5 -2.5t-4.5 -2.5q-1 3 -3.5 9t-4.5 12.5t-4 12.5t-2 9zM399 552q-1 -2 -4 -2t-4 2q-2 2 3.5 2t4.5 -2zM622 563q2 0 2 -5.5t-2 -5.5q-5 0 -5 5.5t5 5.5zM802 566q-2 1 -2 -4.5t2 -4.5
q4 4 0 9zM120 566v5h-2zM589 571q-1 2 -4 -1t-1 -4q2 -2 4.5 0.5t0.5 4.5zM603 585q4 0 4 -4t-4 -4t-4 4t4 4zM598 589q4 0 4 -4.5t-4 -4.5q-5 0 -5 4.5t5 4.5zM592 595q5 0 5 -5t-5 -5q-2 0 -2 5t2 5zM603 598q4 0 4 -4.5t-4 -4.5t-4 4.5t4 4.5zM760 598q-2 1 -2 -1.5
t2 -1.5q2 0 2 1.5t-2 1.5zM622 612q-5 0 -5 -4.5t5 -4.5q2 0 2 4.5t-2 4.5zM610 617q-2 0 -2 -4t2 -4q5 0 5 4t-5 4zM766 617q-5 0 -5 -4t5 -4q3 0 3 4t-3 4zM927 623q-5 0 -5 -5.5t5 -5.5q4 0 4 5.5t-4 5.5zM80 627q0 -2 -2 -2t-2 2q-2 2 1 2t3 -2zM468 631q-4 0 -4 -4
t4 -4t4 4t-4 4zM907 636q-2 0 -2 -2.5t2 -2.5q3 0 3 1.5t-3 3.5zM907 655q2 0 4 2l2 2v5zM903 669l10 3h-10v-3zM454 672q-2 0 -8 -0.5t-12.5 -0.5t-12.5 0.5t-9 0.5q-2 1 5 2t16 1t16.5 -1t4.5 -2zM56 682q-5 0 -5 -5t5 -5t5 5t-5 5zM483 692q2 -2 2 -5.5t-2 -4.5
q-3 -2 -3 4.5t3 5.5zM899 687q-3 0 -3 -4.5t3 -4.5t3 4.5t-3 4.5zM50 692q-1 1 -1 -2.5t1 -2.5q2 0 2 2.5t-2 2.5zM477 706q2 -2 2 -5.5t-2 -4.5q-1 -2 -1 5t1 5zM875 701q-3 0 -3 -4.5t3 -4.5q5 0 5 4.5t-5 4.5zM525 711q-5 0 -5 -5t5 -5q3 0 3 5t-3 5zM843 711q-3 0 -3 -5
t3 -5q4 0 4 5t-4 5zM881 720q-1 0 -1.5 -2t-0.5 -5t0.5 -5.5t1.5 -1.5q2 2 2 7t-2 7zM734 711q0 1 1 3q0 2 0.5 3t0.5 3v8q0 -1 -1 -6.5t-1 -7.5v-3zM592 728q2 -1 3 -2t3 -2h5q0 1 -2 2.5t-3 1.5h-6zM552 748q-5 0 -5 -5t5 -5q4 0 4 5t-4 5zM546 752q-3 0 -3 -4.5t3 -4.5
q5 0 5 4.5t-5 4.5zM574 752q-3 0 -3 -4.5t3 -4.5t3 4.5t-3 4.5zM542 756q-3 0 -3 -4t3 -4t3 4t-3 4zM566 756q-4 0 -4 -4t4 -4q3 0 3 4t-3 4zM532 760q2 -2 6 -4v4q-2 3 -5.5 14.5t-3.5 15.5q-1 -2 -1 -10t1 -10q0 -2 1 -4t1 -3.5t1 -2.5zM557 760q-4 0 -4 -4t4 -4q3 0 3 4
t-3 4zM92 770q-1 0 -3 -4t-1 -6q4 -2 4 0q2 0 5.5 3t4.5 3h23q-2 0 -6.5 2t-6.5 2q-3 1 -10.5 1t-9.5 -1zM162 784q4 0 4 -4t-4 -4q-3 0 -3 4t3 4zM557 784q-1 -2 -2.5 -2t-2.5 2q0 3 2.5 3t2.5 -3zM150 802q-5 0 -5 -4t5 -4q3 0 3 4t-3 4zM459 808q-1 0 -1 1.5t1 2.5h4
q1 -1 1.5 -1t1.5 -1l2 -2q1 0 1 -2t-1 -4q-2 2 -5.5 3t-3.5 3zM570 808q3 0 3 -5.5t-3 -5.5t-3 5.5t3 5.5zM566 812q3 0 3 -5t-3 -5q-4 0 -4 5t4 5zM112 812q0 -3 -2 -3t-2 3q-2 2 1.5 2t2.5 -2zM561 816q4 0 4 -4t-4 -4q-3 0 -3 4t3 4zM209 822q-5 0 -5 -5t5 -5q4 0 4 5
t-4 5zM468 822q-2 1 -9.5 2t-9.5 2q-1 3 -6 16t-6 16v4q-2 2 -6 7.5t-4 6.5v5q0 1 1.5 1t2.5 -1q2 -2 7.5 -4t6.5 -3q2 -2 4.5 -6t4.5 -6q1 -1 4 -6.5t5 -7.5t3 -4l2 -4q3 -5 5 -11t0 -13q0 2 -2 4t-3 2zM529 822q-3 0 -3 -5t3 -5q2 0 2 5t-2 5zM584 826q4 0 4 -5t-4 -5
q-5 0 -5 5t5 5zM734 830q-5 0 -5 -4t5 -4q2 0 2 4t-2 4zM83 836q4 0 4 -5t-4 -5q-2 0 -2 5t2 5zM510 836q-4 0 -4 -5t4 -5t4 5t-4 5zM92 840q5 0 5 -5t-5 -5q-3 0 -3 5t3 5zM405 840q-2 0 -8 1.5t-6 2.5q-2 2 -6 9.5t-6 8.5q0 2 -1 4t-3 2h20q1 0 6 -2t6 -4q2 0 5 -5t5 -9
l2 -4l2 -4q2 -1 2 -2.5t-2 -1.5l-9 8l-5 -8q-1 1 -1 2q-1 1 -1 2zM487 848q3 0 3 -4t-3 -4t-3 4t3 4zM529 848q0 -1 1 -2l2 -2q1 -1 3.5 -1t2.5 1v14zM718 848q-3 0 -3 -4t3 -4t3 4t-3 4zM477 854q2 0 2 -2t-2 -4q-1 0 -1 3t1 3zM519 858q2 0 3.5 -2t2.5 -2q0 1 2 4t2 4
q-1 2 -4.5 6t-5.5 6h-4q0 -2 2 -6t2 -6v-4zM708 858q-3 0 -3 -5t3 -5q5 0 5 5t-5 5zM468 862q0 2 -2.5 6t-2.5 6q-1 0 -1 1t1 1q2 0 5.5 -3t4.5 -5q2 -1 2 -4.5t-2 -5.5q-1 0 -2.5 2t-2.5 2zM662 868q-4 0 -4 -5t4 -5q5 0 5 5t-5 5zM358 876q2 0 2 -1t-2 -1q-3 -2 -3 0t3 2z
M510 881q-4 0 -4 -3.5t4 -3.5t4 3.5t-4 3.5zM570 881q3 0 3 -3.5t-3 -3.5t-3 3.5t3 3.5zM186 881q-3 -2 -12.5 -2t-11.5 2q-1 1 3.5 1h9.5h8.5t2.5 -1zM792 886q4 0 4 -5t-4 -5t-4 5t4 5zM228 890q-4 0 -4 -4.5t4 -4.5q3 0 3 4.5t-3 4.5zM417 890q1 0 2 -1q2 -2 2 -3t-2 -1
t-2 1q-1 0 -3 2l-2 2h5zM584 890l5 5h-5v-5zM445 909q-3 0 -3 -4.5t3 -4.5t3 4.5t-3 4.5zM441 914q-3 0 -3 -4t3 -4t3 4t-3 4zM714 914q-5 0 -5 -4t5 -4q3 0 3 4t-3 4zM427 923q-5 0 -5 -4.5t5 -4.5q3 0 3 4.5t-3 4.5zM391 927q-5 0 -5 -4.5t5 -4.5q3 0 3 4.5t-3 4.5z
M708 927q-3 0 -3 -4.5t3 -4.5q5 0 5 4.5t-5 4.5zM182 938q2 1 9.5 7t8.5 7h3q0 -1 -2 -3q-1 -1 -1 -3q-2 -2 -10 -7t-8 -7q-1 -1 -5 -2.5t-6 -2.5q2 1 6 5t5 6zM650 932q-5 0 -5 -4.5t5 -4.5q3 0 3 4.5t-3 4.5zM636 932h4l-4 6v-6zM704 938v3q-1 0 -1 1t-0.5 1t-0.5 1l-2 2
q-1 0 -1 -2t1 -3zM770 941q3 0 3 -4.5t-3 -4.5t-3 4.5t3 4.5zM249 946q-3 -3 -7 -5h-5q1 1 4.5 3t4.5 2h3zM574 941q1 3 -7 3t-6 -3q2 -2 7 -2t6 2zM624 941h6l-6 5v-5zM171 959q0 1 2 2.5t3 3.5h20q-2 -2 -8 -4.5t-6 -4.5q-1 0 -2.5 -4t-3.5 -6q-1 2 -3 7t-2 6zM755 952
q4 0 4 -5.5t-4 -5.5t-4 5.5t4 5.5zM578 956q-3 0 -3 -5t3 -5q5 0 5 5t-5 5zM592 956q2 -1 3 -2.5t3 -1.5q3 -1 11.5 -1t12.5 1q-2 0 -7.5 2t-6.5 2q-3 0 -5 1q-1 0 -1.5 0.5t-1.5 0.5t-2 1h-6v-3zM728 959q2 0 2 -1.5t-2 -1.5t-2 1.5t2 1.5zM496 965v-6h-5q-2 0 -7 2t-7 4
h19zM209 970q-4 -8 -6 0q0 2 3.5 2t2.5 -2zM505 973q4 0 4 -4t-4 -4t-4 4t4 4zM728 973q0 -1 -2 -1t-4 1q0 2 3 2t3 -2zM566 988q2 0 9 -2t9 -2q1 -1 4 -1t4 1q-1 0 -4 2t-4 2h-18zM708 984q0 -3 -2 -3t-2 3q0 2 2 2t2 -2zM371 1001q-1 0 -3 -2q-1 -1 -3 -1l10 3q0 1 -2 1
t-2 -1zM395 1001h4v4zM500 1005q4 0 4 -3.5t-4 -3.5q-3 0 -3 3.5t3 3.5zM584 1016q5 -3 11 -5t13 0q-2 1 -5.5 2.5t-4.5 2.5q-5 2 -11.5 4t-12.5 1q1 0 4.5 -2.5t5.5 -2.5zM624 1016q5 0 5 -5.5t-5 -5.5q-2 0 -2 5.5t2 5.5zM500 1021l-4 -5q-2 -1 -7 -1t-6 1q1 0 6 2.5
t7 2.5h4zM640 1021q-2 0 -5.5 1t-4.5 3q-1 1 -7 5.5t-7 4.5q-1 1 -6 2.5t-7 1.5q-1 0 -6.5 4t-7.5 4q-3 2 -11.5 2t-11.5 -2q1 2 4 4t4 2h29q-1 0 -1 -2t1 -4q2 0 7 -2t6 -2q5 -2 15.5 -6.5t12.5 -6.5l4.5 -4.5t5.5 -4.5v-5q-2 0 -7.5 2.5t-6.5 2.5zM546 1025h11v5h-11v-5z
M515 1053q3 0 3 -5t-3 -5q-4 0 -4 5t4 5zM385 1057q5 0 5 -5t-5 -5t-5 5t5 5zM616 1057q5 0 5 -5t-5 -5t-5 5t5 5zM407 1057q0 -2 -1 -2t-1 2q-2 2 1 2t1 -2z" />
    <glyph glyph-name="registered" unicode="&#xae;" horiz-adv-x="753" 
d="M110 217q0 -86 42 -133.5t117 -47.5q71 0 139 48t124 135q26 44 48.5 94t38.5 104q16 55 25 108t9 101q0 81 -31.5 123t-90.5 42q-54 0 -106.5 -31t-109.5 -97q-97 -114 -151 -230t-54 -216zM475 868q48 0 92.5 -20.5t78 -56.5t53.5 -84.5t20 -103.5q0 -39 -6 -83
t-17.5 -89.5t-27.5 -91t-37 -87.5q-59 -122 -154 -198q-91 -73 -179 -73q-24 0 -53 6.5t-56 15.5q-59 23 -88 52q-33 29 -50 76t-17 108q0 88 37 187.5t108 198.5q39 54 79 98t83 78q42 34 76 50.5t58 16.5zM308 397q42 -5 73 2t66 30q22 15 42.5 33.5t31 38.5t8.5 39
t-24 36q-19 15 -43.5 24t-50.5 2q-37 -67 -60.5 -114.5t-42.5 -90.5zM278 333q-2 -4 -7.5 -13.5t-12 -21.5t-13.5 -25.5t-13 -26.5l-32 -71q-5 -16 -14 -16q-8 0 -15 10t-5 21q7 35 23 66t34 68q26 54 49.5 102.5t43.5 89.5q41 84 56 107q7 12 22.5 16.5t45.5 4.5
q66 0 104 -41q41 -39 32 -83q-8 -39 -33.5 -67t-61 -47.5t-77 -30.5t-79.5 -17q22 -29 43.5 -59.5t43.5 -50.5q11 -11 21.5 -21t14.5 -18.5t-1.5 -13.5t-25.5 -5q-8 0 -21 11.5t-31 31.5t-41 45.5t-50 54.5z" />
    <glyph glyph-name="copyright" unicode="&#xa9;" horiz-adv-x="1470" 
d="M363 64q0 6 8 6h9t5.5 -1t10.5 -2t10.5 -2t5.5 -1q1 -1 2.5 -5t3.5 -5q0 -2 4 -7.5t5 -6.5q6 2 8 12t2 12h6q0 -18 -8.5 -36t-22.5 -29q0 -1 -1 -1h-2l-2 1q1 2 5 7.5t6 6.5q0 3 2 7l2 4l-15 30q0 -8 -6.5 -21.5t-18.5 -13.5q-2 0 -7 2t-5 3v-25l-7 5v60zM492 9
q3 -1 13 -1t12 1q7 2 5.5 5.5t-1.5 5.5q-9 0 -19 4.5t-10 16.5v3q0 1 2 7t3 8q1 3 3 7t3 4h31v-9.5t-0.5 -14t-1 -14t-0.5 -8.5t-2 -10t-2 -10q-3 -5 -7.5 -5.5t-8.5 -0.5q-7 0 -12 1.5t-8 9.5zM262 53q0 18 13 25.5t29 7.5q0 -7 -5 -8.5t-11.5 -3.5t-11.5 -6.5t-5 -16.5
q0 -14 5 -18t11.5 -4t12 0.5t6.5 -5.5q-2 -1 -7 -3t-7 -2h-3q-16 0 -21.5 10t-5.5 24zM317 45q0 10 2.5 17.5t14.5 7.5q11 0 15 -7t4 -16q0 -8 -5 -18t-16 -10t-13 9t-2 17zM545 84h2q2 0 3 -4.5t2 -5.5q2 -1 10 -2.5t10 -1.5q2 -2 3.5 -5.5t1.5 -5.5q1 -4 2 -17.5t1 -17.5
h-10v32q-3 1 -7 2q-8 2 -11 1q-5 -2 -5.5 -7t-0.5 -11v-12t-4 -10v65h3zM633 51q0 11 11 22.5t21 11.5q1 0 2 -0.5t3 -0.5h3q3 -2 11 -9.5t9 -10.5q1 -1 1 -5.5v-7.5q0 -12 -9 -22t-23 -10q-12 0 -20.5 10.5t-8.5 21.5zM717 24q1 2 3 5.5t3 4.5t4 5.5t6 9.5t6 9.5t4 5.5v3v3
q-1 0 -2.5 1.5t-3.5 2.5h-2h-2l-5 -2.5t-5 -1.5q-1 1 -1 2v2q0 10 13 10q6 0 12 -3.5t6 -10.5q0 -11 -7.5 -19.5t-12.5 -16.5q-1 -1 1 -5q1 -2 1 -3h18l-10.5 -3.5t-9.5 -3.5h-3h-2q-2 0 -5.5 2t-5.5 3zM763 59q0 10 6 17.5t16 7.5q14 0 16.5 -11t2.5 -22q0 -2 -0.5 -8.5
t-0.5 -8.5l-2.5 -3t-6 -6t-6.5 -5t-5 -1q-12 5 -16 17t-4 23zM858 54q0 12 3 21t17 9q15 0 18 -10t3 -23q0 -2 -0.5 -8.5t-0.5 -8.5q-2 -3 -8.5 -9t-11.5 -6q-13 0 -16.5 13.5t-3.5 21.5zM953 24q1 2 3 5.5t3 4.5q0 1 3 5.5t6.5 9.5t6.5 9.5t4 5.5v3v3q-1 0 -3 1.5t-3 2.5
h-2h-2q-2 -1 -5.5 -2.5t-4.5 -1.5q-1 1 -1 2v2q0 10 13 10q6 0 12 -3.5t6 -10.5q0 -11 -8 -19.5t-12 -16.5q-1 -1 1 -5q1 -2 1 -3h18q-11 -8 -20 -8t-16 6zM998 54q0 12 3.5 21t17.5 9t17.5 -10t3.5 -23q0 -2 -1 -8.5t-1 -8.5q-2 -3 -8 -9t-11 -6q-14 0 -17.5 13.5
t-3.5 21.5zM1097 26q8 0 15.5 5t7.5 13q0 7 -6 7t-6 5v2q0 1 1 1q0 2 2.5 5.5t2.5 5.5l1 2l-1 2q-1 1 -5.5 2.5t-4.5 2.5t-1 3.5t-1 3.5q15 0 17 -6.5t5 -20.5q1 -1 3 -7.5t2 -7.5q0 -7 -6 -16t-14 -9q-2 0 -5.5 2t-4.5 3zM473 70q-3 -2 -9 -7.5t-7 -8.5q-1 -2 0 -12.5
t0 -12.5q0 -5 -5 -5v46h21zM477 57q0 3 0.5 7t5.5 6v-46q-3 11 -4.5 17.5t-1.5 15.5zM587 64q2 2 3.5 5.5t2.5 4.5l2 1q4 0 9 -4.5t9 -6.5q-8 -2 -9.5 -8t-1.5 -12q0 -8 2 -10t4.5 -2.5t4.5 -2t2 -7.5q-2 0 -11 0.5t-11 6.5q-1 1 -2.5 12.5t-3.5 17.5v2v3zM818 70q2 2 7.5 7
t7.5 7h1q1 0 2 1q1 0 2 1v-62h-7v40zM1054 70q2 2 7.5 7t7.5 7h1q1 0 2 1q1 0 2 1v-62h-8v40zM321 44q0 -5 2 -10.5t8 -5.5q7 0 9.5 4t3.5 9t0.5 11t-0.5 11q-11 0 -17 -4t-6 -15zM372 45q0 -5 2.5 -11t9.5 -6h2l1 1q1 0 2.5 2t1.5 3q2 3 2 13.5v13.5q-10 0 -15.5 -2
t-5.5 -14zM502 45q0 -5 2.5 -11t10.5 -6l2 1q2 0 3.5 2t1.5 3q1 3 1.5 13.5t0.5 13.5q-11 0 -16.5 -2t-5.5 -14zM642 49q0 -8 5.5 -14.5t14.5 -6.5q8 0 17 6.5t9 14.5q0 2 -2 8t-4 7l-20 -5q-1 -1 -1 -2v-2q0 -8 5.5 -7.5t11.5 -3.5l-1 -2q-1 -1 -2 -1q-11 0 -17 -1t-6 11
q0 10 8 15.5t18 3.5q-2 5 -6 5h-7q-10 0 -16.5 -8.5t-6.5 -17.5zM772 57q0 -6 2.5 -17.5t10.5 -11.5h2q1 0 1 1q5 2 5 5v36q0 4 -4 4.5t-6 0.5q-8 0 -9.5 -5.5t-1.5 -12.5zM868 40q0 -2 4 -5.5t6 -5.5l3 -1h2q1 0 1 1t2 2.5t2 2.5v36l-2 2l-2 2q-2 1 -8 1.5t-8 0.5v-36z
M1008 40q0 -2 4 -5.5t7 -5.5l2 -1h2q1 0 1 1l2.5 2.5t1.5 2.5v36l-4 4q-2 1 -8 1.5t-8 0.5v-36zM928 49h8.5t6.5 -5h-29q0 5 6 5h8zM483 84q-1 -2 -3 -2t-3 2t2.5 2t3.5 -2zM1309 284q-1 0 -3 -1.5t-2 -3.5q-13 -20 -24 -32.5t-37 -12.5h-17.5t-16.5 5q3 0 9.5 0.5t13.5 1.5
t13.5 2t8.5 2q22 5 29.5 20.5t15.5 34.5l-2 2l-2 2q-2 1 -7 3t-11 5t-11 5t-6 3q-3 1 -12.5 5t-13.5 10q1 0 3.5 0.5t4.5 0.5q1 0 1.5 -0.5t2.5 -0.5h3q3 0 15.5 -5t15.5 -5h1h4q-2 0 -3 2t-2 3q-2 1 -8 5.5t-12.5 9.5t-13 9t-7.5 5l-6.5 6.5t-12.5 12t-14.5 13t-11.5 9.5
q-2 2 -7 6t-5 10h7q2 -2 7 -6.5t10.5 -9.5t10.5 -9.5t7 -5.5q1 -1 8 -6t16 -11.5l18 -13t14 -9.5q2 -2 8 -6t7 -4q2 0 7.5 4t6.5 6q0 4 0.5 15.5t0.5 14.5q0 24 -5 44t-16 41q0 1 -2.5 5.5t-5 9.5t-4.5 9.5t-3 5.5v6q9 0 13.5 -10t7.5 -15q1 -3 4 -10t6.5 -14.5t6 -13.5
t3.5 -8q8 -20 8.5 -38.5t1.5 -41.5l4 -5q1 4 4.5 13t6.5 19.5t6 19.5t4 13q0 1 0.5 5.5t1.5 9.5t1.5 9.5t0.5 5.5q1 2 3 3t2 2v-10q0 -28 -9 -51t-9 -48q12 0 26 3t26 10t21 17t11 24q0 -1 0.5 -5t0.5 -5q0 -15 -7.5 -24t-18 -14.5t-23.5 -9t-23 -7.5q0 -1 -2 -2.5t-2 -2.5
q17 -10 36.5 -20t33.5 -25q14 -16 27 -29t13 -34v-7q-4 11 -12.5 23t-19 23.5t-22.5 21.5t-22 16l-2 1l-2 -1q0 -5 -1.5 -13t-5 -15t-8.5 -12t-13 -5t-18 7t-15 14v-5q0 -36 12 -69t33 -61l-1 -2q-2 0 -3 1q-1 0 -1 1q-15 10 -25.5 30t-16.5 43.5t-8 47t0 38.5zM269 335
q-7 8 -12 18t-6 22q4 1 8 3q8 4 8 7v110l-30 35v5q2 0 9.5 0.5t10.5 0.5q2 0 8.5 0.5t14 1.5t14 1.5t8.5 0.5q4 0 15.5 0.5t24 1t24 0.5h16.5q0 -6 -2 -19t-5.5 -26t-7.5 -22.5t-8 -9.5h-2q-2 5 -7.5 15.5t-13.5 14.5q0 1 -3.5 -1t-5.5 -2v-107q3 -1 14.5 -3t15.5 -2
q3 -1 8 -2.5t7 -2.5v-2v-3q-11 -17 -19 -23.5t-28 -11.5v-193q-17 0 -23 12q-4 6 -9.5 17t-11 21.5t-9 18t-3.5 8.5v116zM959 160q3 3 10 9.5t15 14.5t15 15.5t9 10.5q3 3 7 8t8.5 11t7.5 12t3 11t-3 7.5t-3 8.5t6.5 11t14.5 11t14.5 13.5t6.5 16.5q0 5 -5.5 13t-10.5 12
q-3 3 -9.5 8t-14 10.5t-13.5 10t-9 6.5q-1 0 -4 2t-5 3q-2 0 -8 2t-8 3l-12.5 12.5t-11.5 13.5q-1 0 -1.5 3t-0.5 4q0 2 0.5 4.5t1.5 2.5q2 2 9.5 4.5t10.5 0.5l80 80q8 9 21.5 9t23.5 6q0 1 4.5 5.5t5.5 4.5q2 1 8 2t8 1q0 -20 -7 -40t-14 -38h-3q-6 0 -11.5 10.5
t-10.5 14.5l-56 -60q8 -9 18.5 -16.5t21 -14.5t20.5 -15t16 -19q0 -2 2 -7.5t3 -7.5q1 -3 5 -12.5t6 -12.5l-86 -125q-2 -2 -9 -10t-11 -10q-1 -1 -5 -3t-5 -3q-13 -11 -20.5 -18.5t-24.5 -7.5v12zM602 485q-4 10 -4.5 16t-0.5 14v11q5 -5 9 -5.5t10 -0.5q5 0 7 2.5t3.5 5.5
t3 5.5t5.5 2.5h3l10 -10l45 -146q2 -10 10 -15q2 1 5.5 4.5t4.5 5.5v2v3q-6 26 -8 47t-2 48v51q5 -5 10 -5.5t11 -0.5q7 0 11.5 3t8.5 7t8.5 7t12.5 3q0 -11 -1.5 -21.5t-8.5 -18.5v-332q-8 0 -12 2.5t-6 6.5t-3.5 10t-5.5 13q-6 11 -16.5 26t-18.5 23q-2 5 -6.5 18t-9 27.5
t-9 27.5t-6.5 18q-2 8 -6 18.5t-11 16.5v-212q-8 0 -12 6q-7 11 -12.5 24.5t-13.5 25.5q-1 1 -1.5 2.5t-1.5 3.5l-2 4v256zM846 471q-11 6 -13 9.5t-10 14.5q-2 2 -6.5 7.5l-9 11t-9 10t-5.5 6.5v6h146v-16q0 -2 -10 -11t-15 -14q-2 -1 -9 -3t-10 -2v-328q-9 0 -13.5 5
t-6.5 11.5t-3 14t-4 12.5q-2 4 -10.5 15t-11.5 15v236zM532 538q1 0 8.5 -12.5t11.5 -19.5l3 -6t3 -5v-1v-4q0 -11 -1 -39.5t-2 -60.5t-2 -60.5t-1 -39.5l-11 -11t-16.5 -17t-16.5 -16.5t-11 -10.5q-1 -1 -5 -4l-8 -6t-7.5 -6t-3.5 -4l-10.5 -10.5l-10.5 -10.5h-4
q-6 0 -10.5 4.5t-7.5 10.5t-5 12t-3 8q0 1 -2 3t-2 3q-2 2 -4 5.5t-2 4.5v255q0 10 4 14.5t9.5 7.5t11.5 6t9 10h86zM467 258q7 0 14 6.5t12.5 16t9 19t4.5 15.5q0 9 1 31t2 46.5t1.5 47t0.5 31.5v10q0 14 -9 17t-20 3q-2 0 -8 -0.5t-8 -0.5v-242zM1219 340q0 -3 -2 -3t-3 3
q0 2 2.5 2t2.5 -2zM1179 425q4 0 4 -4.5t-4 -4.5q-3 0 -3 4.5t3 4.5zM1164 515h30q0 -2 -2 -4.5t-3 -4.5q0 -3 -1 -11t-2 -17t-1.5 -16.5t-0.5 -10.5q-3 2 -6 6t-3 8q-1 2 -2 8.5t-1.5 14t-1.5 14t-1 8.5zM1202 517q11 0 14.5 -3.5t7.5 -13.5q2 7 7 13t13 6v-68h-5
q-2 8 -8 16.5t-14 13.5v-30q-5 1 -8.5 5.5t-3.5 8.5q-1 3 -1.5 10t-1 15.5t-0.5 16v10.5zM813 536q4 0 4 -5t-4 -5t-4 5t4 5zM625 742q-5 4 -8.5 11.5t-3.5 15.5v3q1 0 4.5 1.5t5.5 2.5v100l-30 36h115l5 -5v-1q0 -1 0.5 -1.5t0.5 -1.5l-1 -1q-6 -8 -15 -16.5t-20 -9.5v-100
q5 0 18 -2t17 -2q1 -2 2.5 -3.5t1.5 -2.5q-9 -14 -15 -21t-24 -9v-123h37v-3q0 -3 -2 -5q-6 -11 -10.5 -10t-14.5 -4q-2 -1 -7.5 -5.5t-7.5 -4.5q-2 -1 -8 -0.5t-7 0.5q-2 -1 -10.5 -7.5t-9.5 -8.5h-3h-2q-2 2 -5 5.5t-3 4.5v167zM15 581q3 4 10.5 14.5t15.5 22.5l15 22.5
t10 15.5q3 4 4 7t1.5 6t1.5 7t3 10t6 11.5t8.5 10.5t8 10.5t3.5 12.5q0 5 -6.5 12t-14.5 13.5t-17 12t-13 7.5q-2 1 -7.5 2.5t-7.5 2.5q-4 2 -13.5 12t-11.5 13q-1 1 -1 2v3q0 7 8 15.5t13 4.5l55 61l15 6t10 14h55q-1 -3 -3 -11t-4 -17t-4 -17t-3 -11q-2 -2 -3 -5t-2 -5h-3
h-3q-2 2 -5.5 7.5t-4.5 7.5q-1 0 -1 1t-0.5 1t-0.5 1l-2 2q-3 -2 -8.5 -7.5t-12 -11.5t-12.5 -12l-8 -8q-1 -2 -3 -5.5t-2 -5.5v-2v-3q12 -10 25 -18.5t23 -18t16.5 -21.5t6.5 -29v-9q-4 -5 -13 -18.5t-19.5 -28.5t-20 -28.5t-13.5 -18.5q-2 -2 -11 -12t-14 -14q-1 0 -5 -2
t-5 -2q-10 -8 -16 -14.5t-20 -6.5v11zM1260 581q3 4 10 14.5t14.5 22.5t14.5 22.5t10 15.5q6 9 6 13t4 17q2 6 6.5 11.5t9 10.5t7.5 10.5t3 12.5q0 5 -6 12t-14 13.5t-16.5 12t-13.5 7.5q-2 1 -8 2.5t-7 2.5q-2 1 -5.5 4.5t-8 7.5t-8 7.5t-4.5 5.5v5q0 7 7.5 15.5t12.5 4.5
l55 61l15 6t10 14h56q-1 -3 -3.5 -11t-4.5 -17t-4 -17t-3 -11q0 -2 -2 -5t-3 -5h-3h-3q0 2 -4.5 7.5t-5.5 7.5q0 1 -1.5 3t-2.5 2q-3 -2 -8.5 -7.5t-12 -11.5t-12.5 -12l-8 -8q0 -2 -2 -5.5t-2 -5.5v-2v-3q12 -10 24.5 -18.5t22.5 -18t16.5 -21.5t6.5 -29v-9
q-3 -5 -12.5 -18.5t-20 -28.5t-20 -28.5t-13.5 -18.5q-2 -2 -11.5 -12t-13.5 -14l-9 -4q-11 -8 -16.5 -14.5t-18.5 -6.5v11zM748 882q-2 0 -7.5 1.5t-7.5 2.5l-1 2v2q0 1 1 2l2 2l2 2q2 1 13 0.5t13 -0.5q2 1 12.5 3t12.5 3q2 0 8.5 1t14 2t14 1.5t8.5 0.5q1 0 3 2t2 3h2
q7 0 13 -4.5t10.5 -11.5t7 -14t2.5 -13q0 -12 -4.5 -23t-10.5 -21.5t-10.5 -21t-4.5 -22.5v-9l61 -177h-11q-2 5 -9.5 16.5t-10.5 14.5q-1 1 -9.5 7t-10.5 8l-5.5 5.5t-4.5 3.5q-14 29 -23 59.5t-29 56.5v-191h-8q-4 23 -14.5 40t-15.5 35v31q0 11 -0.5 39.5t-1.5 61t-2 61
t-1 39.5zM455 882q-2 2 -6.5 7t-6.5 7q-1 0 -1 1v2q0 5 3 6.5t6.5 1.5t7 0.5t4.5 4.5h90l20 -30v-206l-3.5 -6t-8 -14t-10 -16t-8.5 -14q-2 -4 -5.5 -9.5t-4.5 -5.5q-2 -2 -12.5 -3.5t-12.5 -2.5q-2 0 -10 -9t-10 -10h-3h-1q-3 10 -4 23.5t-3 26.5t-6.5 24t-14.5 16v206z
M924 772l9 9q1 1 3 11t4 23.5t4.5 27.5t3.5 23v9q0 10 -2 17.5t-7 19.5h99q2 0 3.5 -2t2.5 -3q0 -2 2.5 -9.5t2.5 -11.5q1 -3 3 -16.5t4.5 -28.5t5 -28t2.5 -16q1 -9 4 -12l5 -5l4 -4t2 -9q0 -11 -2.5 -18t-2.5 -18q0 -36 8 -71t8 -71q-12 0 -13 4t-8 12q-2 2 -10 10.5
t-10 10.5q0 1 -2 6.5t-3 8.5t-3 13.5t-5 23.5t-5 23.5t-3 13.5q0 5 -2 13l-2 8h-45q-6 0 -9.5 -21.5t-7 -48t-7.5 -49.5t-12 -26q-2 1 -4.5 11.5t-5 24t-5 26t-4.5 18.5v101zM203 876q-1 0 -5.5 2t-5.5 4q-2 2 -4 9.5t-2 10.5q4 -2 12.5 -1.5t8.5 8.5h105l24 -27v-85
l-24 -25h-16l-5 -3.5t-11 -8t-12.5 -10t-10.5 -8.5q-2 -2 -5.5 -6t-4.5 -5q0 -3 -1 -11t-2 -16.5t-2 -16.5t-1 -11q0 -6 -3 -17.5t-8 -23t-12 -19.5t-15 -8v268zM1164 656q-3 66 -18 122.5t-37 117.5v3h20q2 3 5 8t7 5q10 0 13.5 -15t6 -33t6 -33t12.5 -15q8 0 10 5v40
q1 3 3 12.5t2 12.5q2 6 10 7t10 3q2 1 8 7.5t8 8.5q1 1 7.5 2t8.5 1q0 -17 -12 -33q-2 -9 -7.5 -31t-11 -47t-10.5 -47t-6 -31q-1 -6 -2 -22.5t-1.5 -35t-1 -35t-0.5 -22.5l-2 -1h-2q-1 0 -1 1q-1 0 -3 1.5t-2 3.5q-3 5 -10.5 20t-9.5 20zM377 666q0 9 -1 32t-1.5 48.5
t-1.5 48.5t-1 32q0 3 -0.5 10t-1.5 14.5t-2 14.5t-1 10q0 2 -2 8t-2 8q-1 1 -1 3q-1 1 -1 4q0 1 1 3.5t1 4.5q0 -2 3.5 -3.5t5.5 -1.5l2 -1h2q1 0 1 1l3 3t2 4h30v-295q-6 0 -9.5 3.5t-5.5 9t-3 11t-3 8.5q0 3 -6 10.5t-8 9.5zM497 650q7 0 13 6t11 14t9 16.5t8 14.5v136
q-5 10 -7.5 22.5t-2.5 22.5h-31v-232zM979 781q3 -2 14.5 -5.5t14.5 -3.5q2 0 5.5 1t5.5 3v2q0 10 -4.5 24.5t-6.5 24.5q0 3 -1.5 12.5t-3 20t-3 19.5t-1.5 13l-5 -6q-1 0 -3 -11.5t-4 -27.5t-4.5 -33t-3.5 -28v-3v-2zM247 783q5 0 13 3t16 8t14 10.5t6 11.5v60h-49v-93z
M788 804q0 -7 2.5 -10t10.5 -3q4 0 11 9t14 21t12.5 23t5.5 15l-1 2l-5 5q0 2 -1 8t-1 8h-43q0 -4 -1 -13.5t-1.5 -19.5t-1.5 -19.5t-1 -13.5v-12zM623 912q3 0 3 -5t-3 -5q-4 0 -4 5t4 5zM959 912q4 0 4 -5t-4 -5q-5 0 -5 5t5 5zM442 916q3 0 3 -4.5t-3 -4.5q-4 0 -4 4.5
t4 4.5z" />
    <glyph glyph-name="minus" unicode="&#x2212;" horiz-adv-x="1166" 
d="M983 448v-60h-799v60h799z" />
    <glyph glyph-name="backslash" unicode="\" horiz-adv-x="414" 
d="M-20 830q-8 5 -9.5 10.5t-1.5 13.5q0 36 32 36q51 0 189 -287l4 -8q71 -147 126 -264t95 -208q79 -182 79 -207q0 -20 -14.5 -33t-31.5 -13q-20 0 -164 330q-73 166 -149 322.5t-155 307.5z" />
    <glyph glyph-name="AE" unicode="&#xc6;" horiz-adv-x="1176" 
d="M223 402q36 4 60 5.5t43.5 2t40 0t49.5 0.5q3 73 6.5 120.5t9 86t12 74.5t14.5 86q-23 -26 -41.5 -47.5t-34.5 -43.5t-31.5 -47t-34 -58t-41 -76.5t-52.5 -102.5zM405 336q-35 -3 -60 -3t-48 -0.5t-49.5 -3t-65.5 -9.5q-2 -5 -11 -20.5t-21 -36.5l-26 -45.5t-26 -46.5
t-21 -39t-12 -24l-10 -24q-37 -101 -83 -101q-6 0 -10 5t-4 13q0 22 22.5 80t67.5 154q44 94 102.5 202t130.5 230q114 195 185 195q9 0 23.5 -4.5t39.5 -13.5q6 -34 3.5 -62.5t-8 -62.5t-12.5 -79t-11 -113q-5 -90 -11 -184t-6 -195q0 -16 0.5 -38t1.5 -36q0 -5 0.5 -8
t0.5 -4q0 -44 -43 -44q-34 0 -36 152q-1 8 0 32t2 51.5t0 51t-5 31.5zM681 433q-14 -36 -31 -88t-33 -104t-29 -95.5t-17 -60.5q79 10 139 14t103.5 5t71.5 0t43 -1q58 0 58 -16q0 -19 -58 -28q-10 0 -14 -2q-43 -7 -97.5 -14t-114.5 -22q-63 -16 -101 -19t-53 -3
q-23 0 -41.5 18.5t-18.5 44.5q0 8 11.5 49t33.5 126v-1l150 542q8 26 19.5 40t18.5 18q16 0 51 -0.5t79 -2.5t91 -4.5t87 -4.5t67 -3.5t31 -1.5q15 -2 15 -7q0 -14 -41.5 -29t-119.5 -20q-61 -3 -113 -4t-94 -7q-11 -30 -22 -63t-21.5 -65.5t-20.5 -63.5t-17 -57
q28 3 70.5 5t82 1t68 -5.5t28.5 -13.5q0 -15 -5.5 -27.5t-18.5 -13.5q-28 -2 -45.5 -1t-40 0.5t-57 -3.5t-94.5 -12z" />
    <glyph glyph-name="OE" unicode="&#x152;" horiz-adv-x="1298" 
d="M110 217q0 -86 42 -133.5t117 -47.5q71 0 139 48t124 135q26 44 48.5 94t38.5 104q16 55 25 108t9 101q0 81 -31.5 123t-90.5 42q-54 0 -106.5 -31t-109.5 -97q-97 -114 -151 -230t-54 -216zM583 831q34 -15 60 -34.5t42.5 -46.5t25 -63t8.5 -84q0 -39 -6 -83
t-17.5 -89.5t-27.5 -91t-37 -87.5q-59 -122 -154 -198q-91 -73 -179 -73q-25 0 -52.5 5t-53.5 14.5t-49.5 23t-41.5 31.5q-33 29 -50 76t-17 108q0 88 37 187.5t108 198.5q39 54 79 98t83 78q21 17 44.5 30t52 18.5t64 2t81.5 -20.5zM793 433q-14 -36 -31 -88t-33 -104
t-29 -95.5t-17 -60.5q79 10 139 14t103.5 5t71.5 0t43 -1q58 0 58 -16q0 -19 -58 -28q-10 0 -14 -2q-43 -7 -97.5 -14t-114.5 -22q-63 -16 -101 -19t-53 -3q-23 0 -41.5 18.5t-18.5 44.5q0 8 11.5 49t33.5 126v-1l150 542q8 26 19.5 40t18.5 18q16 0 51 -0.5t79 -2.5
t91 -4.5t87 -4.5t67 -3.5t31 -1.5q15 -2 15 -7q0 -14 -41.5 -29t-119.5 -20q-61 -3 -113 -4t-94 -7q-11 -30 -22 -63t-21.5 -65.5t-20.5 -63.5t-17 -57q28 3 70.5 5t82 1t68 -5.5t28.5 -13.5q0 -15 -5.5 -27.5t-18.5 -13.5q-28 -2 -45.5 -1t-40 0.5t-57 -3.5t-94.5 -12z" />
    <glyph glyph-name="trademark" unicode="&#x2122;" horiz-adv-x="555" 
d="M97 868h-2.5t-6 -0.5t-14 -1.5t-25.5 -2q-11 -1 -17 -1.5t-8 -0.5q-6 0 -10 6t-4 14q0 7 50 13h-1q28 4 59.5 6t69.5 2q36 0 50.5 -3.5t14.5 -13.5q0 -5 -17.5 -7t-38 -3t-37 -1.5t-14.5 -3.5q-17 -48 -32.5 -92.5t-28.5 -86.5q-12 -40 -21.5 -70.5t-15.5 -51.5
q-5 -19 -9 -24t-11 -5q-8 0 -12 4.5t-4 10.5t6 31t18 66q12 42 28 95t33 120zM326 866q-16 -26 -28 -51t-22.5 -50.5t-20 -52t-19.5 -55.5q-39 -108 -43 -108q-6 0 -12 4.5t-6 9.5q0 7 7.5 29t20.5 54q14 36 30.5 83.5t39.5 98.5q11 25 20 40t16.5 22.5t14 10t12.5 2.5
q13 0 21.5 -2.5t9.5 -6.5q0 1 -1 0v-1q0 -2 -1 -3.5t-1 -3.5q-8 -24 -14 -46t-9.5 -45.5t-5.5 -50.5t-1 -63q15 31 28.5 54t26 42t24.5 35.5t24 35.5q24 38 40.5 50.5t24.5 12.5q3 0 9 0.5t12.5 -1t12.5 -5.5t9 -13q-35 -75 -59.5 -151.5t-36.5 -152.5q-2 -14 -6 -22.5
t-7 -8.5q-14 0 -14 19q0 20 6.5 50.5t17.5 71.5q11 43 23.5 86.5t32.5 92.5q-17 -16 -33 -33.5t-32 -40.5t-33.5 -53t-37.5 -69q-2 -2 -4 -6q-2 -3 -3.5 -6.5t-3.5 -7.5q-2 -6 -10.5 -19t-16.5 -13q-12 0 -19.5 5.5t-7.5 13.5q0 22 0.5 45t2.5 49t7.5 56.5t14.5 67.5z" />
    <glyph glyph-name="t" unicode="t" horiz-adv-x="235" 
d="M189 633q-29 10 -79 23t-111.5 25t-129.5 20t-132 8q-50 0 -95.5 -6t-81.5 -20.5t-60.5 -38.5t-31.5 -59q-9 -38 2 -53t32 -15q13 0 29 5t31.5 12t30.5 15.5t26 16.5t21 14t20 6q5 0 6.5 -5.5t0 -13t-6 -15t-10.5 -11.5q-33 -35 -71.5 -60t-87.5 -25q-15 0 -30 6.5
t-27 19t-19.5 31.5t-7.5 45q1 60 28.5 100t74.5 64t108.5 34.5t130.5 10.5q60 0 124 -7t125 -17.5t116.5 -24.5t99.5 -27q11 14 21.5 39t21.5 55q10 28 22 57t24 52.5t24.5 38.5t24.5 15q2 0 7 -1.5t9 -5t6 -10.5t-1 -17q-25 -73 -55 -131.5t-51 -104.5q56 -14 116 -21.5
t129 -7.5q79 0 162.5 10t163 29.5t150 49t123.5 67.5h8q7 1 10 -1t1 -13q-5 -38 -65 -86q-41 -31 -98.5 -52t-124 -34t-138.5 -19t-142 -6q-92 0 -174.5 7.5t-142.5 18.5q-13 -31 -31 -72.5t-37.5 -89t-39 -98t-37 -99t-31 -91.5t-20.5 -76q-10 -33 -4.5 -40.5t19 1t32 28.5
t36.5 42.5t31 42t16 27.5q2 7 9 7.5t13 -3.5t9.5 -10.5t-1.5 -14.5q-10 -29 -32 -61t-47.5 -59t-49.5 -45t-37 -18q-19 0 -34.5 17t-15.5 64q0 33 9.5 81.5t32.5 116t61 155.5t95 201z" />
    <glyph glyph-name="F" unicode="F" horiz-adv-x="767" 
d="M42 25q3 45 17.5 95.5t34.5 103t43.5 106t44.5 105.5q-11 3 -37 13t-53 35t-47.5 69.5t-20.5 116.5q0 48 22.5 80.5t58 52t80 28.5t88 11t81.5 -1t61 -7q38 -8 70.5 -11.5t64 -3t63.5 5.5t68 15q29 8 56.5 15t54.5 7q18 0 23 -4.5t5 -26.5q0 -23 -22.5 -38.5t-71 -25
t-126.5 -13.5t-189 -4l-25 -46q-9 -17 -23.5 -45t-30 -59.5t-29 -62.5t-21.5 -53q29 -4 53.5 -4t47 2l45 4t48.5 2q15 0 23.5 -2.5t8.5 -22.5q0 -17 -14 -25.5t-36.5 -11.5t-50.5 -2t-56 3t-53.5 3t-41.5 -1q-13 -27 -30.5 -70t-37 -92.5t-39.5 -100t-37.5 -91t-31 -66
t-20.5 -25.5t-10.5 4t-5 10.5t-2 14t-0.5 13.5zM87 638q0 -26 9 -51.5t25 -46t36 -33t43 -12.5q9 16 27 51.5t39 76t41 79.5t32 62q-40 10 -84 8.5t-81 -16t-61.5 -44t-25.5 -74.5z" />
    <glyph glyph-name="uniFB01" unicode="&#xfb01;" horiz-adv-x="469" 
d="M123 290q-18 -52 -32 -107t-24 -112q-7 -38 -19 -58t-30 -20q-26 0 -26 20q0 23 20.5 97.5t55.5 180.5h-18q-20 0 -32 6.5t-12 16.5q0 7 18 12.5t58 10.5q31 117 68 210t80 163q10 26 30.5 47.5t45.5 36t52 21t48.5 2.5t35.5 -20.5t14 -46.5q0 -6 -7.5 -12t-15.5 -6
q-10 0 -19 16v-1q-14 27 -37 27q-87 0 -226 -399l-12 -35h25q4 0 8 -0.5t6 -0.5q36 0 48 -4.5t12 -18.5q0 -8 -3 -13t-13 -8t-28 -4t-48 -1h-23zM351 429q-17 0 -27 7.5t-10 22.5q0 10 6.5 19t17 16t23 10.5t25.5 3.5q27 0 27 -25q0 -10 -5.5 -20t-14.5 -17.5t-20 -12
t-22 -4.5zM228 102q0 60 21 140q20 81 39 106q8 11 23 17.5t35 6.5q16 0 16 -12q0 -6 -8 -26l-10 -26l-9 -26q-59 -161 -59 -204q0 -40 33 -40q10 0 26.5 8.5t37 25.5t43 44t43.5 64q1 11 6.5 15.5t11.5 4.5t11 -3.5t5 -9.5q0 -30 -19.5 -64t-49 -63t-64 -48t-64 -18.5
t-49 25.5t-19.5 83z" />
    <glyph glyph-name="uniFB02" unicode="&#xfb02;" horiz-adv-x="538" 
d="M123 290q-18 -52 -32 -107t-24 -112q-7 -38 -19 -58t-30 -20q-26 0 -26 20q0 23 20.5 97.5t55.5 180.5h-18q-20 0 -32 6.5t-12 16.5q0 7 18 12.5t58 10.5q31 117 68 210t80 163q10 26 30.5 47.5t45.5 36t52 21t48.5 2.5t35.5 -20.5t14 -46.5q0 -6 -7.5 -12t-15.5 -6
q-10 0 -19 16v-1q-14 27 -37 27q-87 0 -226 -399l-12 -35h25q4 0 8 -0.5t6 -0.5q36 0 48 -4.5t12 -18.5q0 -8 -3 -13t-13 -8t-28 -4t-48 -1h-23zM351 279q12 19 31.5 54t41.5 78t44.5 91.5t42 94.5t34 86.5t19.5 68.5t-1.5 40t-28.5 0q-66 -146 -108.5 -277t-74.5 -236z
M277 149q16 66 39.5 149t50.5 169.5t56 171.5t56 156q1 13 8 23.5t15.5 17.5t17.5 10.5t16 3.5q12 0 26 -7t25.5 -17.5t19 -23.5t7.5 -25q0 -59 -76 -230q-38 -86 -87.5 -173.5t-111.5 -181.5q-9 -48 -9 -80q0 -52 10.5 -73t36.5 -21q16 0 33.5 17.5t34.5 42t32.5 50.5
t28.5 44t22.5 22.5t14.5 -15.5l1 3l-4 -11v2q-22 -42 -36.5 -70t-22.5 -39q-17 -27 -37 -47t-38 -29t-41 -9q-17 0 -33 9.5t-28.5 25t-20 36t-7.5 41.5q0 16 -1 29t2 29z" />
    <glyph glyph-name="ae" unicode="&#xe6;" horiz-adv-x="602" 
d="M199 322q0 31 -31 31q-25 0 -57.5 -33t-64.5 -91q-29 -54 -46.5 -104t-17.5 -77q1 -29 24 -24q16 2 41.5 26.5t52.5 63.5q20 32 38 63t32 63q29 67 29 82zM154 111q-47 -60 -87.5 -92.5t-76.5 -32.5q-26 0 -43 21t-17 53q0 48 18 103t54 115q34 61 72 96t70 35
q10 0 33.5 -6.5t46 -20t36.5 -33t4 -45.5q-39 -96 -54.5 -150t-15.5 -74q0 -15 4.5 -21.5t18.5 -6.5q12 0 29 20.5t34 45.5t32.5 45.5t23.5 20.5q4 0 8 -7.5t4 -13.5q0 -10 -18 -38t-45 -64q-23 -30 -41.5 -42.5t-37.5 -12.5q-26 0 -39.5 19t-13.5 53q0 8 0.5 13t0.5 9v11z
M416 162q14 0 28 8.5t27 33.5q6 12 11 28.5t9.5 33.5t7 33t2.5 27t-7 20t-18 9q-22 0 -53 -50q-7 -11 -13.5 -26t-11.5 -30t-8 -28t-3 -20q0 -23 6.5 -31t22.5 -8zM362 158q-4 -17 -11 -42t-7 -45q0 -41 18.5 -57t42.5 -16q17 0 37.5 14t40.5 35t39.5 46t35.5 46t27.5 35
t16.5 14q3 0 6.5 -4.5t3.5 -11.5q0 -5 -4 -15.5t-11.5 -23.5t-17 -28t-21.5 -30q-42 -53 -83 -81t-83 -28q-88 0 -88 103q0 30 6.5 64.5t20.5 74.5q26 81 70 143q27 38 55 38q9 0 23.5 -4t28.5 -11.5t24 -17.5t10 -22q0 -78 -44 -140q-33 -51 -63 -60t-73 24z" />
    <glyph glyph-name="oe" unicode="&#x153;" horiz-adv-x="546" 
d="M231 230q26 8 41.5 22.5t32.5 34.5l14.5 14.5t16.5 13.5t14 4.5t6 -11.5q0 -20 -16 -40.5t-37.5 -37.5t-44 -28.5t-35.5 -13.5q-29 -106 -75 -161.5t-105 -55.5q-42 0 -67 28t-25 75q0 23 5.5 51t16 58t25.5 60.5t34 59.5q38 62 76 62q57 0 88.5 -29.5t34.5 -105.5z
M12 67q0 -53 40 -53q43 0 87 85q43 80 43 159q0 22 -9.5 35.5t-25.5 13.5q-39 0 -89 -85q-46 -81 -46 -155zM367 162q14 0 28 8.5t27 33.5q6 12 11 28.5t9.5 33.5t7 33t2.5 27t-7 20t-18 9q-22 0 -53 -50q-7 -11 -13.5 -26t-11.5 -30t-8 -28t-3 -20q0 -23 6.5 -31t22.5 -8z
M313 158q-4 -17 -11 -42t-7 -45q0 -41 18.5 -57t42.5 -16q17 0 37.5 14t40.5 35t39.5 46t35.5 46t27.5 35t16.5 14q3 0 6.5 -4.5t3.5 -11.5q0 -5 -4 -15.5t-11.5 -23.5t-17 -28t-21.5 -30q-42 -53 -83 -81t-83 -28q-88 0 -88 103q0 30 6.5 64.5t20.5 74.5q26 81 70 143
q27 38 55 38q9 0 23.5 -4t28.5 -11.5t24 -17.5t10 -22q0 -78 -44 -140q-33 -51 -63 -60t-73 24z" />
    <glyph glyph-name="dollar" unicode="$" horiz-adv-x="560" 
d="M621 719q0 -9 -12 -17.5t-25 -8.5q-9 0 -16.5 6.5t-15 15.5t-15.5 19t-18 18q-45 34 -84.5 38.5t-73 -11.5t-60 -47t-45 -68.5t-28.5 -76t-10 -69.5q0 -49 44.5 -112.5t122.5 -134.5q27 -23 36.5 -45t9.5 -39q0 -71 -24 -111.5t-60 -60.5t-78.5 -23.5t-79 0.5t-61.5 10.5
t-27 6.5q-17 0 -23.5 0.5t-7 1.5t1.5 4t1.5 7.5t-5 12t-19.5 18.5q-85 65 -85 126q0 14 10.5 26t22.5 12q7 0 16 -23q2 -3 3 -6.5t2 -6.5q32 -63 86.5 -95.5t129.5 -32.5q24 0 43.5 12t34 31t22 40.5t6.5 41.5q-8 29 -37 74.5t-83 93.5q-29 25 -44.5 50t-24.5 45
q-18 39 -18 90q0 35 13 77t35.5 83.5t53.5 79.5t67.5 64t76.5 37.5t81.5 1t82.5 -47.5t78 -107zM508 943l-371 -1030h-66l371 1030h66z" />
    <glyph glyph-name="degree" unicode="&#xb0;" horiz-adv-x="833" 
d="M508 943l-371 -1030h-66l371 1030h66z" />
    <glyph glyph-name="cent" unicode="&#xa2;" horiz-adv-x="616" 
d="M545 979l-49 -126q22 -6 43.5 -16.5t38.5 -24.5t28 -32.5t11 -40.5q0 -23 -13 -39t-30 -16q-12 0 -18 12t-11 48q-3 20 -21.5 34.5t-47.5 14.5l-227 -727q38 1 78.5 15t88.5 42q11 8 24.5 17t33.5 25q31 23 44 23q4 0 4 -9q0 -11 -9.5 -32t-39.5 -46q-26 -19 -54.5 -34.5
t-57 -26.5t-55 -17t-46.5 -6h-26l-43 -141h-79l49 157q-61 22 -95 69.5t-34 116.5q0 42 14 97t40 118.5t63 133t84 140.5q50 74 101 110.5t86 43.5l46 117h79zM273 645q-36 -49 -66 -103t-53 -114q-21 -59 -32 -111.5t-11 -100.5q0 -99 65 -136l211 680q-27 -20 -56 -49
t-58 -66z" />
    <glyph glyph-name="onequarter" unicode="&#xbc;" horiz-adv-x="892" 
d="M97.2148 272.841q11.2168 56.6865 45.8027 165.698t88.1777 258.514q-3.11523 0 -9.9707 -0.311523q-6.85449 -0.311523 -9.34766 -0.311523q-4.98438 -0.623047 -10.2822 -0.93457q-5.29688 -0.311523 -11.5283 -0.311523q-17.4482 0 -24.3037 3.11523
q-6.85449 3.11426 -6.85449 9.9668q0 19.9336 27.4189 28.6543q27.4199 8.7207 92.2295 8.7207q13.71 0 22.7451 -5.29492q9.03613 -5.29492 9.03613 -12.7695q0 -3.7373 -19.3184 -49.834q-42.375 -98.4219 -79.4541 -201.828q-37.0781 -103.405 -65.7441 -203.073h12.4639
q17.4482 0 28.9775 -5.60645q11.5283 -5.60547 11.5283 -14.3271q0 -13.7041 -25.5498 -17.4414h0.623047q-1.24609 0 -2.80469 -0.311523q-1.55762 -0.311523 -2.80371 -0.311523h-3.42773q-2.18066 0 -3.42773 -0.623047l-76.0264 -13.0811
q-12.4629 -1.86914 -20.876 -3.42676q-8.41309 -1.55664 -14.0215 -2.80273q-3.73926 -1.24609 -5.29688 -1.24609h-2.18066q-10.5947 0 -19.6299 9.03223q-9.03613 9.0332 -9.03613 20.8682q0 6.85254 15.8906 12.459t45.8027 9.9668q1.24707 0 2.18164 0.311523
q0.93457 0.310547 2.18066 0.310547q6.85547 0 11.8398 1.24609zM661 830q-79 -151 -155 -307.5t-149 -322.5q-144 -330 -164 -330q-17 0 -31.5 13t-14.5 33q0 25 79 207q40 91 95 208t126 264l4 8q138 287 189 287q32 0 32 -36q0 -8 -1.5 -13.5t-9.5 -10.5z
M468.907 104.214q-30.8574 -1.21191 -65.6475 -3.63477q-34.7891 -2.42383 -64.4365 -5.45312q-30.252 -3.03027 -44.4707 -4.54492t-15.4287 -1.51465q-10.2852 0 -17.8486 9.69434q-7.5625 9.69434 -7.5625 24.2363q0 16.9648 45.3779 73.3135
q23.5967 29.6885 75.3271 87.8545q51.7314 58.166 134.622 146.627q34.4873 37.5654 60.2021 59.0752q25.7139 21.5088 35.999 21.5088q10.8916 0 20.5723 -1.81738t17.2432 -4.54395q7.56348 -2.72656 12.1006 -6.3623q4.53809 -3.63574 4.53809 -7.27051
q0 -1.21191 -7.86523 -18.7832q-31.4619 -72.707 -61.4121 -156.321q-29.9492 -83.6133 -57.7812 -172.074q1.20996 0 6.05078 -0.302734q4.83984 -0.302734 7.86523 -0.302734q2.41992 -0.606445 5.44531 -0.606445h4.23535q32.0674 0 44.4707 -6.36133
q12.4033 -6.3623 12.4033 -22.7217q0 -3.63477 -1.20996 -9.69434l1.20996 1.21191l4.23535 1.81738h-6.05078q-3.02539 0 -5.74805 0.303711q-2.72266 0.302734 -4.53711 0.302734q-4.23535 0.605469 -9.07617 0.605469h-7.86523q-6.05078 0 -15.4287 -0.302734
t-22.084 -0.90918l-27.832 -1.21094q-8.4707 -20.6006 -15.126 -42.4131t-13.3105 -44.2305q-6.65625 -20.6006 -12.4033 -31.8096q-5.74805 -11.209 -10.5889 -11.209q-10.2852 0 -16.0332 6.66504t-5.74805 16.9648q0 7.27051 5.14258 30.5977
q5.14355 23.3271 14.2188 61.498zM483.428 148.444q11.4961 30.9014 26.3193 71.7988q14.8242 40.8984 32.3701 92.3994q17.5459 52.1064 30.5547 88.1572q13.0078 36.0508 20.874 56.0459l-9.07617 6.66504q-40.5371 -44.2305 -79.8652 -88.7637
q-39.3271 -44.5342 -75.9326 -86.6436t-69.8818 -81.4932q-33.2773 -39.3828 -61.7148 -73.9189q22.9922 2.42383 47.1934 4.24121q24.2021 1.81738 47.7979 3.33203q23.5967 1.51465 45.3789 2.42383q21.7812 0.90918 40.5371 1.51465z" />
    <glyph glyph-name="onehalf" unicode="&#xbd;" horiz-adv-x="1010" 
d="M109.055 263.497q11.2168 56.6865 45.8027 165.698t88.1787 258.514q-3.11621 0 -9.9707 -0.311523q-6.85547 -0.311523 -9.34766 -0.311523q-4.98535 -0.623047 -10.2822 -0.93457t-11.5293 -0.311523q-17.4482 0 -24.3027 3.11523q-6.85547 3.11426 -6.85547 9.9668
q0 19.9336 27.4199 28.6543q27.4189 8.7207 92.2285 8.7207q13.71 0 22.7461 -5.29492t9.03613 -12.7695q0 -3.7373 -19.3184 -49.834q-42.376 -98.4219 -79.4541 -201.828q-37.0791 -103.405 -65.7441 -203.073h12.4629q17.4492 0 28.9775 -5.60645t11.5283 -14.3271
q0 -13.7041 -25.5498 -17.4414h0.623047q-1.24609 0 -2.80371 -0.311523q-1.55859 -0.311523 -2.80469 -0.311523h-3.42773q-2.18066 0 -3.42676 -0.623047l-76.0264 -13.0811q-12.4639 -1.86914 -20.877 -3.42676q-8.41211 -1.55762 -14.0215 -2.80273
q-3.73828 -1.24609 -5.29688 -1.24609h-2.18066q-10.5938 0 -19.6299 9.03223t-9.03613 20.8682q0 6.85254 15.8906 12.458q15.8916 5.60645 45.8037 9.9668q1.24609 0 2.18066 0.311523t2.18066 0.311523q6.85547 0 11.8408 1.24609zM705 830q-79 -151 -155 -307.5
t-149 -322.5q-144 -330 -164 -330q-17 0 -31.5 13t-14.5 33q0 25 79 207q40 91 95 208t126 264l4 8q138 287 189 287q32 0 32 -36q0 -8 -1.5 -13.5t-9.5 -10.5zM488.696 56.2705l25.21 1.94043q22.625 1.29395 38.4629 1.94043q15.8369 0.646484 26.8262 0.646484
q26.5029 0 43.3105 -1.29297q16.8066 -1.29395 26.1797 -4.52734q9.37305 -3.23438 12.9287 -9.05566t3.55566 -14.876q0 -7.76172 -5.17188 -12.9355q-5.1709 -5.1748 -13.5742 -7.76172q-7.11133 0 -13.252 0.323242q-6.1416 0.323242 -11.959 0.970703
q-9.0498 0.646484 -17.1299 0.646484h-15.8379q-42.0176 0 -88.2363 -4.52734q-46.2197 -4.52734 -97.2871 -13.583h0.646484l-14.2217 -1.94043q-7.11035 -1.29297 -11.6348 -1.94043q-4.52539 -0.646484 -7.11133 -0.646484q-10.3428 0 -15.5137 11.3184
q-5.17188 11.3193 -5.17188 30.7227q0 5.1748 5.81836 8.73242q5.81738 3.55664 15.5137 6.14355q19.3926 2.58789 42.0176 10.9961q46.543 20.6973 106.014 82.1426q59.4707 61.4443 127.991 159.757q16.1611 23.9307 29.4131 46.8916q13.251 22.9609 22.624 43.335
q9.37402 20.374 14.2217 37.8379q4.84863 17.4629 4.84863 29.752q0 16.1699 -9.05078 24.9014q-9.0498 8.73145 -25.8564 8.73145q-19.3926 0 -46.8662 -12.9355q-27.4727 -12.9355 -55.915 -36.8672q-39.4316 -34.2793 -74.9854 -71.4697
q-35.5527 -37.1904 -61.4102 -73.4111q-2.58594 -3.88086 -5.49414 -7.76172q-2.90918 -3.87988 -5.49512 -7.76074v0.646484q-12.9287 -18.1104 -17.4531 -18.1104q-9.0498 0 -17.1309 8.4082q-8.08008 8.4082 -8.08008 17.4639q0 4.52734 5.81836 15.8457
q5.81738 11.3193 16.4834 27.165q10.666 15.8467 24.8877 35.251q14.2207 19.4033 31.0283 40.7471q27.1494 33.6328 53.6533 60.4746q26.5029 26.8418 50.0977 45.5986q23.5938 18.7578 44.2793 29.1055q20.6855 10.3496 36.8467 10.3496q17.4531 0 38.7852 -12.6133
q21.332 -12.6123 39.7549 -30.3984q18.4229 -17.7871 31.0283 -37.1904q12.6055 -19.4043 12.6055 -32.9863q0 -61.4453 -80.8027 -168.165q-41.3711 -54.3311 -93.4082 -106.721t-112.801 -109.308z" />
    <glyph glyph-name="threequarters" unicode="&#xbe;" horiz-adv-x="1128" 
d="M301.93 472.431q38.5312 -20.2109 60.3232 -43.2637q21.792 -23.0537 23.0557 -55.8965q0 -2.52637 0.31543 -4.4209t0.31543 -3.78906q0 -2.52734 0.316406 -4.42188q0.31543 -1.89453 0.31543 -3.1582q0 -11.3682 -6 -24.3154q-6.00098 -12.9482 -16.4238 -26.5273
q-10.4219 -13.5791 -24.9502 -26.8428q-14.5273 -13.2637 -31.582 -24.6318q-41.6895 -26.5264 -82.7471 -41.3691t-75.166 -14.8428q-22.1084 0 -41.0576 6q-18.9502 6 -34.7412 16.7373q-29.6875 24.001 -29.6875 50.5273q0 14.5264 8.21094 27.1592
q8.21191 12.6309 17.0547 12.6309q8.84375 0 16.4229 -22.1055l7.58008 -20.2109q6.94824 -14.5264 19.5811 -22.7373q12.6338 -8.20996 27.793 -8.20996q6.94824 0 19.8975 3.78906q12.9482 3.78906 29.0557 10.7373q16.1074 6.94727 34.4248 16.4209
q18.3184 9.47461 36.6367 21.4746h-0.631836q77.0615 49.2637 77.0615 88.4229q0 60.001 -99.8008 60.001q-14.5283 0 -30.0039 -0.31543q-15.4756 -0.316406 -30.0039 -1.5791h-4.4209q-6.31738 0 -6.31738 10.1055q0 32.2109 51.7959 40.4219
q4.42188 1.2627 6.63281 1.5791q2.20996 0.31543 2.8418 0.31543q27.793 4.4209 67.5869 24q20.2129 10.7373 38.2148 21.4746q18.0029 10.7373 33.1621 22.1055q33.4775 25.2637 52.1113 50.8438q18.6338 25.5791 18.6338 45.79q0 37.2637 -51.7959 37.2637
q-20.2129 0 -46.1104 -6.94727t-54.6377 -19.2637q-28.7402 -12.3154 -58.4277 -29.6846t-57.4805 -38.8428l-19.5811 -15.79q-6.94824 -5.68457 -13.2646 -10.4209q-6.31738 -4.7373 -4.42188 -4.7373q-5.68555 0 -11.3701 5.36816q-5.68457 5.36914 -5.68457 10.4219
q0 8.8418 19.5811 30.3164q19.5811 21.4736 53.0586 46.1064q27.1611 21.4736 54.3223 38.5264q27.1611 17.0537 52.1113 29.0537t46.1113 18.6318q21.1602 6.63184 36.3193 6.63184q25.2666 0 45.1631 -12.3164q19.8975 -12.3164 33.4775 -30
q13.5811 -17.6855 20.8447 -36.3174q7.26465 -18.6318 7.26465 -31.8955q0 -20.2109 -12.002 -42.3164q-12.001 -22.1055 -35.3721 -44.2109t-56.8486 -42.9482q-33.4785 -20.8428 -77.0625 -38.5273zM847 830q-79 -151 -155 -307.5t-149 -322.5q-144 -330 -164 -330
q-17 0 -31.5 13t-14.5 33q0 25 79 207q40 91 95 208t126 264l4 8q138 287 189 287q32 0 32 -36q0 -8 -1.5 -13.5t-9.5 -10.5zM607.166 110.674q-31.6943 -1.24316 -67.4277 -3.73047q-35.7344 -2.48633 -66.1855 -5.5957q-31.0732 -3.1084 -45.6777 -4.66309
t-15.8467 -1.55469q-10.5654 0 -18.333 9.94824q-7.76855 9.94824 -7.76855 24.8711q0 17.4092 46.6094 75.2334q24.2373 30.4668 77.3721 90.1562t138.274 150.467q35.4229 38.5498 61.835 60.6221t36.9775 22.0723q11.1865 0 21.1299 -1.86523t17.7109 -4.66309
q7.76855 -2.79785 12.4297 -6.52832q4.66016 -3.73047 4.66016 -7.46094q0 -1.24414 -8.07812 -19.2754q-32.3164 -74.6113 -63.0781 -160.415q-30.7627 -85.8037 -59.3496 -176.581q1.24219 0 6.21484 -0.311523q4.9707 -0.310547 8.07812 -0.310547
q2.48633 -0.62207 5.59375 -0.62207h4.34961q32.9375 0 45.6777 -6.52832t12.7402 -23.3164q0 -3.73047 -1.24316 -9.94824l1.24316 1.24414l4.34961 1.86523h-6.21484q-3.10645 0 -5.90332 0.310547t-4.66113 0.310547q-4.34961 0.62207 -9.32227 0.62207h-8.07812
q-6.21484 0 -15.8477 -0.310547q-9.63281 -0.311523 -22.6836 -0.932617l-28.5869 -1.24414q-8.7002 -21.1396 -15.5361 -43.5234q-6.83594 -22.3828 -13.6719 -45.3887q-6.83691 -21.1396 -12.7402 -32.6426q-5.9043 -11.5029 -10.876 -11.5029
q-10.5645 0 -16.4688 6.83984q-5.90332 6.83887 -5.90332 17.4092q0 7.46094 5.28223 31.3994q5.28223 23.9375 14.6045 63.1094zM622.081 156.063q11.8076 31.71 27.0342 73.6787q15.2256 41.9688 33.248 94.8193q18.0225 53.4717 31.3838 90.4668t21.4404 57.5127
l-9.32227 6.83984q-41.6377 -45.3887 -82.0332 -91.0889q-40.3945 -45.6992 -77.9932 -88.9121q-37.5977 -43.2129 -71.7783 -83.627q-34.1797 -40.415 -63.3887 -75.8555q23.6152 2.48633 48.4736 4.35254q24.8584 1.86523 49.0957 3.41895q24.2363 1.55469 46.6094 2.4873
q22.3721 0.932617 41.6377 1.55469z" />
    </font>
</defs>
</svg>
